<svg xmlns="http://www.w3.org/2000/svg">
<defs>
<font id="CityBoysSoft-Light" horiz-adv-x="1265" >
  <font-face 
    font-family="CityBoysSoft Light"
    font-weight="300"
    font-stretch="normal"
    units-per-em="2048"
    panose-1="2 15 4 3 3 5 3 2 2 4"
    ascent="1638"
    descent="-410"
    x-height="954"
    cap-height="1397"
    bbox="-768 -512 2386 1929"
    underline-thickness="20"
    underline-position="-257"
    unicode-range="U+000D-FB02"
  />
<missing-glyph horiz-adv-x="1484" 
d="M461 922h-359v358h359v-358zM666 768h-103v51h-51v256h102v103h-102v102h51v-51h103v-51h51v51h-51v51h102v-51h51v51h51v-102h52v-52h-52v-102h-51v-51h-51v153h-102v-51h51v-102h-51v51h-103v-154h51v103h52v-51h51v51h51v-103h-102v-102zM973 1178h-51v102h51v-102z
M1382 922h-358v358h358v-358zM154 1229v-256h256v256h-256zM1075 1229v-256h256v256h-256zM358 1024h-153v154h153v-154zM1280 1024h-154v154h154v-154zM870 870h-51v103h51v-103zM973 922h-51v51h51v-51zM256 717h-102v51h-52v102h154v-51h-51v-51h51v-51zM410 768h-103v51
h51v51h103v-51h-51v-51zM922 717h-52v153h52v-51h51v-51h-51v-51zM1024 666h-51v102h51v51h-51v51h205v-51h-52v-51h52v51h51v-51h51v-51h-51v-51h-103v51h-102v-51zM1382 717h-51v51h-51v102h102v-153zM512 717h-102v51h51v51h51v-102zM819 768h-51v51h51v-51zM717 717h-51
v51h51v-51zM307 666h-51v51h51v-51zM512 614h-205v52h51v51h52v-51h102v-52zM614 563h-51v154h51v-154zM870 666h-51v51h51v-51zM154 563h-52v103h52v-103zM870 0h-102v51h51v51h-51v-51h-102v51h51v103h-51v-51h-52v102h154v51h51v-102h-51v-51h102v153h52v51h-52v52h-51
v-52h-51v103h51v51h51v-51h52v51h-52v102h154v52h102v-103h154v-51h-154v-51h52v-103h51v-51h-51v-51h51v-51h102v-51h51v-52h-102v52h-102v-103h-103v-51h-51v51h-51v-51h-51v102h-52v-102zM768 461h-102v51h51v102h-51v52h102v-52h51v-102h-51v-51zM1382 512h-51v51h-51
v51h51v52h51v-154zM358 410h-51v51h-51v51h-51v51h51v51h51v-102h51v-102zM563 358h-51v52h-102v51h51v51h-103v51h154v-102h51v-103zM666 512h-52v51h52v-51zM205 461h-103v51h103v-51zM614 461h-51v51h51v-51zM973 512v-51h51v51h-51zM256 410h-51v51h51v-51zM666 410h-52

<glyph glyph-name="fi" unicode="fi" horiz-adv-x="1175" 
d="M723 1460q31 -14 16 -49l-6 -12q-14 -32 -49 -17q-51 23 -113 23q-188 0 -188 -217v-234h240q36 0 36 -36v-13q0 -37 -36 -37h-240v-831q0 -37 -37 -37h-37q-37 0 -37 37v831h-182q-37 0 -37 37v13q0 36 37 36h182v228q0 309 289 309q89 0 162 -31zM997 1241
q-20 -20 -53 -20t-53 20t-20 53.5t20 53.5t53 20t53 -20t20 -53.5t-20 -53.5zM926 954h37q36 0 36 -36v-881q0 -37 -36 -37h-37q-37 0 -37 37v881q0 36 37 36z" />
    <glyph glyph-name="fl" unicode="fl" horiz-adv-x="1175" 
d="M723 1460q31 -14 16 -49l-6 -12q-14 -32 -49 -17q-51 23 -113 23q-188 0 -188 -217v-234h240q36 0 36 -36v-13q0 -37 -36 -37h-240v-831q0 -37 -37 -37h-37q-37 0 -37 37v831h-182q-37 0 -37 37v13q0 36 37 36h182v228q0 309 289 309q89 0 162 -31zM926 1470h37
q36 0 36 -36v-1397q0 -37 -36 -37h-37q-37 0 -37 37v1397q0 36 37 36z" />
    <glyph glyph-name=".notdef" horiz-adv-x="1484" 
d="M461 922h-359v358h359v-358zM666 768h-103v51h-51v256h102v103h-102v102h51v-51h103v-51h51v51h-51v51h102v-51h51v51h51v-102h52v-52h-52v-102h-51v-51h-51v153h-102v-51h51v-102h-51v51h-103v-154h51v103h52v-51h51v51h51v-103h-102v-102zM973 1178h-51v102h51v-102z
M1382 922h-358v358h358v-358zM154 1229v-256h256v256h-256zM1075 1229v-256h256v256h-256zM358 1024h-153v154h153v-154zM1280 1024h-154v154h154v-154zM870 870h-51v103h51v-103zM973 922h-51v51h51v-51zM256 717h-102v51h-52v102h154v-51h-51v-51h51v-51zM410 768h-103v51
h51v51h103v-51h-51v-51zM922 717h-52v153h52v-51h51v-51h-51v-51zM1024 666h-51v102h51v51h-51v51h205v-51h-52v-51h52v51h51v-51h51v-51h-51v-51h-103v51h-102v-51zM1382 717h-51v51h-51v102h102v-153zM512 717h-102v51h51v51h51v-102zM819 768h-51v51h51v-51zM717 717h-51
v51h51v-51zM307 666h-51v51h51v-51zM512 614h-205v52h51v51h52v-51h102v-52zM614 563h-51v154h51v-154zM870 666h-51v51h51v-51zM154 563h-52v103h52v-103zM870 0h-102v51h51v51h-51v-51h-102v51h51v103h-51v-51h-52v102h154v51h51v-102h-51v-51h102v153h52v51h-52v52h-51
v-52h-51v103h51v51h51v-51h52v51h-52v102h154v52h102v-103h154v-51h-154v-51h52v-103h51v-51h-51v-51h51v-51h102v-51h51v-52h-102v52h-102v-103h-103v-51h-51v51h-51v-51h-51v102h-52v-102zM768 461h-102v51h51v102h-51v52h102v-52h51v-102h-51v-51zM1382 512h-51v51h-51
v51h51v52h51v-154zM358 410h-51v51h-51v51h-51v51h51v51h51v-102h51v-102zM563 358h-51v52h-102v51h51v51h-103v51h154v-102h51v-103zM666 512h-52v51h52v-51zM205 461h-103v51h103v-51zM614 461h-51v51h51v-51zM973 512v-51h51v51h-51zM256 410h-51v51h51v-51zM666 410h-52
v51h52v-51zM1331 410h-51v51h51v-51zM973 410v-154h153v154h-153zM1280 358h-51v52h51v-52zM1382 205h-51v51h-51v51h51v103h51v-205zM461 0h-359v358h359v-358zM614 256h-102v51h51v51h51v-102zM717 307h-51v51h51v-51zM1075 307h-51v51h51v-51zM154 307v-256h256v256h-256
zM358 102h-153v154h153v-154zM922 205v-51h51v51h-51zM1024 205v-103h102v103h-102zM666 0h-154v154h102v-103h52v-51zM1229 0h-51v51h51v-51zM1382 0h-51v51h51v-51z" />
    <glyph glyph-name=".null" horiz-adv-x="0" 
 />
    <glyph glyph-name="nonmarkingreturn" horiz-adv-x="681" 
 />
    <glyph glyph-name="CR" unicode="&#xd;" horiz-adv-x="471" 
 />
    <glyph glyph-name="space" unicode=" " horiz-adv-x="471" 
 />
    <glyph glyph-name="exclam" unicode="!" horiz-adv-x="557" 
d="M281 403h-5q-36 0 -36 37l-25 920q0 37 35 37h57q37 0 37 -37l-27 -920q0 -37 -36 -37zM340 4q-25 -25 -61.5 -25t-59.5 25q-25 23 -25 59.5t25 61.5q23 23 59.5 23t61.5 -23q23 -25 23 -61.5t-23 -59.5z" />
    <glyph glyph-name="quotedbl" unicode="&#x22;" horiz-adv-x="854" 
d="M285 1008h-9q-33 0 -36 34l-25 316q-3 39 37 39h57q40 0 37 -39l-24 -316q-3 -34 -37 -34zM578 1008h-9q-34 0 -37 34l-24 316q-3 39 37 39h57q40 0 37 -39l-25 -316q-3 -34 -36 -34z" />
    <glyph glyph-name="numbersign" unicode="#" 
d="M944 1028h170q37 0 31 -39l-6 -33q-6 -30 -39 -30h-176l-86 -455h170q36 0 30 -39l-6 -33q-6 -30 -39 -30h-174l-63 -338q-6 -31 -39 -31h-33q-39 0 -33 37l62 332h-285l-63 -338q-6 -31 -39 -31h-33q-39 0 -33 37l62 332h-170q-37 0 -31 39l6 32q6 31 39 31h176l86 455
h-170q-37 0 -31 39l6 32q6 31 39 31h174l64 338q6 31 39 31h33q38 0 32 -37l-61 -332h285l63 338q6 31 39 31h33q39 0 33 -37zM446 471h287l86 455h-287z" />
    <glyph glyph-name="dollar" unicode="$" 
d="M1092 420q0 -159 -104.5 -255t-289.5 -110v-121q0 -36 -36 -36h-19q-37 0 -37 36v119q-244 9 -416 140q-26 20 -4 51l17 18q22 28 51 6q164 -120 352 -123v508q-205 47 -291 124t-86 208q0 151 99.5 244t277.5 110v123q0 37 37 37h19q36 0 36 -37v-119q170 -6 299 -81
q31 -19 11 -52l-13 -20q-18 -26 -51 -12q-106 62 -246 71v-495q213 -44 303.5 -122.5t90.5 -211.5zM344 993q0 -88 58.5 -137.5t203.5 -81.5v475q-124 -13 -193 -81.5t-69 -174.5zM698 635v-485q132 17 205.5 85.5t73.5 176.5q0 90 -61.5 139t-217.5 84z" />
    <glyph glyph-name="percent" unicode="%" horiz-adv-x="1705" 
d="M637 741q-85 -108 -236 -108t-233 108q-86 109 -86 281q0 174 86 283q81 106 233 106t236 -106q84 -110 84 -283q0 -171 -84 -281zM459 0h-47q-20 0 -26.5 11t3.5 28l817 1335q13 23 41 23h47q20 0 26.5 -11t-3.5 -28l-817 -1335q-13 -23 -41 -23zM256 799
q49 -82 145 -82q97 0 146 82t49 223t-49 223t-146 82q-96 0 -145 -82t-49 -223t49 -223zM1540 94q-86 -108 -235 -108q-151 0 -234 108q-86 109 -86 281q0 173 86 282q82 107 234 107q150 0 235 -107q84 -110 84 -282q0 -171 -84 -281zM1159 152q49 -82 146 -82q96 0 145 82
t49 223t-49 223t-145 82q-97 0 -146 -82t-49 -223t49 -223z" />
    <glyph glyph-name="ampersand" unicode="&#x26;" horiz-adv-x="1341" 
d="M510 -20q-191 0 -303.5 98.5t-112.5 269.5q0 75 21 134t65 107t100 85t138 76q-88 103 -123 178t-35 162q0 139 96 235q95 92 248 92q143 0 231.5 -83.5t88.5 -219.5q0 -69 -21.5 -124t-67.5 -100.5t-104.5 -82t-146.5 -78.5l368 -399q111 156 197 403q12 35 47 23l18 -6
q35 -12 23 -48q-103 -281 -221 -442l198 -215q14 -17 8.5 -31t-28.5 -14h-70q-28 0 -45 20l-137 150q-178 -190 -432 -190zM522 799q99 48 156 88.5t91 98t34 132.5q0 96 -54 151.5t-147 55.5q-103 0 -162 -66.5t-59 -181.5q0 -66 31.5 -128t109.5 -150zM522 72
q206 0 359 166l-402 442q-134 -71 -198 -147.5t-64 -188.5q0 -127 82 -199.5t223 -72.5z" />
    <glyph glyph-name="quotesingle" unicode="'" horiz-adv-x="561" 
d="M285 1008h-9q-33 0 -36 34l-25 316q-3 39 37 39h57q40 0 37 -39l-24 -316q-3 -34 -37 -34z" />
    <glyph glyph-name="parenleft" unicode="(" horiz-adv-x="688" 
d="M518 -387q-189 164 -290 399t-101 500q0 261 101.5 495.5t289.5 403.5q24 21 47 -2l15 -14q22 -23 -2 -47q-342 -342 -342 -836t342 -836q24 -24 2 -47l-15 -14q-23 -23 -47 -2z" />
    <glyph glyph-name="parenright" unicode=")" horiz-adv-x="688" 
d="M170 1411q189 -164 290 -399t101 -500q0 -261 -101.5 -495.5t-289.5 -403.5q-24 -21 -47 2l-14 14q-23 23 2 47q342 342 342 836t-342 836q-25 24 -2 47l14 14q23 23 47 2z" />
    <glyph glyph-name="asterisk" unicode="*" horiz-adv-x="913" 
d="M532 1032l234 -127q28 -16 12 -45l-12 -20q-15 -26 -45 -11l-227 140l8 -269q0 -32 -33 -32h-25q-17 0 -24.5 7.5t-7.5 24.5l8 267l-227 -140q-30 -20 -46 13l-12 20q-16 29 12 45l236 127l-236 127q-28 16 -12 45l12 21q16 32 46 12l227 -139l-8 266q0 33 32 33h25
q33 0 33 -33l-8 -268l227 139q31 15 45 -10l12 -21q16 -29 -12 -45z" />
    <glyph glyph-name="plus" unicode="+" 
d="M680 586h414q36 0 36 -37v-21q0 -36 -36 -36h-414v-414q0 -37 -37 -37h-20q-37 0 -37 37v414h-414q-37 0 -37 36v21q0 37 37 37h414v413q0 37 37 37h20q37 0 37 -37v-413z" />
    <glyph glyph-name="comma" unicode="," horiz-adv-x="561" 
d="M197 -246h-15q-42 0 -30 41l88 303q9 31 41 31h61q44 0 29 -43l-131 -303q-13 -29 -43 -29z" />
    <glyph glyph-name="hyphen" unicode="-" horiz-adv-x="759" 
d="M598 428h-436q-37 0 -37 37v16q0 37 37 37h436q37 0 37 -37v-16q0 -37 -37 -37z" />
    <glyph glyph-name="period" unicode="." horiz-adv-x="561" 
d="M342 4q-25 -25 -61.5 -25t-59.5 25q-25 23 -25 59.5t25 61.5q23 23 59.5 23t61.5 -23q23 -25 23 -61.5t-23 -59.5z" />
    <glyph glyph-name="slash" unicode="/" horiz-adv-x="808" 
d="M127 -41h-33q-20 0 -28 12t0 31l573 1407q13 29 43 29h33q20 0 28 -12t0 -31l-573 -1407q-13 -29 -43 -29z" />
    <glyph glyph-name="zero" unicode="0" 
d="M991 166q-125 -186 -358 -186q-234 0 -359 186q-124 182 -124 532t124 535q126 184 359 184q232 0 358 -184q125 -186 125 -535t-125 -532zM272 698q0 -626 361 -626q360 0 360 626q0 627 -360 627q-361 0 -361 -627z" />
    <glyph glyph-name="one" unicode="1" horiz-adv-x="860" 
d="M610 0h-41q-37 0 -37 37v1220l-374 -174q-34 -15 -49 19l-9 18q-14 33 17 49l436 226q20 10 45 10h12q37 0 37 -37v-1331q0 -37 -37 -37z" />
    <glyph glyph-name="two" unicode="2" horiz-adv-x="1118" 
d="M958 0h-821q-37 0 -37 37v8q0 26 19 45l522 514q117 116 164 206t47 200q0 142 -84.5 228.5t-224.5 86.5q-185 0 -324 -139q-27 -27 -51 0l-14 14q-28 28 -2 53q164 164 399 164q193 0 308.5 -108.5t115.5 -292.5q0 -133 -57 -238q-56 -103 -209 -250l-445 -426h694
q37 0 37 -36v-29q0 -37 -37 -37z" />
    <glyph glyph-name="three" unicode="3" horiz-adv-x="1165" 
d="M537 -20q-234 0 -402 116q-29 20 -8 54l14 18q21 27 52 6q144 -102 344 -102q180 0 274 80.5t94 232.5q0 147 -86 225t-246 78h-186q-37 0 -37 37v18q0 37 37 37h160q155 0 237 70t82 203t-81 202.5t-236 69.5q-190 0 -313 -108q-26 -22 -52 4l-16 16q-30 30 4 53
q157 127 383 127q202 0 316 -94.5t114 -261.5q0 -241 -237 -318q135 -32 207.5 -124.5t72.5 -233.5q0 -190 -131 -297.5t-360 -107.5z" />
    <glyph glyph-name="four" unicode="4" horiz-adv-x="1230" 
d="M899 0h-41q-37 0 -37 37v323h-696q-37 0 -37 35v8q0 24 16 46l730 933q20 23 45 23h20q37 0 37 -37v-907h168q37 0 37 -37v-27q0 -37 -37 -37h-168v-323q0 -37 -37 -37zM821 1206l-581 -745h581v745z" />
    <glyph glyph-name="five" unicode="5" horiz-adv-x="1165" 
d="M551 -20q-225 0 -399 116q-31 22 -11 51l15 21q22 28 51 8q149 -104 344 -104q369 0 369 342q0 167 -90.5 255.5t-262.5 88.5q-178 0 -282 -72q-21 -15 -47 -12l-15 2q-36 6 -33 39l35 647q3 35 39 35h664q37 0 37 -37v-29q0 -37 -37 -37h-604l-27 -516q129 72 295 72
q214 0 332 -112.5t118 -315.5q0 -211 -129 -326.5t-362 -115.5z" />
    <glyph glyph-name="six" unicode="6" horiz-adv-x="1193" 
d="M623 -20q-228 0 -356 166t-128 462q0 373 205 582.5t582 226.5q37 0 37 -37v-18q0 -37 -37 -37q-641 -24 -668 -686q54 103 153 158t230 55q194 0 313 -119q121 -121 121 -311q0 -198 -125 -320t-327 -122zM633 72q143 0 232 95t89 249t-90 249t-237 95q-156 0 -254 -94
q-99 -94 -99 -242q12 -158 111.5 -255t247.5 -97z" />
    <glyph glyph-name="seven" unicode="7" horiz-adv-x="1052" 
d="M262 0h-37q-47 0 -26 43l635 1251h-711q-37 0 -37 37v29q0 37 37 37h807q37 0 37 -29v-6q0 -18 -11 -47l-649 -1288q-12 -27 -45 -27z" />
    <glyph glyph-name="eight" unicode="8" horiz-adv-x="1236" 
d="M815 748q138 -42 213.5 -135.5t75.5 -225.5q0 -180 -133 -295q-133 -112 -353 -112t-350 112q-135 114 -135 295q0 132 75.5 225.5t213.5 135.5q-117 38 -181.5 120.5t-64.5 194.5q0 157 123 256q122 98 319 98q198 0 320 -98q123 -99 123 -256q0 -112 -64.5 -194.5
t-181.5 -120.5zM295 1055q0 -122 85.5 -191t237.5 -69t238 69t86 191q0 123 -88 196.5t-236 73.5t-235.5 -73.5t-87.5 -196.5zM356 158q100 -86 262 -86t265 86q98 85 98 229q0 146 -97.5 230.5t-265.5 84.5q-167 0 -264.5 -84.5t-97.5 -230.5q0 -145 100 -229z" />
    <glyph glyph-name="nine" unicode="9" horiz-adv-x="1193" 
d="M571 1419q228 0 356 -166t128 -462q0 -373 -205 -582.5t-582 -226.5q-37 0 -37 36v19q0 37 37 37q641 24 668 686q-54 -103 -153 -158t-230 -55q-192 0 -313 121t-121 309q0 195 127 319q126 123 325 123zM561 1327q-143 0 -232 -95t-89 -249t90 -249t237 -95
q156 0 254 94q99 95 99 242q-12 158 -111.5 255t-247.5 97z" />
    <glyph glyph-name="colon" unicode=":" horiz-adv-x="561" 
d="M342 659q-25 -25 -61.5 -25t-59.5 25q-25 23 -25 59.5t25 61.5q23 23 59.5 23t61.5 -23q23 -25 23 -61.5t-23 -59.5zM342 4q-25 -25 -61.5 -25t-59.5 25q-25 23 -25 59.5t25 61.5q23 23 59.5 23t61.5 -23q23 -25 23 -61.5t-23 -59.5z" />
    <glyph glyph-name="semicolon" unicode=";" horiz-adv-x="561" 
d="M342 659q-25 -25 -61.5 -25t-59.5 25q-25 23 -25 59.5t25 61.5q23 23 59.5 23t61.5 -23q23 -25 23 -61.5t-23 -59.5zM154 -246h-15q-42 0 -30 41l88 303q9 31 41 31h61q44 0 29 -43l-131 -303q-13 -29 -43 -29z" />
    <glyph glyph-name="less" unicode="&#x3c;" 
d="M1061 61l-885 418q-26 12 -26 43v33q0 31 26 43l885 418q19 8 31 0.5t12 -27.5v-24q0 -31 -27 -43l-805 -383l805 -383q27 -12 27 -43v-25q0 -20 -12 -27.5t-31 0.5z" />
    <glyph glyph-name="equal" unicode="=" 
d="M1073 696h-880q-37 0 -37 37v21q0 37 37 37h880q37 0 37 -37v-21q0 -37 -37 -37zM1073 287h-880q-37 0 -37 37v20q0 37 37 37h880q37 0 37 -37v-20q0 -37 -37 -37z" />
    <glyph glyph-name="greater" unicode="&#x3e;" 
d="M1090 479l-885 -418q-19 -8 -31 -0.5t-12 27.5v25q0 31 26 43l805 383l-805 383q-26 12 -26 43v24q0 20 12 27.5t31 -0.5l885 -418q26 -12 26 -43v-33q0 -31 -26 -43z" />
    <glyph glyph-name="question" unicode="?" horiz-adv-x="841" 
d="M291 406l-6 -3q-33 -12 -45 25q-25 73 -25 150q0 109 52 180t179 137q106 56 147.5 105.5t41.5 121.5q0 97 -66.5 150t-187.5 53q-129 0 -231 -57q-36 -19 -50 14l-10 18q-18 35 14 52q121 65 285 65q177 0 272 -81t95 -230q0 -106 -54 -175.5t-188 -135.5
q-117 -57 -163 -110.5t-46 -133.5q0 -29 12 -100q6 -34 -26 -45zM365 4q-25 -25 -61.5 -25t-59.5 25q-25 23 -25 59.5t25 61.5q23 23 59.5 23t61.5 -23q23 -25 23 -61.5t-23 -59.5z" />
    <glyph glyph-name="at" unicode="@" horiz-adv-x="1622" 
d="M1155 825l-72 -434q-4 -36 -4 -45q0 -102 88 -102q102 0 166 116t64 295q0 221 -140 361q-141 135 -372 135q-271 0 -459 -203q-186 -201 -186 -495q0 -254 153 -410q149 -158 402 -158q221 0 362 78q33 17 47 -14l6 -15q12 -29 -10 -45q-178 -90 -418 -90
q-295 0 -481 183q-184 181 -184 475q0 334 223 557q219 223 551 223q280 0 450 -164t170 -434q0 -214 -100 -346q-102 -135 -262 -135t-178 153q-92 -151 -254 -151q-109 0 -174.5 74.5t-65.5 197.5q0 182 107 313q105 132 252 132q143 0 196 -136l15 90q6 31 38 31h37
q39 0 33 -37zM748 246q91 0 156.5 74.5t88.5 203.5q6 38 6 72q0 89 -42 143t-115 54q-100 0 -170 -105q-74 -109 -74 -250q0 -87 41 -139.5t109 -52.5z" />
    <glyph glyph-name="A" unicode="A" horiz-adv-x="1433" 
d="M172 0h-33q-20 0 -28 12t0 31l551 1341q13 29 43 29h24q30 0 43 -29l551 -1341q8 -19 -0.5 -31t-28.5 -12h-51q-30 0 -43 29l-139 340h-707l-139 -340q-13 -29 -43 -29zM707 1233l-314 -766h627z" />
    <glyph glyph-name="B" unicode="B" horiz-adv-x="1398" 
d="M834 0h-576q-37 0 -37 37v1323q0 37 37 37h502q432 0 432 -348q0 -241 -207 -312q136 -35 208.5 -127t72.5 -231q0 -174 -116 -276.5t-316 -102.5zM340 1303v-531h399q172 0 250 63.5t78 202.5t-78 202t-250 63h-399zM340 678v-584h473q158 0 243 76t85 217
q0 140 -86 215.5t-244 75.5h-471z" />
    <glyph glyph-name="C" unicode="C" horiz-adv-x="1421" 
d="M856 -20q-316 0 -516 200q-201 201 -201 518q0 318 201 519q200 200 518 200q234 0 418 -123q29 -17 8 -51l-14 -20q-21 -27 -51 -6q-153 106 -355 106q-266 0 -432 -172q-166 -175 -166 -453t166 -450q162 -174 428 -174q209 0 377 121q29 23 51 -9l15 -20
q21 -30 -7 -49q-192 -137 -440 -137z" />
    <glyph glyph-name="D" unicode="D" horiz-adv-x="1595" 
d="M743 0h-485q-37 0 -37 37v1323q0 37 37 37h485q331 0 521 -187t190 -512q0 -323 -190 -510q-191 -188 -521 -188zM340 1303v-1209h385q287 0 444.5 157.5t157.5 446.5t-157.5 447t-444.5 158h-385z" />
    <glyph glyph-name="E" unicode="E" horiz-adv-x="1282" 
d="M1114 0h-856q-37 0 -37 37v1323q0 37 37 37h856q37 0 37 -37v-21q0 -36 -37 -36h-774v-531h664q36 0 36 -37v-20q0 -37 -36 -37h-664v-584h774q37 0 37 -37v-20q0 -37 -37 -37z" />
    <glyph glyph-name="F" unicode="F" horiz-adv-x="1245" 
d="M303 0h-45q-37 0 -37 37v1323q0 37 37 37h856q37 0 37 -37v-21q0 -36 -37 -36h-774v-531h666q36 0 36 -37v-20q0 -37 -36 -37h-666v-641q0 -37 -37 -37z" />
    <glyph glyph-name="G" unicode="G" horiz-adv-x="1581" 
d="M909 -20q-351 0 -559 196q-211 193 -211 522q0 320 207 521q204 198 541 198q243 0 438 -121q28 -22 10 -51l-14 -20q-21 -29 -51 -8q-160 106 -377 106q-281 0 -453 -172q-174 -171 -174 -453q0 -286 174 -454q176 -170 467 -170q237 0 389 116v433h-346q-37 0 -37 36
v21q0 37 37 37h428q37 0 37 -37v-502q0 -29 -22 -45q-193 -153 -484 -153z" />
    <glyph glyph-name="H" unicode="H" horiz-adv-x="1638" 
d="M303 0h-45q-37 0 -37 37v1323q0 37 37 37h45q37 0 37 -37v-588h958v588q0 37 37 37h45q37 0 37 -37v-1323q0 -37 -37 -37h-45q-37 0 -37 37v641h-958v-641q0 -37 -37 -37z" />
    <glyph glyph-name="I" unicode="I" horiz-adv-x="561" 
d="M303 0h-45q-37 0 -37 37v1323q0 37 37 37h45q37 0 37 -37v-1323q0 -37 -37 -37z" />
    <glyph glyph-name="J" unicode="J" horiz-adv-x="606" 
d="M113 -211q-37 -9 -43 29l-4 24q-6 37 28 43q172 34 172 281v1194q0 37 37 37h45q37 0 37 -37v-1186q0 -162 -69.5 -260.5t-202.5 -124.5z" />
    <glyph glyph-name="K" unicode="K" horiz-adv-x="1400" 
d="M301 0h-45q-37 0 -37 37v1323q0 37 37 37h45q37 0 37 -37v-727l797 745q19 19 45 19h51q25 0 30 -14t-14 -31l-551 -518l582 -789q14 -19 7 -32t-30 -13h-63q-29 0 -45 23l-539 729l-270 -252v-463q0 -37 -37 -37z" />
    <glyph glyph-name="L" unicode="L" horiz-adv-x="1241" 
d="M1114 0h-856q-37 0 -37 37v1323q0 37 37 37h45q37 0 37 -37v-1266h774q37 0 37 -37v-20q0 -37 -37 -37z" />
    <glyph glyph-name="M" unicode="M" horiz-adv-x="1878" 
d="M287 0h-29q-37 0 -37 37v1323q0 37 37 37h47q33 0 45 -27l600 -1155l572 1155q12 27 43 27h55q37 0 37 -37v-1323q0 -37 -37 -37h-45q-37 0 -37 37v1132l-547 -1101q-12 -27 -45 -27h-6q-33 0 -45 27l-571 1101v-1132q0 -37 -37 -37z" />
    <glyph glyph-name="N" unicode="N" horiz-adv-x="1630" 
d="M287 0h-29q-37 0 -37 37v1335q0 37 37 37h18q29 0 46 -20l985 -1180v1151q0 37 36 37h29q37 0 37 -37v-1335q0 -37 -35 -37h-8q-28 0 -45 20l-997 1194v-1165q0 -37 -37 -37z" />
    <glyph glyph-name="O" unicode="O" horiz-adv-x="1716" 
d="M1376 182q-202 -202 -518 -202q-317 0 -516 202q-203 200 -203 516t203 519q200 200 516 200q318 0 518 -200q201 -201 201 -519q0 -315 -201 -516zM432 248q162 -174 426 -174q263 0 428 174q164 173 164 450t-164 453q-166 172 -428 172q-263 0 -426 -172
q-166 -175 -166 -453t166 -450z" />
    <glyph glyph-name="P" unicode="P" horiz-adv-x="1368" 
d="M303 0h-45q-37 0 -37 37v1323q0 37 37 37h557q207 0 318.5 -102t111.5 -291t-111.5 -291.5t-318.5 -102.5h-475v-573q0 -37 -37 -37zM340 1303v-598h455q325 0 325 299t-325 299h-455z" />
    <glyph glyph-name="Q" unicode="Q" horiz-adv-x="1716" 
d="M1698 -176l16 -21q22 -29 -6 -51q-165 -127 -362 -127q-358 0 -435 357q-12 -2 -53 -2q-317 0 -516 202q-203 200 -203 516t203 519q200 200 516 200q318 0 518 -200q201 -201 201 -519q0 -266 -147 -454q-147 -190 -394 -246q62 -279 312 -279q170 0 299 111
q29 26 51 -6zM432 1151q-166 -175 -166 -453t166 -450q162 -174 426 -174q263 0 428 174q164 173 164 450t-164 453q-166 172 -428 172q-263 0 -426 -172z" />
    <glyph glyph-name="R" unicode="R" horiz-adv-x="1400" 
d="M836 629l430 -584q14 -19 7 -32t-30 -13h-63q-29 0 -45 23l-447 604h-348v-590q0 -37 -37 -37h-45q-37 0 -37 37v1323q0 37 37 37h537q204 0 317 -101t113 -284q0 -174 -102 -275t-287 -108zM774 1303h-434v-582h434q326 0 326 291t-326 291z" />
    <glyph glyph-name="S" unicode="S" horiz-adv-x="1259" 
d="M639 -20q-288 0 -492 155q-27 21 -6 51l15 19q21 27 51 6q189 -137 414 -137q177 0 285 79.5t108 208.5q0 121 -76 179q-74 56 -305 106q-260 58 -365 144q-104 85 -104 243q0 175 131 279q128 104 344 104q224 0 399 -102q31 -19 13 -49l-15 -23q-18 -27 -49 -12
q-160 92 -346 92q-160 0 -259 -75.5t-99 -196.5q0 -120 77 -179q78 -60 302 -106q257 -54 362.5 -141.5t105.5 -245.5q0 -182 -133 -291q-135 -108 -358 -108z" />
    <glyph glyph-name="T" unicode="T" horiz-adv-x="1306" 
d="M676 0h-45q-37 0 -37 37v1266h-467q-37 0 -37 36v21q0 37 37 37h1053q37 0 37 -37v-21q0 -36 -37 -36h-467v-1266q0 -37 -37 -37z" />
    <glyph glyph-name="U" unicode="U" horiz-adv-x="1542" 
d="M778 -20q-317 0 -448 143q-133 145 -133 407v830q0 37 36 37h46q36 0 36 -37v-809q0 -243 109 -358t362 -115q247 0 353 114.5t106 358.5v809q0 37 37 37h27q37 0 37 -37v-830q0 -277 -134.5 -413.5t-433.5 -136.5z" />
    <glyph glyph-name="V" unicode="V" horiz-adv-x="1433" 
d="M729 -16h-24q-31 0 -43 28l-551 1342q-8 19 0 31t28 12h51q30 0 43 -29l494 -1204l492 1204q13 29 43 29h32q20 0 28.5 -12t0.5 -31l-551 -1342q-12 -28 -43 -28z" />
    <glyph glyph-name="W" unicode="W" horiz-adv-x="2080" 
d="M606 0h-33q-34 0 -43 31l-419 1325q-12 41 30 41h49q34 0 43 -31l367 -1163l391 1163q9 31 43 31h29q34 0 43 -31l393 -1178l365 1178q9 31 43 31h32q43 0 31 -41l-418 -1325q-9 -31 -43 -31h-34q-34 0 -43 31l-390 1165l-393 -1165q-9 -31 -43 -31z" />
    <glyph glyph-name="X" unicode="X" horiz-adv-x="1363" 
d="M750 735l493 -690q12 -19 6.5 -32t-28.5 -13h-62q-29 0 -45 23l-446 620l-439 -620q-16 -23 -45 -23h-37q-20 0 -27 13t5 32l481 674l-452 633q-12 19 -5 32t27 13h62q29 0 45 -23l403 -563l397 563q16 23 45 23h37q23 0 29 -13t-6 -32z" />
    <glyph glyph-name="Y" unicode="Y" horiz-adv-x="1316" 
d="M682 0h-45q-37 0 -37 37v565l-485 750q-12 20 -5.5 32.5t29.5 12.5h60q33 0 45 -25l424 -663l426 663q16 25 45 25h39q23 0 29.5 -12.5t-5.5 -32.5l-483 -748v-567q0 -37 -37 -37z" />
    <glyph glyph-name="Z" unicode="Z" horiz-adv-x="1243" 
d="M1098 0h-959q-37 0 -37 35v10q0 24 15 45l856 1213h-793q-37 0 -37 36v21q0 37 37 37h918q37 0 37 -35v-10q0 -24 -15 -45l-856 -1213h834q37 0 37 -37v-20q0 -37 -37 -37z" />
    <glyph glyph-name="bracketleft" unicode="[" horiz-adv-x="684" 
d="M563 -410h-317q-33 0 -33 33v1778q0 33 33 33h317q33 0 33 -33v-17q0 -32 -33 -32h-244v-1680h244q33 0 33 -32v-17q0 -33 -33 -33z" />
    <glyph glyph-name="backslash" unicode="\" horiz-adv-x="808" 
d="M715 -41h-33q-30 0 -43 29l-573 1407q-8 19 0 31t28 12h33q30 0 43 -29l573 -1407q8 -19 0 -31t-28 -12z" />
    <glyph glyph-name="bracketright" unicode="]" horiz-adv-x="684" 
d="M121 1434h317q33 0 33 -33v-1778q0 -33 -33 -33h-317q-33 0 -33 33v17q0 32 33 32h244v1680h-244q-33 0 -33 32v17q0 33 33 33z" />
    <glyph glyph-name="asciicircum" unicode="^" 
d="M242 750h-33q-23 0 -30 12.5t5 32.5l385 577q16 25 45 25h37q29 0 45 -25l385 -577q12 -20 5.5 -32.5t-29.5 -12.5h-33q-30 0 -45 24l-346 522l-346 -522q-15 -24 -45 -24z" />
    <glyph glyph-name="underscore" unicode="_" horiz-adv-x="819" 
d="M782 -279h-745q-37 0 -37 33v17q0 32 37 32h745q37 0 37 -32v-17q0 -33 -37 -33z" />
    <glyph glyph-name="grave" unicode="`" horiz-adv-x="1228" 
d="M778 1155h-20q-25 0 -47 16l-258 220q-19 13 -14 28t28 15h74q27 0 43 -19l209 -223q11 -12 6.5 -24.5t-21.5 -12.5z" />
    <glyph glyph-name="a" unicode="a" horiz-adv-x="1060" 
d="M526 975q183 0 279 -95.5t96 -275.5v-567q0 -37 -37 -37h-28q-37 0 -37 37v176q-94 -233 -367 -233q-146 0 -236 76.5t-90 201.5q0 137 107 216t293 79q158 0 285 -47v88q0 291 -271 291q-157 0 -276 -94q-29 -22 -51 6l-11 14q-21 30 6 51q143 113 338 113zM451 66
q141 0 232.5 96t104.5 260q-128 45 -264 45q-299 0 -299 -205q0 -90 61.5 -143t164.5 -53z" />
    <glyph glyph-name="b" unicode="b" horiz-adv-x="1222" 
d="M649 975q206 0 334 -137q127 -139 127 -361q0 -219 -127 -358t-332 -139q-261 0 -372 206v-149q0 -37 -37 -37h-29q-37 0 -37 37v1397q0 36 37 36h37q37 0 37 -36v-652q114 193 362 193zM379 178q93 -112 258 -112t258 112q96 116 96 299t-96 299q-94 113 -258 113
t-258 -113q-96 -116 -96 -299t96 -299z" />
    <glyph glyph-name="c" unicode="c" horiz-adv-x="1026" 
d="M596 -20q-217 0 -350 139q-135 138 -135 358q0 223 135 361q131 137 350 137q170 0 295 -82q28 -22 10 -51l-8 -13q-18 -30 -51 -10q-110 70 -236 70q-173 0 -275 -111.5t-102 -300.5t102 -300t275 -111q148 0 266 92q29 23 52 -6l10 -13q22 -31 -4 -51
q-144 -108 -334 -108z" />
    <glyph glyph-name="d" unicode="d" horiz-adv-x="1222" 
d="M973 1470h37q37 0 37 -36v-1397q0 -37 -37 -37h-29q-37 0 -37 37v149q-111 -206 -373 -206q-204 0 -331 139t-127 358q0 223 129 361q125 137 331 137q249 0 363 -193v652q0 36 37 36zM328 178q93 -112 258 -112t258 112q96 116 96 299t-96 299q-94 113 -258 113
t-258 -113q-97 -117 -97 -299t97 -299z" />
    <glyph glyph-name="e" unicode="e" horiz-adv-x="1138" 
d="M997 121q-156 -141 -385 -141t-364 135q-137 134 -137 362q0 222 133 361q131 137 348 137q202 0 321 -124t119 -335q0 -19 -2 -27q-6 -34 -37 -34h-764q6 -180 112.5 -284.5t283.5 -104.5q179 0 313 122q28 28 51 -2l12 -14q23 -30 -4 -51zM233 541h685q-6 164 -92 256
t-234 92q-147 0 -244.5 -94.5t-114.5 -253.5z" />
    <glyph glyph-name="f" unicode="f" horiz-adv-x="712" 
d="M723 1460q31 -14 16 -49l-6 -12q-14 -32 -49 -17q-51 23 -113 23q-188 0 -188 -217v-234h240q36 0 36 -36v-13q0 -37 -36 -37h-240v-831q0 -37 -37 -37h-37q-37 0 -37 37v831h-182q-37 0 -37 37v13q0 36 37 36h182v228q0 309 289 309q89 0 162 -31z" />
    <glyph glyph-name="g" unicode="g" horiz-adv-x="1222" 
d="M981 954h29q37 0 37 -36v-953q0 -227 -116.5 -344t-342.5 -117q-257 0 -412 152q-24 24 0 51l12 12q24 24 52 2q139 -127 342 -127q354 0 354 371v207q-113 -192 -365 -192q-204 0 -331 139t-127 358q0 223 129 361q125 137 331 137q259 0 371 -207v150q0 36 37 36z
M328 178q93 -112 258 -112t258 112q96 116 96 299t-96 299q-94 113 -258 113t-258 -113q-97 -117 -97 -299t97 -299z" />
    <glyph glyph-name="h" unicode="h" horiz-adv-x="1122" 
d="M627 975q159 0 247.5 -96.5t88.5 -270.5v-571q0 -37 -37 -37h-37q-37 0 -37 37v559q0 139 -62.5 213t-181.5 74q-147 0 -234 -111t-87 -297v-438q0 -37 -37 -37h-37q-37 0 -37 37v1397q0 36 37 36h37q37 0 37 -36v-668q95 209 340 209z" />
    <glyph glyph-name="i" unicode="i" horiz-adv-x="462" 
d="M285 1241q-20 -20 -53.5 -20t-53.5 20t-20 53.5t20 53.5t53.5 20t53.5 -20t20 -53.5t-20 -53.5zM250 0h-37q-37 0 -37 37v881q0 36 37 36h37q37 0 37 -36v-881q0 -37 -37 -37z" />
    <glyph glyph-name="j" unicode="j" horiz-adv-x="462" 
d="M285 1241q-20 -20 -53.5 -20t-53.5 20t-20 53.5t20 53.5t53.5 20t53.5 -20t20 -53.5t-20 -53.5zM-2 -494q-41 -3 -41 35v13q0 37 33 40q99 13 142.5 90t43.5 234v1000q0 36 37 36h37q37 0 37 -36v-977q0 -411 -289 -435z" />
    <glyph glyph-name="k" unicode="k" horiz-adv-x="1034" 
d="M250 0h-37q-37 0 -37 37v1397q0 36 37 36h37q37 0 37 -36v-985l522 487q18 18 45 18h47q25 0 31 -14t-12 -31l-359 -331l395 -533q14 -19 7.5 -32t-29.5 -13h-53q-29 0 -45 23l-357 479l-192 -180v-285q0 -37 -37 -37z" />
    <glyph glyph-name="l" unicode="l" horiz-adv-x="462" 
d="M250 0h-37q-37 0 -37 37v1397q0 36 37 36h37q37 0 37 -36v-1397q0 -37 -37 -37z" />
    <glyph glyph-name="m" unicode="m" horiz-adv-x="1722" 
d="M1245 975q150 0 233 -95t83 -272v-571q0 -37 -37 -37h-37q-37 0 -37 37v559q0 140 -57 213.5t-162 73.5q-142 0 -224.5 -107.5t-82.5 -300.5v-438q0 -37 -37 -37h-37q-37 0 -37 37v559q0 140 -57 213.5t-162 73.5q-142 0 -224.5 -107.5t-82.5 -300.5v-438q0 -37 -37 -37
h-37q-37 0 -37 37v881q0 36 37 36h29q37 0 37 -36v-162q89 219 333 219q235 0 293 -223q88 223 340 223z" />
    <glyph glyph-name="n" unicode="n" horiz-adv-x="1122" 
d="M627 975q159 0 247.5 -96.5t88.5 -270.5v-571q0 -37 -37 -37h-37q-37 0 -37 37v559q0 139 -62.5 213t-181.5 74q-147 0 -234 -111t-87 -297v-438q0 -37 -37 -37h-37q-37 0 -37 37v881q0 36 37 36h29q37 0 37 -36v-170q44 109 134 168t214 59z" />
    <glyph glyph-name="o" unicode="o" horiz-adv-x="1179" 
d="M936 119q-133 -139 -346 -139t-346 139t-133 358q0 222 133 361q131 137 346 137t346 -137q133 -139 133 -361q0 -219 -133 -358zM330 180q99 -114 260 -114q160 0 262 114q98 113 98 297t-98 297q-103 115 -262 115q-160 0 -260 -115q-101 -113 -101 -297t101 -297z" />
    <glyph glyph-name="p" unicode="p" horiz-adv-x="1222" 
d="M651 975q207 0 332 -137q127 -139 127 -361q0 -219 -127 -358q-130 -139 -334 -139q-249 0 -362 192v-610q0 -37 -37 -37h-37q-37 0 -37 37v1356q0 36 37 36h29q37 0 37 -36v-150q112 207 372 207zM379 178q93 -112 258 -112t258 112q96 116 96 299t-96 299
q-94 113 -258 113t-258 -113q-96 -116 -96 -299t96 -299z" />
    <glyph glyph-name="q" unicode="q" horiz-adv-x="1222" 
d="M981 954h29q37 0 37 -36v-1356q0 -37 -37 -37h-37q-37 0 -37 37v610q-113 -192 -363 -192q-204 0 -331 139q-129 138 -129 358q0 222 127 361q125 137 331 137q261 0 373 -207v150q0 36 37 36zM328 178q93 -112 258 -112t258 112q96 116 96 299t-96 299q-94 113 -258 113
t-258 -113q-97 -117 -97 -299t97 -299z" />
    <glyph glyph-name="r" unicode="r" horiz-adv-x="751" 
d="M666 973q36 -3 30 -43l-4 -23q-6 -36 -43 -30q-10 2 -45 2q-146 0 -231.5 -115.5t-85.5 -312.5v-414q0 -37 -37 -37h-37q-37 0 -37 37v881q0 36 37 36h29q37 0 37 -36v-179q88 236 346 236q27 0 41 -2z" />
    <glyph glyph-name="s" unicode="s" horiz-adv-x="964" 
d="M475 -20q-203 0 -358 110q-28 22 -8 51l10 15q22 31 51 8q131 -98 307 -98q125 0 195.5 49t70.5 137q0 78 -53.5 113.5t-206.5 60.5q-195 31 -272.5 91t-77.5 181q0 127 99 202t266 75q155 0 288 -74q34 -18 15 -49l-10 -16q-20 -29 -50 -11q-101 64 -247 64
q-117 0 -183.5 -47t-66.5 -129q0 -75 55.5 -112t208.5 -62q188 -29 267 -91.5t79 -181.5q0 -131 -103 -208.5t-276 -77.5z" />
    <glyph glyph-name="t" unicode="t" horiz-adv-x="749" 
d="M680 74l6 -13q15 -34 -16 -49q-60 -32 -150 -32q-248 0 -248 258v630h-182q-37 0 -37 37v13q0 36 37 36h182v238q0 33 27 45l41 20q19 8 31 0t12 -28v-275h240q36 0 36 -36v-13q0 -37 -36 -37h-240v-641q0 -161 141 -161q58 0 107 24q34 15 49 -16z" />
    <glyph glyph-name="u" unicode="u" horiz-adv-x="1122" 
d="M872 954h37q37 0 37 -36v-881q0 -37 -37 -37h-28q-37 0 -37 37v170q-44 -109 -134 -168t-214 -59q-160 0 -248 96.5t-88 269.5v572q0 36 37 36h36q37 0 37 -36v-560q0 -139 62.5 -212.5t181.5 -73.5q148 0 235 110.5t87 296.5v439q0 36 36 36z" />
    <glyph glyph-name="v" unicode="v" horiz-adv-x="997" 
d="M516 0h-35q-30 0 -43 29l-366 882q-8 19 0 31t28 12h43q31 0 43 -28l322 -783l319 783q12 28 43 28h27q20 0 28.5 -12t0.5 -31l-367 -882q-13 -29 -43 -29z" />
    <glyph glyph-name="w" unicode="w" horiz-adv-x="1513" 
d="M444 0h-10q-31 0 -41 29l-319 882q-12 43 28 43h43q32 0 41 -28l260 -733l269 733q9 28 41 28h18q32 0 41 -28l268 -729l260 729q9 28 41 28h27q20 0 28.5 -12t2.5 -31l-322 -882q-10 -29 -41 -29h-10q-31 0 -41 29l-270 741l-273 -741q-10 -29 -41 -29z" />
    <glyph glyph-name="x" unicode="x" horiz-adv-x="976" 
d="M150 0h-35q-23 0 -30 13t7 32l326 438l-322 426q-14 19 -7 32t30 13h51q26 0 45 -22l279 -373l270 373q16 22 45 22h35q23 0 29.5 -13t-7.5 -32l-313 -422l334 -442q14 -19 7 -32t-30 -13h-51q-25 0 -45 23l-291 389l-282 -389q-16 -23 -45 -23z" />
    <glyph glyph-name="y" unicode="y" horiz-adv-x="989" 
d="M307 -475h-28q-20 0 -28.5 12t-0.5 31l194 459l-372 884q-8 19 0 31t28 12h43q31 0 43 -28l316 -762l317 762q12 28 43 28h27q20 0 28.5 -12t0.5 -31l-568 -1357q-13 -29 -43 -29z" />
    <glyph glyph-name="z" unicode="z" horiz-adv-x="946" 
d="M831 0h-725q-36 0 -36 33v6q0 28 16 47l625 782h-566q-36 0 -36 37v13q0 36 36 36h686q37 0 37 -32v-7q0 -28 -16 -47l-627 -782h606q37 0 37 -37v-12q0 -37 -37 -37z" />
    <glyph glyph-name="braceleft" unicode="{" horiz-adv-x="675" 
d="M555 -410h-8q-141 0 -206 68t-65 217v428q0 168 -143 168h-18q-33 0 -33 33v16q0 33 33 33h18q143 0 143 168v428q0 149 65 217t206 68h8q33 0 33 -33v-17q0 -32 -25 -32q-100 0 -140 -45.5t-40 -157.5v-426q0 -164 -115 -211q115 -47 115 -211v-426q0 -112 40 -157.5
t140 -45.5q25 0 25 -32v-17q0 -33 -33 -33z" />
    <glyph glyph-name="bar" unicode="|" horiz-adv-x="819" 
d="M426 -512h-33q-37 0 -37 37v1974q0 37 37 37h33q37 0 37 -37v-1974q0 -37 -37 -37z" />
    <glyph glyph-name="braceright" unicode="}" horiz-adv-x="675" 
d="M121 1434h8q141 0 205.5 -68t64.5 -217v-428q0 -168 144 -168h18q33 0 33 -33v-16q0 -33 -33 -33h-18q-144 0 -144 -168v-428q0 -149 -64.5 -217t-205.5 -68h-8q-33 0 -33 33v17q0 32 25 32q100 0 140 45.5t40 157.5v426q0 164 115 211q-115 47 -115 211v426
q0 112 -40 157.5t-140 45.5q-25 0 -25 32v17q0 33 33 33z" />
    <glyph glyph-name="asciitilde" unicode="~" 
d="M211 418q-21 -34 -51 -19l-15 9q-33 14 -18 49q57 119 121.5 172t152.5 53q118 0 256 -102q113 -88 205 -88q115 0 195 170q14 36 49 18l14 -8q34 -15 19 -49q-57 -122 -121.5 -175t-155.5 -53q-118 0 -256 105q-119 88 -205 88q-113 0 -190 -170z" />
    <glyph glyph-name="uni00A0" unicode="&#xa0;" horiz-adv-x="471" 
 />
    <glyph glyph-name="exclamdown" unicode="&#xa1;" horiz-adv-x="557" 
d="M219 952q23 23 59.5 23t61.5 -23q23 -25 23 -61.5t-23 -59.5q-25 -25 -61.5 -25t-59.5 25q-25 23 -25 59.5t25 61.5zM276 551h5q36 0 36 -37l25 -920q0 -36 -35 -36h-57q-37 0 -37 36l27 920q0 37 36 37z" />
    <glyph glyph-name="cent" unicode="&#xa2;" 
d="M1036 377l13 -17q22 -28 -5 -49q-128 -99 -303 -108v-166q0 -37 -36 -37h-21q-37 0 -37 37v166q-201 18 -321 153q-121 133 -121 342q0 208 121 344q122 134 321 152v166q0 37 37 37h21q36 0 36 -37v-166q146 -6 265 -82q12 -7 15 -23t-5 -28l-12 -17q-23 -29 -52 -10
q-94 64 -211 70v-811q138 9 242 90q31 25 53 -6zM414 973q-86 -109 -86 -275q0 -165 86 -274q84 -106 233 -127v803q-149 -21 -233 -127z" />
    <glyph glyph-name="sterling" unicode="&#xa3;" 
d="M352 102h678q37 0 37 -36v-29q0 -37 -37 -37h-801q-36 0 -36 35v8q0 28 20 45q112 110 160.5 211.5t48.5 224.5q0 46 -8 82h-185q-36 0 -36 37v19q0 36 36 36h158q-3 5 -13.5 33.5t-13.5 36.5q-63 160 -63 264q0 172 113 279q109 106 290 106q219 0 357 -153
q23 -30 -4 -54l-15 -12q-24 -24 -51 4q-116 125 -274 125q-135 0 -214 -75.5t-79 -204.5q0 -99 59 -256q3 -10 16.5 -46t16.5 -47h412q37 0 37 -36v-19q0 -37 -37 -37h-392q1 -10 3 -31.5t2 -29.5q0 -249 -185 -443z" />
    <glyph glyph-name="currency" unicode="&#xa4;" 
d="M905 494l154 -156q21 -28 0 -49l-17 -17q-24 -24 -49 0l-153 156q-91 -68 -207 -68t-207 68l-154 -156q-24 -24 -49 0l-16 17q-21 21 0 49l153 156q-69 91 -69 204.5t69 204.5l-153 156q-21 28 0 49l16 16q25 24 49 0l154 -155q91 67 207 67t207 -67l153 155q25 24 49 0
l17 -16q21 -21 0 -49l-154 -156q69 -91 69 -204.5t-69 -204.5zM459 520q71 -71 174 -71q105 0 176 71q70 70 70 178q0 109 -70 179q-71 71 -176 71q-103 0 -174 -71q-72 -72 -72 -179q0 -106 72 -178z" />
    <glyph glyph-name="yen" unicode="&#xa5;" 
d="M1067 1397h35q23 0 29.5 -12.5t-5.5 -32.5l-411 -652h309q37 0 37 -36v-21q0 -37 -37 -37h-330v-200h330q37 0 37 -37v-21q0 -37 -37 -37h-330v-274q0 -37 -37 -37h-45q-37 0 -37 37v274h-329q-37 0 -37 37v21q0 37 37 37h329v200h-329q-37 0 -37 37v21q0 36 37 36h307
l-412 652q-12 20 -5 32.5t30 12.5h57q27 0 43 -25l379 -606l379 606q16 25 43 25z" />
    <glyph glyph-name="brokenbar" unicode="&#xa6;" horiz-adv-x="819" 
d="M426 717h-33q-37 0 -37 37v745q0 37 37 37h33q37 0 37 -37v-745q0 -37 -37 -37zM426 -512h-33q-37 0 -37 37v745q0 37 37 37h33q37 0 37 -37v-745q0 -37 -37 -37z" />
    <glyph glyph-name="section" unicode="&#xa7;" horiz-adv-x="1132" 
d="M772 287q170 -77 170 -252q0 -141 -102 -221t-285 -80q-170 0 -317 78q-34 15 -13 49l11 14q18 30 49 12q121 -65 268 -65q276 0 276 205q0 87 -67 134.5t-238 82.5q-220 44 -307.5 112.5t-87.5 196.5q0 226 229 311q-170 80 -170 252q0 141 102 221t285 80
q176 0 318 -80q28 -15 10 -49l-8 -12q-18 -30 -49 -12q-121 65 -268 65q-133 0 -205 -53.5t-72 -151.5q0 -87 69 -135.5t242 -83.5q215 -43 302 -111.5t87 -195.5q0 -226 -229 -311zM240 580q0 -94 65.5 -142.5t241.5 -83.5q37 -5 102 -22q242 46 242 239q0 94 -66.5 142.5
t-244.5 83.5q-66 11 -99 22q-241 -46 -241 -239z" />
    <glyph glyph-name="dieresis" unicode="&#xa8;" horiz-adv-x="1228" 
d="M473 1241q-20 -20 -53 -20t-53 20t-20 53.5t20 53.5t53 20t53 -20t20 -53.5t-20 -53.5zM862 1241q-20 -20 -53 -20t-53 20t-20 53.5t20 53.5t53 20t53 -20t20 -53.5t-20 -53.5z" />
    <glyph glyph-name="copyright" unicode="&#xa9;" horiz-adv-x="1665" 
d="M834 -20q-306 0 -512 206q-207 207 -207 512t207 512t512 207q302 0 509 -207t207 -512t-207 -512q-206 -206 -509 -206zM393 252q176 -176 441 -176q264 0 440 176q172 175 172 446q0 274 -172 449q-176 176 -440 176q-265 0 -441 -176q-174 -174 -174 -449
q0 -272 174 -446zM858 332q-167 0 -269 100t-102 260q0 159 102 259t267 100q112 0 195 -45q28 -16 12 -45l-4 -9q-15 -27 -45 -12q-61 37 -146 37q-121 0 -192.5 -77t-71.5 -208q0 -133 71 -209.5t193 -76.5q86 0 156 43q28 22 45 -9l6 -10q15 -28 -6 -43q-94 -55 -211 -55
z" />
    <glyph glyph-name="ordfeminine" unicode="&#xaa;" horiz-adv-x="731" 
d="M371 1417q247 0 247 -239v-344q0 -33 -32 -33h-29q-33 0 -33 33v88q-59 -134 -221 -134q-94 0 -151.5 50.5t-57.5 132.5q0 88 67.5 138t184.5 50q99 0 170 -26v34q0 172 -162 172q-87 0 -155 -51q-28 -19 -47 6l-7 9q-20 26 7 47q94 67 219 67zM326 860q75 0 126 55.5
t62 147.5q-65 24 -152 24q-157 0 -157 -114q0 -51 33 -82t88 -31z" />
    <glyph glyph-name="guillemotleft" unicode="&#xab;" horiz-adv-x="817" 
d="M305 690h21q20 0 28 -12t0 -31l-67 -170l67 -170q8 -19 0 -31t-28 -12h-21q-27 0 -43 25l-96 164q-15 25 0 49l96 164q15 24 43 24zM582 690h20q20 0 28.5 -12t0.5 -31l-68 -170l68 -170q8 -19 -0.5 -31t-28.5 -12h-20q-27 0 -43 25l-97 164q-15 25 0 49l97 164
q15 24 43 24z" />
    <glyph glyph-name="logicalnot" unicode="&#xac;" 
d="M1022 123h-21q-36 0 -36 37v413h-824q-37 0 -37 37v21q0 37 37 37h881q37 0 37 -37v-471q0 -37 -37 -37z" />
    <glyph glyph-name="uni00AD" unicode="&#xad;" horiz-adv-x="759" 
d="M598 428h-436q-37 0 -37 37v16q0 37 37 37h436q37 0 37 -37v-16q0 -37 -37 -37z" />
    <glyph glyph-name="registered" unicode="&#xae;" horiz-adv-x="1665" 
d="M834 1417q302 0 509 -207t207 -512t-207 -512q-206 -206 -509 -206q-306 0 -512 206q-207 207 -207 512t207 512t512 207zM393 252q176 -176 441 -176q264 0 440 176q172 175 172 446q0 274 -172 449q-176 176 -440 176q-265 0 -441 -176q-174 -174 -174 -449
q0 -272 174 -446zM938 653l184 -266q11 -17 5.5 -28t-25.5 -11h-62q-24 0 -39 21l-190 280h-125v-268q0 -33 -33 -33h-45q-33 0 -33 33v633q0 33 33 33h277q109 0 168 -52t59 -149q0 -172 -174 -193zM854 975h-168v-256h168q141 0 141 127q0 129 -141 129z" />
    <glyph glyph-name="overscore" unicode="&#xaf;" horiz-adv-x="1228" 
d="M842 1245h-455q-35 0 -35 35v29q0 34 35 34h455q35 0 35 -34v-29q0 -35 -35 -35z" />
    <glyph glyph-name="degree" unicode="&#xb0;" 
d="M827 905q-80 -80 -194 -80q-115 0 -195 80q-80 77 -80 193q0 114 80 194q81 78 195 78q113 0 194 -78q80 -80 80 -194q0 -116 -80 -193zM510 971q47 -51 122.5 -51t125.5 51q47 49 47 127t-47 129q-50 49 -125.5 49t-122.5 -49q-50 -51 -50 -129t50 -127z" />
    <glyph glyph-name="plusminus" unicode="&#xb1;" 
d="M680 709h393q37 0 37 -37v-21q0 -37 -37 -37h-393v-331q0 -37 -37 -37h-20q-37 0 -37 37v331h-393q-37 0 -37 37v21q0 37 37 37h393v331q0 37 37 37h20q37 0 37 -37v-331zM193 135h880q37 0 37 -37v-20q0 -37 -37 -37h-880q-37 0 -37 37v20q0 37 37 37z" />
    <glyph glyph-name="uni00B2" unicode="&#xb2;" horiz-adv-x="813" 
d="M655 729h-516q-35 0 -35 33v8q0 24 19 43l305 301q71 68 99 122t28 118q0 81 -48 129.5t-126 48.5q-94 0 -182 -76q-25 -22 -49 2l-7 6q-30 30 -2 52q112 100 258 100q127 0 203 -69t76 -185q0 -78 -37.5 -142.5t-140.5 -162.5l-246 -230h401q35 0 35 -34v-29
q0 -35 -35 -35z" />
    <glyph glyph-name="uni00B3" unicode="&#xb3;" horiz-adv-x="835" 
d="M625 784q-84 -69 -238 -69q-153 0 -254 67q-29 19 -8 49l8 13q18 27 49 8q89 -53 193 -53q211 0 211 174q0 82 -49 126t-140 44h-98q-35 0 -35 35v14q0 35 35 35h84q180 0 180 153q0 152 -180 152q-103 0 -174 -53q-27 -21 -49 4l-8 10q-21 28 6 49q100 74 243 74
q133 0 208 -59.5t75 -165.5q0 -152 -152 -199q179 -44 179 -221q0 -119 -86 -187z" />
    <glyph glyph-name="acute" unicode="&#xb4;" horiz-adv-x="1228" 
d="M471 1155h-20q-17 0 -21.5 12.5t6.5 24.5l209 223q16 19 43 19h74q23 0 28 -15t-14 -28l-258 -220q-22 -16 -47 -16z" />
    <glyph glyph-name="uni00B5" unicode="&#xb5;" horiz-adv-x="1138" 
d="M889 954h37q37 0 37 -36v-881q0 -37 -37 -37h-29q-37 0 -37 37v164q-89 -221 -338 -221q-153 0 -235 88v-506q0 -37 -37 -37h-37q-37 0 -37 37v1356q0 36 37 36h37q37 0 37 -36v-560q0 -139 62 -212.5t181 -73.5q148 0 235 110.5t87 296.5v439q0 36 37 36z" />
    <glyph glyph-name="paragraph" unicode="&#xb6;" horiz-adv-x="1298" 
d="M539 1397h503q37 0 37 -37v-1569q0 -37 -37 -37h-24q-37 0 -37 37v1512h-229v-1512q0 -37 -37 -37h-25q-37 0 -37 37v834h-114q-201 0 -309.5 99.5t-108.5 285.5t108.5 286.5t309.5 100.5z" />
    <glyph glyph-name="middot" unicode="&#xb7;" horiz-adv-x="561" 
d="M342 526q-25 -25 -61.5 -25t-59.5 25q-25 23 -25 59.5t25 61.5q23 23 59.5 23t61.5 -23q23 -25 23 -61.5t-23 -59.5z" />
    <glyph glyph-name="cedilla" unicode="&#xb8;" horiz-adv-x="1228" 
d="M770 -418q-58 -43 -166 -43t-176 39q-29 16 -14 43l6 10q17 27 45 11q64 -31 137 -31q125 0 125 88q0 78 -106 78q-17 0 -37 -4q-24 -9 -45 12l-4 4q-15 15 -3 43l82 188h76l-72 -176q12 2 44 2q78 0 122.5 -38.5t44.5 -104.5q0 -77 -59 -121z" />
    <glyph glyph-name="uni00B9" unicode="&#xb9;" horiz-adv-x="626" 
d="M428 729h-47q-35 0 -35 35v723l-192 -92q-32 -13 -48 16l-6 12q-12 28 19 47l235 129q26 11 43 11h31q35 0 35 -35v-811q0 -35 -35 -35z" />
    <glyph glyph-name="ordmasculine" unicode="&#xba;" horiz-adv-x="798" 
d="M625 874q-86 -86 -226 -86t-223 86q-86 86 -86 230q0 141 85 227t224 86q140 0 225 -86t85 -227q0 -143 -84 -230zM399 860q92 0 145.5 65.5t53.5 178.5q0 110 -53.5 174.5t-145.5 64.5q-91 0 -144.5 -64.5t-53.5 -174.5q0 -112 53.5 -178t144.5 -66z" />
    <glyph glyph-name="guillemotright" unicode="&#xbb;" horiz-adv-x="817" 
d="M236 264h-21q-20 0 -28.5 12t-0.5 31l68 170l-68 170q-8 19 0.5 31t28.5 12h21q28 0 43 -24l96 -164q15 -24 0 -49l-96 -164q-16 -25 -43 -25zM512 264h-20q-20 0 -28.5 12t-0.5 31l67 170l-67 170q-8 19 0.5 31t28.5 12h20q28 0 43 -24l96 -164q15 -24 0 -49l-96 -164
q-16 -25 -43 -25z" />
    <glyph glyph-name="onequarter" unicode="&#xbc;" horiz-adv-x="1744" 
d="M428 524h-47q-35 0 -35 35v723l-192 -92q-32 -13 -48 16l-6 13q-12 28 19 47l235 129q23 10 43 10h31q35 0 35 -35v-811q0 -35 -35 -35zM354 0h-47q-20 0 -26.5 11t4.5 28l819 1335q13 23 41 23h47q20 0 26.5 -11t-4.5 -28l-819 -1335q-13 -23 -41 -23zM1483 0h-47
q-35 0 -35 35v176h-406q-34 0 -34 31v4q0 29 14 43l430 571q15 21 43 21h35q35 0 35 -35v-535h96q35 0 35 -35v-30q0 -35 -35 -35h-96v-176q0 -35 -35 -35zM1401 705l-295 -394h295v394z" />
    <glyph glyph-name="onehalf" unicode="&#xbd;" horiz-adv-x="1685" 
d="M428 524h-47q-35 0 -35 35v723l-192 -92q-32 -13 -48 16l-6 13q-12 28 19 47l235 129q23 10 43 10h31q35 0 35 -35v-811q0 -35 -35 -35zM354 0h-47q-20 0 -26.5 11t4.5 28l819 1335q13 23 41 23h47q20 0 26.5 -11t-4.5 -28l-819 -1335q-13 -23 -41 -23zM1528 0h-516
q-35 0 -35 33v8q0 25 18 43l305 301q71 68 99 122t28 118q0 81 -48 129.5t-126 48.5q-94 0 -182 -76q-25 -22 -49 2l-6 6q-30 30 -2 51q113 101 258 101q127 0 202.5 -69t75.5 -185q0 -78 -37.5 -142.5t-140.5 -162.5l-246 -230h402q35 0 35 -35v-28q0 -35 -35 -35z" />
    <glyph glyph-name="threequarters" unicode="&#xbe;" horiz-adv-x="1953" 
d="M625 580q-85 -70 -238 -70q-151 0 -254 68q-29 19 -8 49l8 12q18 27 49 8q89 -53 193 -53q211 0 211 174q0 82 -49 126t-140 44h-98q-35 0 -35 35v14q0 35 35 35h84q180 0 180 154q0 151 -180 151q-103 0 -174 -53q-27 -21 -49 4l-8 10q-21 28 6 49q100 74 243 74
q133 0 208 -59.5t75 -165.5q0 -152 -152 -199q179 -44 179 -221q0 -118 -86 -186zM563 0h-47q-20 0 -26.5 11t4.5 28l819 1335q13 23 41 23h47q20 0 26.5 -11t-4.5 -28l-819 -1335q-13 -23 -41 -23zM1692 0h-47q-35 0 -35 35v176h-406q-35 0 -35 31v4q0 28 15 43l430 571
q15 21 43 21h35q34 0 34 -35v-535h97q35 0 35 -35v-30q0 -35 -35 -35h-97v-176q0 -35 -34 -35zM1610 705l-295 -394h295v394z" />
    <glyph glyph-name="questiondown" unicode="&#xbf;" horiz-adv-x="841" 
d="M479 954q23 23 59.5 23t61.5 -23q23 -25 23 -61t-23 -59q-25 -25 -61.5 -25t-59.5 25q-25 23 -25 59t25 61zM551 551l6 2q33 12 45 -25q25 -73 25 -149q0 -109 -52.5 -180.5t-179.5 -137.5q-106 -55 -147 -105t-41 -122q0 -97 66.5 -150t187.5 -53q127 0 231 58
q35 18 49 -15l11 -18q18 -34 -15 -51q-123 -66 -284 -66q-177 0 -272 81t-95 230q0 106 54.5 176t187.5 136q117 57 163 110.5t46 133.5q0 24 -13 100q-6 34 27 45z" />
    <glyph glyph-name="Agrave" unicode="&#xc0;" horiz-adv-x="1433" 
d="M778 1587h-20q-23 0 -47 17l-258 219q-18 17 -14 30t28 13h74q27 0 43 -19l209 -223q11 -12 6.5 -24.5t-21.5 -12.5zM172 0h-33q-20 0 -28 12t0 31l551 1341q13 29 43 29h24q30 0 43 -29l551 -1341q8 -19 -0.5 -31t-28.5 -12h-51q-30 0 -43 29l-139 340h-707l-139 -340
q-13 -29 -43 -29zM707 1233l-314 -766h627z" />
    <glyph glyph-name="Aacute" unicode="&#xc1;" horiz-adv-x="1433" 
d="M676 1587h-21q-17 0 -21 12.5t7 24.5l209 223q16 19 43 19h74q24 0 28 -13t-14 -30l-258 -219q-24 -17 -47 -17zM172 0h-33q-20 0 -28 12t0 31l551 1341q13 29 43 29h24q30 0 43 -29l551 -1341q8 -19 -0.5 -31t-28.5 -12h-51q-30 0 -43 29l-139 340h-707l-139 -340
q-13 -29 -43 -29zM707 1233l-314 -766h627z" />
    <glyph glyph-name="Acircumflex" unicode="&#xc2;" horiz-adv-x="1433" 
d="M498 1587h-21q-17 0 -20.5 12.5t8.5 26.5l180 219q15 21 43 21h57q28 0 43 -21l181 -219q12 -14 8 -26.5t-21 -12.5h-20q-26 0 -43 17l-176 163l-176 -163q-17 -17 -43 -17zM172 0h-33q-20 0 -28 12t0 31l551 1341q13 29 43 29h24q30 0 43 -29l551 -1341q8 -19 -0.5 -31
t-28.5 -12h-51q-30 0 -43 29l-139 340h-707l-139 -340q-13 -29 -43 -29zM707 1233l-314 -766h627z" />
    <glyph glyph-name="Atilde" unicode="&#xc3;" horiz-adv-x="1433" 
d="M492 1630h-19q-36 0 -27 39q19 72 63 114t101 42q65 0 138 -58q50 -41 83 -41q55 0 76 68q9 31 35 31h19q35 0 26 -39q-19 -72 -63 -114t-101 -42q-73 0 -137 58q-50 41 -84 41q-55 0 -76 -68q-9 -31 -34 -31zM172 0h-33q-20 0 -28 12t0 31l551 1341q13 29 43 29h24
q30 0 43 -29l551 -1341q8 -19 -0.5 -31t-28.5 -12h-51q-30 0 -43 29l-139 340h-707l-139 -340q-13 -29 -43 -29zM707 1233l-314 -766h627z" />
    <glyph glyph-name="Adieresis" unicode="&#xc4;" horiz-adv-x="1433" 
d="M575 1673q-20 -20 -53 -20t-53 20t-20 53.5t20 53.5t53 20t53 -20t20 -53.5t-20 -53.5zM965 1673q-20 -20 -53.5 -20t-53.5 20t-20 53.5t20 53.5t53.5 20t53.5 -20t20 -53.5t-20 -53.5zM172 0h-33q-20 0 -28 12t0 31l551 1341q13 29 43 29h24q30 0 43 -29l551 -1341
q8 -19 -0.5 -31t-28.5 -12h-51q-30 0 -43 29l-139 340h-707l-139 -340q-13 -29 -43 -29zM707 1233l-314 -766h627z" />
    <glyph glyph-name="Aring" unicode="&#xc5;" horiz-adv-x="1433" 
d="M717 1542q-80 0 -135.5 54.5t-55.5 132.5t55.5 132t135.5 54q81 0 135.5 -54t54.5 -132q0 -79 -54.5 -133t-135.5 -54zM643 1653q29 -31 74.5 -31t73.5 31q28 29 28 75.5t-28 77.5q-28 29 -73.5 29t-74.5 -29q-29 -31 -29 -77.5t29 -75.5zM172 0h-33q-20 0 -28 12t0 31
l551 1341q13 29 43 29h24q30 0 43 -29l551 -1341q8 -19 -0.5 -31t-28.5 -12h-51q-30 0 -43 29l-139 340h-707l-139 -340q-13 -29 -43 -29zM707 1233l-314 -766h627z" />
    <glyph glyph-name="AE" unicode="&#xc6;" horiz-adv-x="2029" 
d="M1898 1360v-21q0 -36 -36 -36h-754v-531h643q37 0 37 -37v-20q0 -37 -37 -37h-643v-584h754q36 0 36 -37v-20q0 -37 -36 -37h-836q-37 0 -37 37v332h-555l-217 -344q-16 -25 -43 -25h-39q-23 0 -29.5 12.5t5.5 32.5l835 1327q12 25 45 25h871q36 0 36 -37zM989 1249
l-491 -782h491v782z" />
    <glyph glyph-name="Ccedilla" unicode="&#xc7;" horiz-adv-x="1421" 
d="M1288 186l15 -20q21 -30 -7 -49q-192 -137 -440 -137h-2l-55 -136q12 2 43 2q78 0 123 -38.5t45 -104.5q0 -78 -60 -121t-166 -43q-108 0 -176 39q-29 16 -14 43l6 10q17 27 45 11q64 -31 137 -31q125 0 125 88q0 78 -106 78q-17 0 -37 -4q-24 -9 -45 12l-4 4
q-15 15 -2 43l65 152q-285 24 -461 221q-178 196 -178 493q0 318 201 519q200 200 518 200q234 0 418 -123q29 -17 8 -51l-14 -20q-21 -27 -51 -6q-153 106 -355 106q-266 0 -432 -172q-166 -175 -166 -453t166 -450q162 -174 428 -174q209 0 377 121q29 23 51 -9z" />
    <glyph glyph-name="Egrave" unicode="&#xc8;" horiz-adv-x="1282" 
d="M748 1587h-21q-23 0 -47 17l-258 219q-18 17 -14 30t28 13h74q27 0 43 -19l209 -223q11 -12 7 -24.5t-21 -12.5zM1114 0h-856q-37 0 -37 37v1323q0 37 37 37h856q37 0 37 -37v-21q0 -36 -37 -36h-774v-531h664q36 0 36 -37v-20q0 -37 -36 -37h-664v-584h774q37 0 37 -37
v-20q0 -37 -37 -37z" />
    <glyph glyph-name="Eacute" unicode="&#xc9;" horiz-adv-x="1282" 
d="M645 1587h-20q-17 0 -21.5 12.5t6.5 24.5l209 223q16 19 43 19h74q24 0 28 -13t-14 -30l-258 -219q-24 -17 -47 -17zM1114 0h-856q-37 0 -37 37v1323q0 37 37 37h856q37 0 37 -37v-21q0 -36 -37 -36h-774v-531h664q36 0 36 -37v-20q0 -37 -36 -37h-664v-584h774
q37 0 37 -37v-20q0 -37 -37 -37z" />
    <glyph glyph-name="Ecircumflex" unicode="&#xca;" horiz-adv-x="1282" 
d="M467 1587h-21q-17 0 -20.5 12.5t8.5 26.5l180 219q15 21 43 21h58q28 0 43 -21l180 -219q12 -14 8.5 -26.5t-20.5 -12.5h-21q-26 0 -43 17l-176 163l-176 -163q-17 -17 -43 -17zM1114 0h-856q-37 0 -37 37v1323q0 37 37 37h856q37 0 37 -37v-21q0 -36 -37 -36h-774v-531
h664q36 0 36 -37v-20q0 -37 -36 -37h-664v-584h774q37 0 37 -37v-20q0 -37 -37 -37z" />
    <glyph glyph-name="Edieresis" unicode="&#xcb;" horiz-adv-x="1282" 
d="M545 1673q-20 -20 -53.5 -20t-53.5 20t-20 53.5t20 53.5t53.5 20t53.5 -20t20 -53.5t-20 -53.5zM934 1673q-20 -20 -53.5 -20t-53.5 20t-20 53.5t20 53.5t53.5 20t53.5 -20t20 -53.5t-20 -53.5zM1114 0h-856q-37 0 -37 37v1323q0 37 37 37h856q37 0 37 -37v-21
q0 -36 -37 -36h-774v-531h664q36 0 36 -37v-20q0 -37 -36 -37h-664v-584h774q37 0 37 -37v-20q0 -37 -37 -37z" />
    <glyph glyph-name="Igrave" unicode="&#xcc;" horiz-adv-x="561" 
d="M342 1587h-23q-27 0 -43 19l-208 217q-17 17 -11.5 30t29.5 13h68q27 0 43 -23l157 -219q11 -14 8 -25.5t-20 -11.5zM303 0h-45q-37 0 -37 37v1323q0 37 37 37h45q37 0 37 -37v-1323q0 -37 -37 -37z" />
    <glyph glyph-name="Iacute" unicode="&#xcd;" horiz-adv-x="561" 
d="M242 1589h-23q-35 0 -12 37l158 219q16 23 43 23h67q24 0 30 -13t-11 -30l-209 -217q-16 -19 -43 -19zM303 0h-45q-37 0 -37 37v1323q0 37 37 37h45q37 0 37 -37v-1323q0 -37 -37 -37z" />
    <glyph glyph-name="Icircumflex" unicode="&#xce;" horiz-adv-x="561" 
d="M96 1587h-18q-13 0 -18 10.5t3 24.5l152 221q16 23 41 23h49q25 0 41 -23l152 -221q8 -14 3 -24.5t-18 -10.5h-18q-22 0 -41 19l-143 157l-144 -157q-19 -19 -41 -19zM303 0h-45q-37 0 -37 37v1323q0 37 37 37h45q37 0 37 -37v-1323q0 -37 -37 -37z" />
    <glyph glyph-name="Idieresis" unicode="&#xcf;" horiz-adv-x="561" 
d="M180 1673q-20 -20 -53 -20t-53 20t-20 53.5t20 53.5t53 20t53 -20t20 -53.5t-20 -53.5zM487 1673q-20 -20 -53 -20t-53 20t-20 53.5t20 53.5t53 20t53 -20t20 -53.5t-20 -53.5zM303 0h-45q-37 0 -37 37v1323q0 37 37 37h45q37 0 37 -37v-1323q0 -37 -37 -37z" />
    <glyph glyph-name="Eth" unicode="&#xd0;" horiz-adv-x="1595" 
d="M258 1397h485q331 0 521 -187t190 -512q0 -323 -190 -510q-191 -188 -521 -188h-485q-37 0 -37 37v616h-186q-35 0 -35 35v21q0 34 35 34h186v617q0 37 37 37zM340 94h385q287 0 444.5 157.5t157.5 446.5t-157.5 447t-444.5 158h-385v-560h448q35 0 35 -34v-21
q0 -35 -35 -35h-448v-559z" />
    <glyph glyph-name="Ntilde" unicode="&#xd1;" horiz-adv-x="1630" 
d="M590 1630h-19q-35 0 -26 39q19 72 63 114t101 42q64 0 137 -58q50 -41 84 -41q55 0 76 68q9 31 34 31h19q35 0 26 -39q-19 -72 -62.5 -114t-100.5 -42q-74 0 -138 58q-50 41 -84 41q-54 0 -75 -68q-9 -31 -35 -31zM287 0h-29q-37 0 -37 37v1335q0 37 37 37h18
q29 0 46 -20l985 -1180v1151q0 37 36 37h29q37 0 37 -37v-1335q0 -37 -35 -37h-8q-28 0 -45 20l-997 1194v-1165q0 -37 -37 -37z" />
    <glyph glyph-name="Ograve" unicode="&#xd2;" horiz-adv-x="1716" 
d="M920 1587h-21q-23 0 -47 17l-258 219q-18 17 -14 30t28 13h74q27 0 43 -19l209 -223q11 -12 7 -24.5t-21 -12.5zM1376 182q-202 -202 -518 -202q-317 0 -516 202q-203 200 -203 516t203 519q200 200 516 200q318 0 518 -200q201 -201 201 -519q0 -315 -201 -516zM432 248
q162 -174 426 -174q263 0 428 174q164 173 164 450t-164 453q-166 172 -428 172q-263 0 -426 -172q-166 -175 -166 -453t166 -450z" />
    <glyph glyph-name="Oacute" unicode="&#xd3;" horiz-adv-x="1716" 
d="M817 1587h-20q-17 0 -21.5 12.5t6.5 24.5l209 223q16 19 43 19h74q24 0 28 -13t-14 -30l-258 -219q-24 -17 -47 -17zM1376 182q-202 -202 -518 -202q-317 0 -516 202q-203 200 -203 516t203 519q200 200 516 200q318 0 518 -200q201 -201 201 -519q0 -315 -201 -516z
M432 248q162 -174 426 -174q263 0 428 174q164 173 164 450t-164 453q-166 172 -428 172q-263 0 -426 -172q-166 -175 -166 -453t166 -450z" />
    <glyph glyph-name="Ocircumflex" unicode="&#xd4;" horiz-adv-x="1716" 
d="M639 1587h-21q-17 0 -20.5 12.5t8.5 26.5l180 219q15 21 43 21h58q28 0 43 -21l180 -219q12 -14 8.5 -26.5t-20.5 -12.5h-21q-26 0 -43 17l-176 163l-176 -163q-17 -17 -43 -17zM1376 182q-202 -202 -518 -202q-317 0 -516 202q-203 200 -203 516t203 519
q200 200 516 200q318 0 518 -200q201 -201 201 -519q0 -315 -201 -516zM432 248q162 -174 426 -174q263 0 428 174q164 173 164 450t-164 453q-166 172 -428 172q-263 0 -426 -172q-166 -175 -166 -453t166 -450z" />
    <glyph glyph-name="Otilde" unicode="&#xd5;" horiz-adv-x="1716" 
d="M633 1630h-19q-35 0 -26 39q19 72 63 114t101 42q64 0 137 -58q50 -41 84 -41q55 0 76 68q9 31 34 31h19q35 0 26 -39q-19 -72 -62.5 -114t-100.5 -42q-74 0 -138 58q-50 41 -84 41q-54 0 -75 -68q-9 -31 -35 -31zM1376 182q-202 -202 -518 -202q-317 0 -516 202
q-203 200 -203 516t203 519q200 200 516 200q318 0 518 -200q201 -201 201 -519q0 -315 -201 -516zM432 248q162 -174 426 -174q263 0 428 174q164 173 164 450t-164 453q-166 172 -428 172q-263 0 -426 -172q-166 -175 -166 -453t166 -450z" />
    <glyph glyph-name="Odieresis" unicode="&#xd6;" horiz-adv-x="1716" 
d="M717 1673q-20 -20 -53.5 -20t-53.5 20t-20 53.5t20 53.5t53.5 20t53.5 -20t20 -53.5t-20 -53.5zM1106 1673q-20 -20 -53.5 -20t-53.5 20t-20 53.5t20 53.5t53.5 20t53.5 -20t20 -53.5t-20 -53.5zM1376 182q-202 -202 -518 -202q-317 0 -516 202q-203 200 -203 516
t203 519q200 200 516 200q318 0 518 -200q201 -201 201 -519q0 -315 -201 -516zM432 248q162 -174 426 -174q263 0 428 174q164 173 164 450t-164 453q-166 172 -428 172q-263 0 -426 -172q-166 -175 -166 -453t166 -450z" />
    <glyph glyph-name="multiply" unicode="&#xd7;" 
d="M1047 887l-349 -348l349 -349q27 -26 0 -53l-13 -12q-26 -27 -53 0l-348 348l-348 -348q-27 -27 -54 0l-12 12q-27 27 0 53l348 349l-348 348q-27 27 0 53l12 12q27 27 54 0l348 -348l348 348q27 26 53 0l13 -12q27 -26 0 -53z" />
    <glyph glyph-name="Oslash" unicode="&#xd8;" horiz-adv-x="1716" 
d="M1536 1354l-145 -154q186 -198 186 -502q0 -315 -201 -516q-202 -202 -518 -202q-273 0 -465 155l-108 -117q-18 -18 -41 -18h-45q-20 0 -26.5 15t7.5 28l146 156q-187 196 -187 499q0 316 203 519q200 200 516 200q278 0 465 -153l109 114q19 19 41 19h45q20 0 26 -14.5
t-8 -28.5zM266 698q0 -248 135 -417l848 903q-157 139 -391 139q-263 0 -426 -172q-166 -175 -166 -453zM858 74q263 0 428 174q164 173 164 450q0 248 -135 418l-848 -903q157 -139 391 -139z" />
    <glyph glyph-name="Ugrave" unicode="&#xd9;" horiz-adv-x="1542" 
d="M834 1587h-21q-23 0 -47 17l-258 219q-18 17 -14 30t28 13h74q27 0 43 -19l209 -223q11 -12 7 -24.5t-21 -12.5zM778 -20q-317 0 -448 143q-133 145 -133 407v830q0 37 36 37h46q36 0 36 -37v-809q0 -243 109 -358t362 -115q247 0 353 114.5t106 358.5v809q0 37 37 37h27
q37 0 37 -37v-830q0 -277 -134.5 -413.5t-433.5 -136.5z" />
    <glyph glyph-name="Uacute" unicode="&#xda;" horiz-adv-x="1542" 
d="M731 1587h-20q-17 0 -21.5 12.5t6.5 24.5l209 223q16 19 43 19h74q24 0 28 -13t-14 -30l-258 -219q-24 -17 -47 -17zM778 -20q-317 0 -448 143q-133 145 -133 407v830q0 37 36 37h46q36 0 36 -37v-809q0 -243 109 -358t362 -115q247 0 353 114.5t106 358.5v809
q0 37 37 37h27q37 0 37 -37v-830q0 -277 -134.5 -413.5t-433.5 -136.5z" />
    <glyph glyph-name="Ucircumflex" unicode="&#xdb;" horiz-adv-x="1542" 
d="M553 1587h-21q-17 0 -20.5 12.5t8.5 26.5l180 219q15 21 43 21h58q28 0 43 -21l180 -219q12 -14 8.5 -26.5t-20.5 -12.5h-21q-26 0 -43 17l-176 163l-176 -163q-17 -17 -43 -17zM778 -20q-317 0 -448 143q-133 145 -133 407v830q0 37 36 37h46q36 0 36 -37v-809
q0 -243 109 -358t362 -115q247 0 353 114.5t106 358.5v809q0 37 37 37h27q37 0 37 -37v-830q0 -277 -134.5 -413.5t-433.5 -136.5z" />
    <glyph glyph-name="Udieresis" unicode="&#xdc;" horiz-adv-x="1542" 
d="M631 1673q-20 -20 -53.5 -20t-53.5 20t-20 53.5t20 53.5t53.5 20t53.5 -20t20 -53.5t-20 -53.5zM1020 1673q-20 -20 -53.5 -20t-53.5 20t-20 53.5t20 53.5t53.5 20t53.5 -20t20 -53.5t-20 -53.5zM778 -20q-317 0 -448 143q-133 145 -133 407v830q0 37 36 37h46
q36 0 36 -37v-809q0 -243 109 -358t362 -115q247 0 353 114.5t106 358.5v809q0 37 37 37h27q37 0 37 -37v-830q0 -277 -134.5 -413.5t-433.5 -136.5z" />
    <glyph glyph-name="Yacute" unicode="&#xdd;" horiz-adv-x="1316" 
d="M618 1587h-20q-17 0 -21 12.5t7 24.5l209 223q16 19 43 19h73q24 0 28.5 -13t-13.5 -30l-258 -219q-24 -17 -48 -17zM682 0h-45q-37 0 -37 37v565l-485 750q-12 20 -5.5 32.5t29.5 12.5h60q33 0 45 -25l424 -663l426 663q16 25 45 25h39q23 0 29.5 -12.5t-5.5 -32.5
l-483 -748v-567q0 -37 -37 -37z" />
    <glyph glyph-name="Thorn" unicode="&#xde;" horiz-adv-x="1368" 
d="M303 0h-45q-37 0 -37 37v1323q0 37 37 37h45q37 0 37 -37v-189h475q207 0 318.5 -102t111.5 -291t-111.5 -291t-318.5 -102h-475v-348q0 -37 -37 -37zM340 1077v-598h455q325 0 325 299t-325 299h-455z" />
    <glyph glyph-name="germandbls" unicode="&#xdf;" horiz-adv-x="1187" 
d="M752 -20q-184 0 -330 98q-27 21 -6 51l8 12q21 27 51 6q115 -81 264 -81q121 0 187.5 49t66.5 137q0 72 -46.5 110.5t-174.5 73.5q-153 43 -220 108t-67 171q0 75 36 133.5t124 124.5q82 62 112.5 109.5t30.5 113.5q0 97 -62 153t-171 56q-127 0 -197.5 -76t-70.5 -213
v-1079q0 -37 -37 -37h-37q-37 0 -37 37v1073q0 185 97 283t280 98q161 0 251.5 -79.5t90.5 -219.5q0 -85 -36 -143.5t-128 -126.5q-76 -58 -105.5 -101t-29.5 -98q0 -66 44 -103.5t163 -72.5q170 -51 235.5 -111t65.5 -166q0 -133 -95.5 -211.5t-256.5 -78.5z" />
    <glyph glyph-name="agrave" unicode="&#xe0;" horiz-adv-x="1060" 
d="M510 1171l-258 220q-19 13 -14 28t28 15h74q27 0 43 -19l209 -223q11 -12 7 -24.5t-21 -12.5h-21q-25 0 -47 16zM526 975q183 0 279 -95.5t96 -275.5v-567q0 -37 -37 -37h-28q-37 0 -37 37v176q-94 -233 -367 -233q-146 0 -236 76.5t-90 201.5q0 137 107 216t293 79
q158 0 285 -47v88q0 291 -271 291q-157 0 -276 -94q-29 -22 -51 6l-11 14q-21 30 6 51q143 113 338 113zM451 66q141 0 232.5 96t104.5 260q-128 45 -264 45q-299 0 -299 -205q0 -90 61.5 -143t164.5 -53z" />
    <glyph glyph-name="aacute" unicode="&#xe1;" horiz-adv-x="1060" 
d="M475 1155h-20q-17 0 -21.5 12.5t6.5 24.5l209 223q16 19 43 19h74q23 0 28 -15t-14 -28l-258 -220q-22 -16 -47 -16zM526 975q183 0 279 -95.5t96 -275.5v-567q0 -37 -37 -37h-28q-37 0 -37 37v176q-94 -233 -367 -233q-146 0 -236 76.5t-90 201.5q0 137 107 216t293 79
q158 0 285 -47v88q0 291 -271 291q-157 0 -276 -94q-29 -22 -51 6l-11 14q-21 30 6 51q143 113 338 113zM451 66q141 0 232.5 96t104.5 260q-128 45 -264 45q-299 0 -299 -205q0 -90 61.5 -143t164.5 -53z" />
    <glyph glyph-name="acircumflex" unicode="&#xe2;" horiz-adv-x="1060" 
d="M297 1155h-21q-17 0 -20.5 12.5t8.5 26.5l180 219q15 21 43 21h58q28 0 43 -21l180 -219q12 -14 8.5 -26.5t-20.5 -12.5h-21q-27 0 -43 16l-176 164l-176 -164q-16 -16 -43 -16zM526 975q183 0 279 -95.5t96 -275.5v-567q0 -37 -37 -37h-28q-37 0 -37 37v176
q-94 -233 -367 -233q-146 0 -236 76.5t-90 201.5q0 137 107 216t293 79q158 0 285 -47v88q0 291 -271 291q-157 0 -276 -94q-29 -22 -51 6l-11 14q-21 30 6 51q143 113 338 113zM451 66q141 0 232.5 96t104.5 260q-128 45 -264 45q-299 0 -299 -205q0 -90 61.5 -143
t164.5 -53z" />
    <glyph glyph-name="atilde" unicode="&#xe3;" horiz-adv-x="1060" 
d="M291 1198h-19q-35 0 -26 39q19 72 63 114t101 42q64 0 137 -58q50 -41 84 -41q55 0 76 68q9 31 34 31h19q35 0 26 -39q-19 -72 -62.5 -114t-100.5 -42q-75 0 -138 57q-50 41 -84 41q-54 0 -75 -67q-9 -31 -35 -31zM526 975q183 0 279 -95.5t96 -275.5v-567q0 -37 -37 -37
h-28q-37 0 -37 37v176q-94 -233 -367 -233q-146 0 -236 76.5t-90 201.5q0 137 107 216t293 79q158 0 285 -47v88q0 291 -271 291q-157 0 -276 -94q-29 -22 -51 6l-11 14q-21 30 6 51q143 113 338 113zM451 66q141 0 232.5 96t104.5 260q-128 45 -264 45q-299 0 -299 -205
q0 -90 61.5 -143t164.5 -53z" />
    <glyph glyph-name="adieresis" unicode="&#xe4;" horiz-adv-x="1060" 
d="M375 1241q-20 -20 -53.5 -20t-53.5 20t-20 53.5t20 53.5t53.5 20t53.5 -20t20 -53.5t-20 -53.5zM764 1241q-20 -20 -53.5 -20t-53.5 20t-20 53.5t20 53.5t53.5 20t53.5 -20t20 -53.5t-20 -53.5zM526 975q183 0 279 -95.5t96 -275.5v-567q0 -37 -37 -37h-28q-37 0 -37 37
v176q-94 -233 -367 -233q-146 0 -236 76.5t-90 201.5q0 137 107 216t293 79q158 0 285 -47v88q0 291 -271 291q-157 0 -276 -94q-29 -22 -51 6l-11 14q-21 30 6 51q143 113 338 113zM451 66q141 0 232.5 96t104.5 260q-128 45 -264 45q-299 0 -299 -205q0 -90 61.5 -143
t164.5 -53z" />
    <glyph glyph-name="aring" unicode="&#xe5;" horiz-adv-x="1060" 
d="M516 1110q-80 0 -135 54t-55 132t55.5 132.5t134.5 54.5q81 0 136 -54.5t55 -132.5t-55 -132t-136 -54zM590 1374q-28 29 -73.5 29t-74.5 -29q-29 -31 -29 -77.5t29 -75.5q29 -31 74.5 -31t73.5 31q28 29 28 75.5t-28 77.5zM526 975q183 0 279 -95.5t96 -275.5v-567
q0 -37 -37 -37h-28q-37 0 -37 37v176q-94 -233 -367 -233q-146 0 -236 76.5t-90 201.5q0 137 107 216t293 79q158 0 285 -47v88q0 291 -271 291q-157 0 -276 -94q-29 -22 -51 6l-11 14q-21 30 6 51q143 113 338 113zM451 66q141 0 232.5 96t104.5 260q-128 45 -264 45
q-299 0 -299 -205q0 -90 61.5 -143t164.5 -53z" />
    <glyph glyph-name="ae" unicode="&#xe6;" horiz-adv-x="1814" 
d="M1268 975q202 0 321 -124t119 -335v-27q0 -34 -39 -34h-764q7 -187 115.5 -288t279.5 -101q183 0 314 122q30 27 53 -2l10 -12q23 -29 -4 -53q-159 -141 -385 -141q-162 0 -276.5 69t-169.5 195q-50 -125 -155.5 -194.5t-244.5 -69.5q-154 0 -245 75.5t-91 202.5
q0 137 107 216t293 79q158 0 285 -47v88q0 291 -271 291q-151 0 -276 -94q-30 -24 -51 6l-11 14q-21 30 6 51q143 113 338 113q278 0 342 -225q120 225 400 225zM909 541h684q-7 172 -95.5 260t-229.5 88t-241 -92.5t-118 -255.5zM451 66q142 0 232.5 96.5t104.5 261.5
q-125 43 -264 43q-299 0 -299 -205q0 -90 61.5 -143t164.5 -53z" />
    <glyph glyph-name="ccedilla" unicode="&#xe7;" horiz-adv-x="1026" 
d="M924 152l10 -13q22 -31 -4 -51q-138 -102 -314 -108l-55 -136q12 2 43 2q78 0 123 -38.5t45 -104.5q0 -78 -59.5 -121t-165.5 -43q-108 0 -176 39q-30 17 -15 43l6 10q17 27 46 11q64 -31 137 -31q125 0 125 88q0 78 -107 78q-17 0 -37 -4q-24 -9 -45 12l-4 4
q-15 15 -2 43l66 150q-195 18 -312 153q-118 133 -118 342q0 223 135 361q131 137 350 137q170 0 295 -82q28 -22 10 -51l-8 -13q-18 -30 -51 -10q-110 70 -236 70q-173 0 -275 -111.5t-102 -300.5t102 -300t275 -111q148 0 266 92q29 23 52 -6z" />
    <glyph glyph-name="egrave" unicode="&#xe8;" horiz-adv-x="1138" 
d="M643 1155h-20q-26 0 -48 16l-258 220q-19 13 -13.5 28t28.5 15h74q27 0 43 -19l208 -223q11 -12 7 -24.5t-21 -12.5zM997 121q-156 -141 -385 -141t-364 135q-137 134 -137 362q0 222 133 361q131 137 348 137q202 0 321 -124t119 -335q0 -19 -2 -27q-6 -34 -37 -34h-764
q6 -180 112.5 -284.5t283.5 -104.5q179 0 313 122q28 28 51 -2l12 -14q23 -30 -4 -51zM233 541h685q-6 164 -92 256t-234 92q-147 0 -244.5 -94.5t-114.5 -253.5z" />
    <glyph glyph-name="eacute" unicode="&#xe9;" horiz-adv-x="1138" 
d="M541 1155h-21q-17 0 -21 12.5t7 24.5l209 223q16 19 43 19h73q23 0 28.5 -15t-13.5 -28l-258 -220q-22 -16 -47 -16zM997 121q-156 -141 -385 -141t-364 135q-137 134 -137 362q0 222 133 361q131 137 348 137q202 0 321 -124t119 -335q0 -19 -2 -27q-6 -34 -37 -34h-764
q6 -180 112.5 -284.5t283.5 -104.5q179 0 313 122q28 28 51 -2l12 -14q23 -30 -4 -51zM233 541h685q-6 164 -92 256t-234 92q-147 0 -244.5 -94.5t-114.5 -253.5z" />
    <glyph glyph-name="ecircumflex" unicode="&#xea;" horiz-adv-x="1138" 
d="M362 1155h-20q-17 0 -20.5 12.5t8.5 26.5l180 219q15 21 43 21h57q28 0 43 -21l181 -219q12 -14 8 -26.5t-21 -12.5h-20q-27 0 -43 16l-176 164l-176 -164q-16 -16 -44 -16zM997 121q-156 -141 -385 -141t-364 135q-137 134 -137 362q0 222 133 361q131 137 348 137
q202 0 321 -124t119 -335q0 -19 -2 -27q-6 -34 -37 -34h-764q6 -180 112.5 -284.5t283.5 -104.5q179 0 313 122q28 28 51 -2l12 -14q23 -30 -4 -51zM233 541h685q-6 164 -92 256t-234 92q-147 0 -244.5 -94.5t-114.5 -253.5z" />
    <glyph glyph-name="edieresis" unicode="&#xeb;" horiz-adv-x="1138" 
d="M440 1241q-20 -20 -53 -20t-53 20t-20 53.5t20 53.5t53 20t53 -20t20 -53.5t-20 -53.5zM829 1241q-20 -20 -53 -20t-53 20t-20 53.5t20 53.5t53 20t53 -20t20 -53.5t-20 -53.5zM997 121q-156 -141 -385 -141t-364 135q-137 134 -137 362q0 222 133 361q131 137 348 137
q202 0 321 -124t119 -335q0 -19 -2 -27q-6 -34 -37 -34h-764q6 -180 112.5 -284.5t283.5 -104.5q179 0 313 122q28 28 51 -2l12 -14q23 -30 -4 -51zM233 541h685q-6 164 -92 256t-234 92q-147 0 -244.5 -94.5t-114.5 -253.5z" />
    <glyph glyph-name="igrave" unicode="&#xec;" horiz-adv-x="462" 
d="M293 1155h-23q-27 0 -43 19l-209 217q-17 17 -11 30t30 13h67q27 0 43 -23l158 -219q23 -37 -12 -37zM250 0h-37q-37 0 -37 37v881q0 36 37 36h37q37 0 37 -36v-881q0 -37 -37 -37z" />
    <glyph glyph-name="iacute" unicode="&#xed;" horiz-adv-x="462" 
d="M193 1157h-23q-17 0 -20 11.5t8 25.5l157 219q16 23 43 23h68q24 0 29.5 -13t-11.5 -30l-208 -217q-16 -19 -43 -19zM250 0h-37q-37 0 -37 37v881q0 36 37 36h37q37 0 37 -36v-881q0 -37 -37 -37z" />
    <glyph glyph-name="icircumflex" unicode="&#xee;" horiz-adv-x="462" 
d="M47 1155h-18q-13 0 -18 10.5t3 24.5l152 221q16 23 41 23h49q25 0 41 -23l152 -221q8 -14 3 -24.5t-18 -10.5h-18q-22 0 -41 19l-144 157l-143 -157q-19 -19 -41 -19zM250 0h-37q-37 0 -37 37v881q0 36 37 36h37q37 0 37 -36v-881q0 -37 -37 -37z" />
    <glyph glyph-name="idieresis" unicode="&#xef;" horiz-adv-x="462" 
d="M131 1241q-20 -20 -53 -20t-53 20t-20 53.5t20 53.5t53 20t53 -20t20 -53.5t-20 -53.5zM438 1241q-20 -20 -53 -20t-53 20t-20 53.5t20 53.5t53 20t53 -20t20 -53.5t-20 -53.5zM250 0h-37q-37 0 -37 37v881q0 36 37 36h37q37 0 37 -36v-881q0 -37 -37 -37z" />
    <glyph glyph-name="eth" unicode="&#xf0;" horiz-adv-x="1200" 
d="M1001 1354l-135 -78q203 -221 203 -635q0 -325 -126.5 -493t-352.5 -168q-213 0 -346 139t-133 358q0 218 127 348q126 129 333 129q265 0 379 -221q-21 316 -176 488l-213 -123q-33 -20 -51 14l-6 10q-19 32 14 52l189 108q-139 109 -353 121q-41 3 -35 39l3 14
q6 38 38 35q264 -12 441 -154l157 93q34 20 52 -15l6 -10q18 -31 -15 -51zM590 66q150 0 250 112q101 113 98 289q-5 184 -100 292.5t-254 108.5t-257 -108.5t-98 -282.5q0 -184 101 -297q99 -114 260 -114z" />
    <glyph glyph-name="ntilde" unicode="&#xf1;" horiz-adv-x="1122" 
d="M336 1198h-19q-35 0 -26 39q19 72 63 114t101 42q64 0 137 -58q50 -41 84 -41q55 0 76 68q9 31 34 31h19q35 0 26 -39q-19 -72 -62.5 -114t-100.5 -42q-75 0 -138 57q-50 41 -84 41q-54 0 -75 -67q-9 -31 -35 -31zM627 975q159 0 247.5 -96.5t88.5 -270.5v-571
q0 -37 -37 -37h-37q-37 0 -37 37v559q0 139 -62.5 213t-181.5 74q-147 0 -234 -111t-87 -297v-438q0 -37 -37 -37h-37q-37 0 -37 37v881q0 36 37 36h29q37 0 37 -36v-170q44 109 134 168t214 59z" />
    <glyph glyph-name="ograve" unicode="&#xf2;" horiz-adv-x="1179" 
d="M651 1155h-20q-25 0 -47 16l-258 220q-19 13 -14 28t28 15h74q27 0 43 -19l209 -223q11 -12 6.5 -24.5t-21.5 -12.5zM936 119q-133 -139 -346 -139t-346 139t-133 358q0 222 133 361q131 137 346 137t346 -137q133 -139 133 -361q0 -219 -133 -358zM330 180
q99 -114 260 -114q160 0 262 114q98 113 98 297t-98 297q-103 115 -262 115q-160 0 -260 -115q-101 -113 -101 -297t101 -297z" />
    <glyph glyph-name="oacute" unicode="&#xf3;" horiz-adv-x="1179" 
d="M549 1155h-21q-17 0 -21 12.5t7 24.5l209 223q16 19 43 19h74q23 0 28 -15t-14 -28l-258 -220q-22 -16 -47 -16zM936 119q-133 -139 -346 -139t-346 139t-133 358q0 222 133 361q131 137 346 137t346 -137q133 -139 133 -361q0 -219 -133 -358zM330 180q99 -114 260 -114
q160 0 262 114q98 113 98 297t-98 297q-103 115 -262 115q-160 0 -260 -115q-101 -113 -101 -297t101 -297z" />
    <glyph glyph-name="ocircumflex" unicode="&#xf4;" horiz-adv-x="1179" 
d="M371 1155h-21q-17 0 -20.5 12.5t8.5 26.5l180 219q15 21 43 21h57q29 0 44 -21l180 -219q12 -14 8 -26.5t-21 -12.5h-20q-27 0 -43 16l-176 164l-176 -164q-16 -16 -43 -16zM936 119q-133 -139 -346 -139t-346 139t-133 358q0 222 133 361q131 137 346 137t346 -137
q133 -139 133 -361q0 -219 -133 -358zM330 180q99 -114 260 -114q160 0 262 114q98 113 98 297t-98 297q-103 115 -262 115q-160 0 -260 -115q-101 -113 -101 -297t101 -297z" />
    <glyph glyph-name="otilde" unicode="&#xf5;" horiz-adv-x="1179" 
d="M365 1198h-19q-36 0 -27 39q19 72 63 114t101 42q65 0 138 -58q50 -41 84 -41q54 0 75 68q9 31 35 31h19q35 0 26 -39q-19 -72 -63 -114t-101 -42q-74 0 -137 57q-50 41 -84 41q-55 0 -76 -67q-9 -31 -34 -31zM936 119q-133 -139 -346 -139t-346 139t-133 358
q0 222 133 361q131 137 346 137t346 -137q133 -139 133 -361q0 -219 -133 -358zM330 180q99 -114 260 -114q160 0 262 114q98 113 98 297t-98 297q-103 115 -262 115q-160 0 -260 -115q-101 -113 -101 -297t101 -297z" />
    <glyph glyph-name="odieresis" unicode="&#xf6;" horiz-adv-x="1179" 
d="M449 1241q-20 -20 -53.5 -20t-53.5 20t-20 53.5t20 53.5t53.5 20t53.5 -20t20 -53.5t-20 -53.5zM838 1241q-20 -20 -53.5 -20t-53.5 20t-20 53.5t20 53.5t53.5 20t53.5 -20t20 -53.5t-20 -53.5zM936 119q-133 -139 -346 -139t-346 139t-133 358q0 222 133 361
q131 137 346 137t346 -137q133 -139 133 -361q0 -219 -133 -358zM330 180q99 -114 260 -114q160 0 262 114q98 113 98 297t-98 297q-103 115 -262 115q-160 0 -260 -115q-101 -113 -101 -297t101 -297z" />
    <glyph glyph-name="divide" unicode="&#xf7;" 
d="M686 930q-20 -20 -53 -20t-53 20t-20 53t20 53t53 20t53 -20t20 -53t-20 -53zM1094 492h-922q-37 0 -37 36v21q0 37 37 37h922q36 0 36 -37v-21q0 -36 -36 -36zM686 41q-20 -20 -53 -20t-53 20t-20 53t20 53t53 20t53 -20t20 -53t-20 -53z" />
    <glyph glyph-name="oslash" unicode="&#xf8;" horiz-adv-x="1179" 
d="M1032 911l-82 -92q119 -134 119 -342q0 -219 -133 -358t-346 -139q-172 0 -297 96l-51 -58q-18 -18 -43 -18h-31q-23 0 -29 13t8 30l82 92q-118 133 -118 342q0 222 133 361q131 137 346 137q172 0 297 -96l51 57q18 18 43 18h31q23 0 28.5 -13t-8.5 -30zM229 477
q0 -150 72 -260l520 588q-96 84 -231 84q-160 0 -260 -115q-101 -113 -101 -297zM590 66q160 0 262 114q98 113 98 297q0 151 -71 260l-521 -587q96 -84 232 -84z" />
    <glyph glyph-name="ugrave" unicode="&#xf9;" horiz-adv-x="1122" 
d="M555 1171l-258 220q-19 13 -14 28t28 15h74q27 0 43 -19l209 -223q11 -12 7 -24.5t-21 -12.5h-21q-25 0 -47 16zM872 954h37q37 0 37 -36v-881q0 -37 -37 -37h-28q-37 0 -37 37v170q-44 -109 -134 -168t-214 -59q-160 0 -248 96.5t-88 269.5v572q0 36 37 36h36
q37 0 37 -36v-560q0 -139 62.5 -212.5t181.5 -73.5q148 0 235 110.5t87 296.5v439q0 36 36 36z" />
    <glyph glyph-name="uacute" unicode="&#xfa;" horiz-adv-x="1122" 
d="M520 1155h-20q-17 0 -21.5 12.5t6.5 24.5l209 223q16 19 43 19h74q23 0 28 -15t-14 -28l-258 -220q-22 -16 -47 -16zM872 954h37q37 0 37 -36v-881q0 -37 -37 -37h-28q-37 0 -37 37v170q-44 -109 -134 -168t-214 -59q-160 0 -248 96.5t-88 269.5v572q0 36 37 36h36
q37 0 37 -36v-560q0 -139 62.5 -212.5t181.5 -73.5q148 0 235 110.5t87 296.5v439q0 36 36 36z" />
    <glyph glyph-name="ucircumflex" unicode="&#xfb;" horiz-adv-x="1122" 
d="M342 1155h-20q-17 0 -21 12.5t8 26.5l180 219q15 21 43 21h58q28 0 43 -21l180 -219q12 -14 8.5 -26.5t-20.5 -12.5h-21q-27 0 -43 16l-176 164l-176 -164q-16 -16 -43 -16zM872 954h37q37 0 37 -36v-881q0 -37 -37 -37h-28q-37 0 -37 37v170q-44 -109 -134 -168
t-214 -59q-160 0 -248 96.5t-88 269.5v572q0 36 37 36h36q37 0 37 -36v-560q0 -139 62.5 -212.5t181.5 -73.5q148 0 235 110.5t87 296.5v439q0 36 36 36z" />
    <glyph glyph-name="udieresis" unicode="&#xfc;" horiz-adv-x="1122" 
d="M420 1241q-20 -20 -53.5 -20t-53.5 20t-20 53.5t20 53.5t53.5 20t53.5 -20t20 -53.5t-20 -53.5zM809 1241q-20 -20 -53.5 -20t-53.5 20t-20 53.5t20 53.5t53.5 20t53.5 -20t20 -53.5t-20 -53.5zM872 954h37q37 0 37 -36v-881q0 -37 -37 -37h-28q-37 0 -37 37v170
q-44 -109 -134 -168t-214 -59q-160 0 -248 96.5t-88 269.5v572q0 36 37 36h36q37 0 37 -36v-560q0 -139 62.5 -212.5t181.5 -73.5q148 0 235 110.5t87 296.5v439q0 36 36 36z" />
    <glyph glyph-name="yacute" unicode="&#xfd;" horiz-adv-x="989" 
d="M455 1155h-21q-17 0 -21 12.5t7 24.5l209 223q16 19 43 19h73q23 0 28.5 -15t-13.5 -28l-258 -220q-22 -16 -47 -16zM307 -475h-28q-20 0 -28.5 12t-0.5 31l194 459l-372 884q-8 19 0 31t28 12h43q31 0 43 -28l316 -762l317 762q12 28 43 28h27q20 0 28.5 -12t0.5 -31
l-568 -1357q-13 -29 -43 -29z" />
    <glyph glyph-name="thorn" unicode="&#xfe;" horiz-adv-x="1222" 
d="M651 975q207 0 332 -137q127 -139 127 -361q0 -219 -127 -358q-130 -139 -334 -139q-249 0 -362 192v-610q0 -37 -37 -37h-37q-37 0 -37 37v1872q0 36 37 36h37q37 0 37 -36v-652q114 193 364 193zM379 178q93 -112 258 -112t258 112q96 116 96 299t-96 299
q-94 113 -258 113t-258 -113q-96 -116 -96 -299t96 -299z" />
    <glyph glyph-name="ydieresis" unicode="&#xff;" horiz-adv-x="989" 
d="M354 1241q-20 -20 -53 -20t-53 20t-20 53.5t20 53.5t53 20t53 -20t20 -53.5t-20 -53.5zM743 1241q-20 -20 -53 -20t-53 20t-20 53.5t20 53.5t53 20t53 -20t20 -53.5t-20 -53.5zM307 -475h-28q-20 0 -28.5 12t-0.5 31l194 459l-372 884q-8 19 0 31t28 12h43q31 0 43 -28
l316 -762l317 762q12 28 43 28h27q20 0 28.5 -12t0.5 -31l-568 -1357q-13 -29 -43 -29z" />
    <glyph glyph-name="Amacron" unicode="&#x100;" horiz-adv-x="1433" 
d="M944 1677h-455q-34 0 -34 35v29q0 35 34 35h455q35 0 35 -35v-29q0 -35 -35 -35zM172 0h-33q-20 0 -28 12t0 31l551 1341q13 29 43 29h24q30 0 43 -29l551 -1341q8 -19 -0.5 -31t-28.5 -12h-51q-30 0 -43 29l-139 340h-707l-139 -340q-13 -29 -43 -29zM707 1233
l-314 -766h627z" />
    <glyph glyph-name="amacron" unicode="&#x101;" horiz-adv-x="1060" 
d="M743 1245h-454q-35 0 -35 35v29q0 34 35 34h454q35 0 35 -34v-29q0 -35 -35 -35zM526 975q183 0 279 -95.5t96 -275.5v-567q0 -37 -37 -37h-28q-37 0 -37 37v176q-94 -233 -367 -233q-146 0 -236 76.5t-90 201.5q0 137 107 216t293 79q158 0 285 -47v88q0 291 -271 291
q-157 0 -276 -94q-29 -22 -51 6l-11 14q-21 30 6 51q143 113 338 113zM451 66q141 0 232.5 96t104.5 260q-128 45 -264 45q-299 0 -299 -205q0 -90 61.5 -143t164.5 -53z" />
    <glyph glyph-name="Abreve" unicode="&#x102;" horiz-adv-x="1433" 
d="M971 1806q-67 -198 -254 -198t-254 198q-12 43 24 43h23q30 0 39 -28q37 -111 168 -111t168 111q9 28 39 28h22q37 0 25 -43zM172 0h-33q-20 0 -28 12t0 31l551 1341q13 29 43 29h24q30 0 43 -29l551 -1341q8 -19 -0.5 -31t-28.5 -12h-51q-30 0 -43 29l-139 340h-707
l-139 -340q-13 -29 -43 -29zM707 1233l-314 -766h627z" />
    <glyph glyph-name="abreve" unicode="&#x103;" horiz-adv-x="1060" 
d="M770 1374q-67 -198 -254 -198t-254 198q-12 43 25 43h22q30 0 39 -28q38 -111 168 -111t168 111q9 28 39 28h22q37 0 25 -43zM526 975q183 0 279 -95.5t96 -275.5v-567q0 -37 -37 -37h-28q-37 0 -37 37v176q-94 -233 -367 -233q-146 0 -236 76.5t-90 201.5q0 137 107 216
t293 79q158 0 285 -47v88q0 291 -271 291q-157 0 -276 -94q-29 -22 -51 6l-11 14q-21 30 6 51q143 113 338 113zM451 66q141 0 232.5 96t104.5 260q-128 45 -264 45q-299 0 -299 -205q0 -90 61.5 -143t164.5 -53z" />
    <glyph glyph-name="Aogonek" unicode="&#x104;" horiz-adv-x="1433" 
d="M1343 -371l7 -14q12 -31 -21 -45q-70 -31 -131 -31q-96 0 -148.5 44t-52.5 124q0 113 138 248l69 68l-4 6l-139 340h-707l-139 -340q-13 -29 -43 -29h-33q-20 0 -28 12t0 31l551 1341q13 29 43 29h24q30 0 43 -29l551 -1341q8 -19 -0.5 -31t-28.5 -12h-26l-76 -84
q-96 -110 -96 -188q0 -50 27.5 -77.5t78.5 -27.5q54 0 94 21q34 15 47 -15zM707 1233l-314 -766h627z" />
    <glyph glyph-name="aogonek" unicode="&#x105;" horiz-adv-x="1060" 
d="M944 -371l6 -14q12 -31 -20 -45q-70 -31 -131 -31q-96 0 -148.5 44t-52.5 124q0 114 137 248l68 65q-4 12 -4 17v176q-94 -233 -367 -233q-146 0 -236 76.5t-90 201.5q0 137 107 216t293 79q158 0 285 -47v88q0 291 -271 291q-157 0 -276 -94q-29 -22 -51 6l-11 14
q-21 30 6 51q143 113 338 113q183 0 279 -95.5t96 -275.5v-567q0 -34 -31 -37l-77 -84q-97 -111 -97 -188q0 -50 28 -77.5t79 -27.5q53 0 94 21q34 15 47 -15zM451 66q141 0 232.5 96t104.5 260q-128 45 -264 45q-299 0 -299 -205q0 -90 61.5 -143t164.5 -53z" />
    <glyph glyph-name="Cacute" unicode="&#x106;" horiz-adv-x="1421" 
d="M774 1587h-20q-17 0 -21.5 12.5t6.5 24.5l209 223q16 19 43 19h74q24 0 28 -13t-14 -30l-258 -219q-24 -17 -47 -17zM856 -20q-316 0 -516 200q-201 201 -201 518q0 318 201 519q200 200 518 200q234 0 418 -123q29 -17 8 -51l-14 -20q-21 -27 -51 -6q-153 106 -355 106
q-266 0 -432 -172q-166 -175 -166 -453t166 -450q162 -174 428 -174q209 0 377 121q29 23 51 -9l15 -20q21 -30 -7 -49q-192 -137 -440 -137z" />
    <glyph glyph-name="cacute" unicode="&#x107;" horiz-adv-x="1026" 
d="M516 1155h-20q-17 0 -21.5 12.5t6.5 24.5l209 223q16 19 43 19h74q23 0 28 -15t-14 -28l-258 -220q-22 -16 -47 -16zM596 -20q-217 0 -350 139q-135 138 -135 358q0 223 135 361q131 137 350 137q170 0 295 -82q28 -22 10 -51l-8 -13q-18 -30 -51 -10q-110 70 -236 70
q-173 0 -275 -111.5t-102 -300.5t102 -300t275 -111q148 0 266 92q29 23 52 -6l10 -13q22 -31 -4 -51q-144 -108 -334 -108z" />
    <glyph glyph-name="Ccircumflex" unicode="&#x108;" horiz-adv-x="1421" 
d="M596 1587h-21q-17 0 -20.5 12.5t8.5 26.5l180 219q15 21 43 21h58q28 0 43 -21l180 -219q12 -14 8.5 -26.5t-20.5 -12.5h-21q-26 0 -43 17l-176 163l-176 -163q-17 -17 -43 -17zM856 -20q-316 0 -516 200q-201 201 -201 518q0 318 201 519q200 200 518 200
q234 0 418 -123q29 -17 8 -51l-14 -20q-21 -27 -51 -6q-153 106 -355 106q-266 0 -432 -172q-166 -175 -166 -453t166 -450q162 -174 428 -174q209 0 377 121q29 23 51 -9l15 -20q21 -30 -7 -49q-192 -137 -440 -137z" />
    <glyph glyph-name="ccircumflex" unicode="&#x109;" horiz-adv-x="1026" 
d="M338 1155h-21q-17 0 -20.5 12.5t8.5 26.5l180 219q15 21 43 21h58q28 0 43 -21l180 -219q12 -14 8.5 -26.5t-20.5 -12.5h-21q-27 0 -43 16l-176 164l-176 -164q-16 -16 -43 -16zM596 -20q-217 0 -350 139q-135 138 -135 358q0 223 135 361q131 137 350 137q170 0 295 -82
q28 -22 10 -51l-8 -13q-18 -30 -51 -10q-110 70 -236 70q-173 0 -275 -111.5t-102 -300.5t102 -300t275 -111q148 0 266 92q29 23 52 -6l10 -13q22 -31 -4 -51q-144 -108 -334 -108z" />
    <glyph glyph-name="Cdotaccent" unicode="&#x10a;" horiz-adv-x="1421" 
d="M868 1673q-20 -20 -53 -20t-53 20t-20 53.5t20 53.5t53 20t53 -20t20 -53.5t-20 -53.5zM856 -20q-316 0 -516 200q-201 201 -201 518q0 318 201 519q200 200 518 200q234 0 418 -123q29 -17 8 -51l-14 -20q-21 -27 -51 -6q-153 106 -355 106q-266 0 -432 -172
q-166 -175 -166 -453t166 -450q162 -174 428 -174q209 0 377 121q29 23 51 -9l15 -20q21 -30 -7 -49q-192 -137 -440 -137z" />
    <glyph glyph-name="cdotaccent" unicode="&#x10b;" horiz-adv-x="1026" 
d="M610 1241q-20 -20 -53 -20t-53 20t-20 53.5t20 53.5t53 20t53 -20t20 -53.5t-20 -53.5zM596 -20q-217 0 -350 139q-135 138 -135 358q0 223 135 361q131 137 350 137q170 0 295 -82q28 -22 10 -51l-8 -13q-18 -30 -51 -10q-110 70 -236 70q-173 0 -275 -111.5
t-102 -300.5t102 -300t275 -111q148 0 266 92q29 23 52 -6l10 -13q22 -31 -4 -51q-144 -108 -334 -108z" />
    <glyph glyph-name="Ccaron" unicode="&#x10c;" horiz-adv-x="1421" 
d="M844 1587h-58q-28 0 -43 21l-180 219q-12 13 -8.5 26t20.5 13h21q26 0 43 -17l176 -163l176 163q17 17 43 17h21q17 0 20.5 -13t-8.5 -26l-180 -219q-15 -21 -43 -21zM856 -20q-316 0 -516 200q-201 201 -201 518q0 318 201 519q200 200 518 200q234 0 418 -123
q29 -17 8 -51l-14 -20q-21 -27 -51 -6q-153 106 -355 106q-266 0 -432 -172q-166 -175 -166 -453t166 -450q162 -174 428 -174q209 0 377 121q29 23 51 -9l15 -20q21 -30 -7 -49q-192 -137 -440 -137z" />
    <glyph glyph-name="ccaron" unicode="&#x10d;" horiz-adv-x="1026" 
d="M586 1155h-58q-28 0 -43 21l-180 219q-12 13 -8.5 26t20.5 13h21q26 0 43 -17l176 -164l176 164q17 17 43 17h21q17 0 20.5 -13t-8.5 -26l-180 -219q-15 -21 -43 -21zM596 -20q-217 0 -350 139q-135 138 -135 358q0 223 135 361q131 137 350 137q170 0 295 -82
q28 -22 10 -51l-8 -13q-18 -30 -51 -10q-110 70 -236 70q-173 0 -275 -111.5t-102 -300.5t102 -300t275 -111q148 0 266 92q29 23 52 -6l10 -13q22 -31 -4 -51q-144 -108 -334 -108z" />
    <glyph glyph-name="Dcaron" unicode="&#x10e;" horiz-adv-x="1595" 
d="M786 1587h-57q-28 0 -43 21l-180 219q-12 13 -8.5 26t20.5 13h21q26 0 43 -17l176 -163l176 163q17 17 43 17h20q17 0 21 -13t-8 -26l-181 -219q-15 -21 -43 -21zM743 0h-485q-37 0 -37 37v1323q0 37 37 37h485q331 0 521 -187t190 -512q0 -323 -190 -510
q-191 -188 -521 -188zM340 1303v-1209h385q287 0 444.5 157.5t157.5 446.5t-157.5 447t-444.5 158h-385z" />
    <glyph glyph-name="dcaron" unicode="&#x10f;" horiz-adv-x="1222" 
d="M973 1470h37q37 0 37 -36v-1397q0 -37 -37 -37h-29q-37 0 -37 37v149q-111 -206 -373 -206q-204 0 -331 139t-127 358q0 223 129 361q125 137 331 137q249 0 363 -193v652q0 36 37 36zM1251 1470h49q20 0 27.5 -11.5t-0.5 -28.5l-141 -326q-12 -27 -37 -27h-14
q-33 0 -21 35l98 330q9 28 39 28zM328 178q93 -112 258 -112t258 112q96 116 96 299t-96 299q-94 113 -258 113t-258 -113q-97 -117 -97 -299t97 -299z" />
    <glyph glyph-name="Dcroat" unicode="&#x110;" horiz-adv-x="1595" 
d="M258 1397h485q331 0 521 -187t190 -512q0 -323 -190 -510q-191 -188 -521 -188h-485q-37 0 -37 37v616h-186q-35 0 -35 35v21q0 34 35 34h186v617q0 37 37 37zM340 94h385q287 0 444.5 157.5t157.5 446.5t-157.5 447t-444.5 158h-385v-560h448q35 0 35 -34v-21
q0 -35 -35 -35h-448v-559z" />
    <glyph glyph-name="dslash" unicode="&#x111;" horiz-adv-x="1222" 
d="M1047 1268h151q25 0 25 -35v-21q0 -34 -25 -34h-151v-1141q0 -37 -37 -37h-29q-37 0 -37 37v149q-111 -206 -373 -206q-204 0 -331 139t-127 358q0 223 129 361q125 137 331 137q249 0 363 -193v396h-266q-25 0 -25 34v21q0 35 25 35h266v166q0 36 37 36h37q37 0 37 -36
v-166zM328 178q93 -112 258 -112t258 112q96 116 96 299t-96 299q-94 113 -258 113t-258 -113q-97 -117 -97 -299t97 -299z" />
    <glyph glyph-name="Emacron" unicode="&#x112;" horiz-adv-x="1282" 
d="M913 1677h-454q-35 0 -35 35v29q0 35 35 35h454q35 0 35 -35v-29q0 -35 -35 -35zM1114 0h-856q-37 0 -37 37v1323q0 37 37 37h856q37 0 37 -37v-21q0 -36 -37 -36h-774v-531h664q36 0 36 -37v-20q0 -37 -36 -37h-664v-584h774q37 0 37 -37v-20q0 -37 -37 -37z" />
    <glyph glyph-name="emacron" unicode="&#x113;" horiz-adv-x="1138" 
d="M809 1245h-455q-35 0 -35 35v29q0 34 35 34h455q35 0 35 -34v-29q0 -35 -35 -35zM997 121q-156 -141 -385 -141t-364 135q-137 134 -137 362q0 222 133 361q131 137 348 137q202 0 321 -124t119 -335q0 -19 -2 -27q-6 -34 -37 -34h-764q6 -180 112.5 -284.5t283.5 -104.5
q179 0 313 122q28 28 51 -2l12 -14q23 -30 -4 -51zM233 541h685q-6 164 -92 256t-234 92q-147 0 -244.5 -94.5t-114.5 -253.5z" />
    <glyph glyph-name="Ebreve" unicode="&#x114;" horiz-adv-x="1282" 
d="M940 1806q-67 -198 -254 -198t-254 198q-12 43 25 43h22q30 0 39 -28q37 -111 168 -111t168 111q9 28 39 28h22q37 0 25 -43zM1114 0h-856q-37 0 -37 37v1323q0 37 37 37h856q37 0 37 -37v-21q0 -36 -37 -36h-774v-531h664q36 0 36 -37v-20q0 -37 -36 -37h-664v-584h774
q37 0 37 -37v-20q0 -37 -37 -37z" />
    <glyph glyph-name="ebreve" unicode="&#x115;" horiz-adv-x="1138" 
d="M836 1374q-67 -198 -254 -198t-254 198q-12 43 24 43h23q30 0 39 -28q38 -111 168 -111t168 111q9 28 38 28h23q37 0 25 -43zM997 121q-156 -141 -385 -141t-364 135q-137 134 -137 362q0 222 133 361q131 137 348 137q202 0 321 -124t119 -335q0 -19 -2 -27
q-6 -34 -37 -34h-764q6 -180 112.5 -284.5t283.5 -104.5q179 0 313 122q28 28 51 -2l12 -14q23 -30 -4 -51zM233 541h685q-6 164 -92 256t-234 92q-147 0 -244.5 -94.5t-114.5 -253.5z" />
    <glyph glyph-name="Edotaccent" unicode="&#x116;" horiz-adv-x="1282" 
d="M739 1673q-20 -20 -53 -20t-53 20t-20 53.5t20 53.5t53 20t53 -20t20 -53.5t-20 -53.5zM1114 0h-856q-37 0 -37 37v1323q0 37 37 37h856q37 0 37 -37v-21q0 -36 -37 -36h-774v-531h664q36 0 36 -37v-20q0 -37 -36 -37h-664v-584h774q37 0 37 -37v-20q0 -37 -37 -37z" />
    <glyph glyph-name="edotaccent" unicode="&#x117;" horiz-adv-x="1138" 
d="M635 1241q-20 -20 -53.5 -20t-53.5 20t-20 53.5t20 53.5t53.5 20t53.5 -20t20 -53.5t-20 -53.5zM997 121q-156 -141 -385 -141t-364 135q-137 134 -137 362q0 222 133 361q131 137 348 137q202 0 321 -124t119 -335q0 -19 -2 -27q-6 -34 -37 -34h-764
q6 -180 112.5 -284.5t283.5 -104.5q179 0 313 122q28 28 51 -2l12 -14q23 -30 -4 -51zM233 541h685q-6 164 -92 256t-234 92q-147 0 -244.5 -94.5t-114.5 -253.5z" />
    <glyph glyph-name="Eogonek" unicode="&#x118;" horiz-adv-x="1282" 
d="M1153 -371l6 -14q12 -31 -20 -45q-70 -31 -131 -31q-96 0 -148.5 44t-52.5 124q0 114 137 248l47 45h-733q-37 0 -37 37v1323q0 37 37 37h856q37 0 37 -37v-21q0 -36 -37 -36h-774v-531h664q36 0 36 -37v-20q0 -37 -36 -37h-664v-584h774q37 0 37 -37v-20q0 -37 -37 -37
h-37l-76 -84q-96 -110 -96 -188q0 -50 28 -77.5t79 -27.5q54 0 94 21q34 15 47 -15z" />
    <glyph glyph-name="eogonek" unicode="&#x119;" horiz-adv-x="1138" 
d="M592 975q202 0 321 -124t119 -335q0 -19 -2 -27q-6 -34 -37 -34h-764q6 -180 112.5 -284.5t283.5 -104.5q179 0 313 122q28 28 51 -2l12 -14q23 -30 -4 -51l-12 -10l-92 -113q-92 -113 -119 -162q-31 -54 -31 -106q0 -107 107 -107q48 0 94 21q34 15 47 -15l6 -14
q12 -31 -20 -45q-70 -31 -131 -31q-94 0 -147.5 45.5t-53.5 126.5q0 66 34.5 128.5t125.5 160.5l10 12q-82 -32 -203 -32q-229 0 -364 135q-137 134 -137 362q0 222 133 361q131 137 348 137zM233 541h685q-6 164 -92 256t-234 92q-147 0 -244.5 -94.5t-114.5 -253.5z" />
    <glyph glyph-name="Ecaron" unicode="&#x11a;" horiz-adv-x="1282" 
d="M715 1587h-58q-28 0 -43 21l-180 219q-12 13 -8.5 26t20.5 13h21q26 0 43 -17l176 -163l176 163q17 17 43 17h21q17 0 20.5 -13t-8.5 -26l-180 -219q-15 -21 -43 -21zM1114 0h-856q-37 0 -37 37v1323q0 37 37 37h856q37 0 37 -37v-21q0 -36 -37 -36h-774v-531h664
q36 0 36 -37v-20q0 -37 -36 -37h-664v-584h774q37 0 37 -37v-20q0 -37 -37 -37z" />
    <glyph glyph-name="ecaron" unicode="&#x11b;" horiz-adv-x="1138" 
d="M610 1155h-57q-28 0 -43 21l-180 219q-12 13 -8.5 26t20.5 13h20q27 0 44 -17l176 -164l176 164q17 17 43 17h20q17 0 21 -13t-8 -26l-181 -219q-15 -21 -43 -21zM997 121q-156 -141 -385 -141t-364 135q-137 134 -137 362q0 222 133 361q131 137 348 137q202 0 321 -124
t119 -335q0 -19 -2 -27q-6 -34 -37 -34h-764q6 -180 112.5 -284.5t283.5 -104.5q179 0 313 122q28 28 51 -2l12 -14q23 -30 -4 -51zM233 541h685q-6 164 -92 256t-234 92q-147 0 -244.5 -94.5t-114.5 -253.5z" />
    <glyph glyph-name="Gcircumflex" unicode="&#x11c;" horiz-adv-x="1581" 
d="M633 1587h-21q-17 0 -20.5 12.5t8.5 26.5l180 219q15 21 43 21h58q28 0 43 -21l180 -219q12 -14 8.5 -26.5t-20.5 -12.5h-21q-26 0 -43 17l-176 163l-176 -163q-17 -17 -43 -17zM909 -20q-351 0 -559 196q-211 193 -211 522q0 320 207 521q204 198 541 198
q243 0 438 -121q28 -22 10 -51l-14 -20q-21 -29 -51 -8q-160 106 -377 106q-281 0 -453 -172q-174 -171 -174 -453q0 -286 174 -454q176 -170 467 -170q237 0 389 116v433h-346q-37 0 -37 36v21q0 37 37 37h428q37 0 37 -37v-502q0 -29 -22 -45q-193 -153 -484 -153z" />
    <glyph glyph-name="gcircumflex" unicode="&#x11d;" horiz-adv-x="1222" 
d="M373 1155h-21q-17 0 -20.5 12.5t8.5 26.5l180 219q15 21 43 21h58q28 0 43 -21l180 -219q12 -14 8 -26.5t-21 -12.5h-20q-27 0 -43 16l-176 164l-176 -164q-16 -16 -43 -16zM981 954h29q37 0 37 -36v-953q0 -227 -116.5 -344t-342.5 -117q-257 0 -412 152q-24 24 0 51
l12 12q24 24 52 2q139 -127 342 -127q354 0 354 371v207q-113 -192 -365 -192q-204 0 -331 139t-127 358q0 223 129 361q125 137 331 137q259 0 371 -207v150q0 36 37 36zM328 178q93 -112 258 -112t258 112q96 116 96 299t-96 299q-94 113 -258 113t-258 -113
q-97 -117 -97 -299t97 -299z" />
    <glyph glyph-name="Gbreve" unicode="&#x11e;" horiz-adv-x="1581" 
d="M1106 1806q-67 -198 -254 -198t-254 198q-12 43 25 43h22q30 0 39 -28q38 -111 168 -111t168 111q9 28 39 28h22q37 0 25 -43zM909 -20q-351 0 -559 196q-211 193 -211 522q0 320 207 521q204 198 541 198q243 0 438 -121q28 -22 10 -51l-14 -20q-21 -29 -51 -8
q-160 106 -377 106q-281 0 -453 -172q-174 -171 -174 -453q0 -286 174 -454q176 -170 467 -170q237 0 389 116v433h-346q-37 0 -37 36v21q0 37 37 37h428q37 0 37 -37v-502q0 -29 -22 -45q-193 -153 -484 -153z" />
    <glyph glyph-name="gbreve" unicode="&#x11f;" horiz-adv-x="1222" 
d="M846 1374q-67 -198 -254 -198t-254 198q-12 43 24 43h23q30 0 39 -28q38 -111 168 -111t168 111q9 28 39 28h22q37 0 25 -43zM981 954h29q37 0 37 -36v-953q0 -227 -116.5 -344t-342.5 -117q-257 0 -412 152q-24 24 0 51l12 12q24 24 52 2q139 -127 342 -127
q354 0 354 371v207q-113 -192 -365 -192q-204 0 -331 139t-127 358q0 223 129 361q125 137 331 137q259 0 371 -207v150q0 36 37 36zM328 178q93 -112 258 -112t258 112q96 116 96 299t-96 299q-94 113 -258 113t-258 -113q-97 -117 -97 -299t97 -299z" />
    <glyph glyph-name="Gdotaccent" unicode="&#x120;" horiz-adv-x="1581" 
d="M905 1673q-20 -20 -53 -20t-53 20t-20 53.5t20 53.5t53 20t53 -20t20 -53.5t-20 -53.5zM909 -20q-351 0 -559 196q-211 193 -211 522q0 320 207 521q204 198 541 198q243 0 438 -121q28 -22 10 -51l-14 -20q-21 -29 -51 -8q-160 106 -377 106q-281 0 -453 -172
q-174 -171 -174 -453q0 -286 174 -454q176 -170 467 -170q237 0 389 116v433h-346q-37 0 -37 36v21q0 37 37 37h428q37 0 37 -37v-502q0 -29 -22 -45q-193 -153 -484 -153z" />
    <glyph glyph-name="gdotaccent" unicode="&#x121;" horiz-adv-x="1222" 
d="M645 1241q-20 -20 -53 -20t-53 20t-20 53.5t20 53.5t53 20t53 -20t20 -53.5t-20 -53.5zM981 954h29q37 0 37 -36v-953q0 -227 -116.5 -344t-342.5 -117q-257 0 -412 152q-24 24 0 51l12 12q24 24 52 2q139 -127 342 -127q354 0 354 371v207q-113 -192 -365 -192
q-204 0 -331 139t-127 358q0 223 129 361q125 137 331 137q259 0 371 -207v150q0 36 37 36zM328 178q93 -112 258 -112t258 112q96 116 96 299t-96 299q-94 113 -258 113t-258 -113q-97 -117 -97 -299t97 -299z" />
    <glyph glyph-name="uni0122" unicode="&#x122;" horiz-adv-x="1581" 
d="M909 -20q-351 0 -559 196q-211 193 -211 522q0 320 207 521q204 198 541 198q243 0 438 -121q28 -22 10 -51l-14 -20q-21 -29 -51 -8q-160 106 -377 106q-281 0 -453 -172q-174 -171 -174 -453q0 -286 174 -454q176 -170 467 -170q237 0 389 116v433h-346q-37 0 -37 36
v21q0 37 37 37h428q37 0 37 -37v-502q0 -29 -22 -45q-193 -153 -484 -153zM729 -475h-18q-34 0 -19 37l107 272q12 27 39 27h59q20 0 27 -12t-4 -29l-154 -271q-12 -24 -37 -24z" />
    <glyph glyph-name="uni0123" unicode="&#x123;" horiz-adv-x="1222" 
d="M600 1155h-59q-20 0 -27 12t4 29l131 215q16 23 37 23h19q30 0 18 -35l-84 -217q-9 -27 -39 -27zM981 954h29q37 0 37 -36v-953q0 -227 -116.5 -344t-342.5 -117q-257 0 -412 152q-24 24 0 51l12 12q24 24 52 2q139 -127 342 -127q354 0 354 371v207q-113 -192 -365 -192
q-204 0 -331 139t-127 358q0 223 129 361q125 137 331 137q259 0 371 -207v150q0 36 37 36zM328 178q93 -112 258 -112t258 112q96 116 96 299t-96 299q-94 113 -258 113t-258 -113q-97 -117 -97 -299t97 -299z" />
    <glyph glyph-name="Hcircumflex" unicode="&#x124;" horiz-adv-x="1638" 
d="M600 1587h-20q-17 0 -21 12.5t8 26.5l181 219q15 21 43 21h57q28 0 43 -21l180 -219q12 -14 8.5 -26.5t-20.5 -12.5h-21q-26 0 -43 17l-176 163l-176 -163q-17 -17 -43 -17zM303 0h-45q-37 0 -37 37v1323q0 37 37 37h45q37 0 37 -37v-588h958v588q0 37 37 37h45
q37 0 37 -37v-1323q0 -37 -37 -37h-45q-37 0 -37 37v641h-958v-641q0 -37 -37 -37z" />
    <glyph glyph-name="hcircumflex" unicode="&#x125;" horiz-adv-x="1122" 
d="M375 1669l-144 158l-143 -158q-18 -18 -41 -18h-18q-13 0 -18 10.5t3 24.5l152 221q16 22 41 22h49q25 0 41 -22l152 -221q8 -14 3 -24.5t-18 -10.5h-18q-23 0 -41 18zM627 975q159 0 247.5 -96.5t88.5 -270.5v-571q0 -37 -37 -37h-37q-37 0 -37 37v559q0 139 -62.5 213
t-181.5 74q-147 0 -234 -111t-87 -297v-438q0 -37 -37 -37h-37q-37 0 -37 37v1397q0 36 37 36h37q37 0 37 -36v-668q95 209 340 209z" />
    <glyph glyph-name="Hbar" unicode="&#x126;" horiz-adv-x="1638" 
d="M1417 1139h135q35 0 35 -35v-17q0 -34 -35 -34h-135v-1016q0 -37 -37 -37h-45q-37 0 -37 37v641h-958v-641q0 -37 -37 -37h-45q-37 0 -37 37v1016h-135q-35 0 -35 34v17q0 35 35 35h135v221q0 37 37 37h45q37 0 37 -37v-221h958v221q0 37 37 37h45q37 0 37 -37v-221z
M340 772h958v281h-958v-281z" />
    <glyph glyph-name="hbar" unicode="&#x127;" horiz-adv-x="1122" 
d="M627 975q159 0 247.5 -96.5t88.5 -270.5v-571q0 -37 -37 -37h-37q-37 0 -37 37v559q0 139 -62.5 213t-181.5 74q-147 0 -234 -111t-87 -297v-438q0 -37 -37 -37h-37q-37 0 -37 37v1141h-151q-25 0 -25 34v21q0 35 25 35h151v166q0 36 37 36h37q37 0 37 -36v-166h266
q25 0 25 -35v-21q0 -34 -25 -34h-266v-412q95 209 340 209z" />
    <glyph glyph-name="Itilde" unicode="&#x128;" horiz-adv-x="561" 
d="M70 1630h-13q-33 0 -24 39q19 74 57.5 115t91.5 41q61 0 125 -58q47 -41 78 -41q52 0 70 68q9 31 37 31h12q33 0 24 -39q-46 -156 -149 -156q-61 0 -125 58q-47 41 -78 41q-49 0 -70 -68q-9 -31 -36 -31zM303 0h-45q-37 0 -37 37v1323q0 37 37 37h45q37 0 37 -37v-1323
q0 -37 -37 -37z" />
    <glyph glyph-name="itilde" unicode="&#x129;" horiz-adv-x="462" 
d="M20 1198h-12q-33 0 -24 39q19 74 57.5 115t91.5 41q61 0 125 -58q47 -41 78 -41q52 0 70 68q9 31 36 31h13q33 0 24 -39q-47 -156 -149 -156q-62 0 -125 57q-47 41 -78 41q-49 0 -70 -67q-9 -31 -37 -31zM250 0h-37q-37 0 -37 37v881q0 36 37 36h37q37 0 37 -36v-881
q0 -37 -37 -37z" />
    <glyph glyph-name="Imacron" unicode="&#x12a;" horiz-adv-x="561" 
d="M483 1677h-403q-35 0 -35 35v29q0 35 35 35h403q35 0 35 -35v-29q0 -35 -35 -35zM303 0h-45q-37 0 -37 37v1323q0 37 37 37h45q37 0 37 -37v-1323q0 -37 -37 -37z" />
    <glyph glyph-name="imacron" unicode="&#x12b;" horiz-adv-x="462" 
d="M434 1245h-403q-35 0 -35 35v29q0 34 35 34h403q35 0 35 -34v-29q0 -35 -35 -35zM250 0h-37q-37 0 -37 37v881q0 36 37 36h37q37 0 37 -36v-881q0 -37 -37 -37z" />
    <glyph glyph-name="Ibreve" unicode="&#x12c;" horiz-adv-x="561" 
d="M424 1659q-57 -51 -143 -51q-88 0 -142 51q-58 49 -76 143q-9 47 25 47h21q26 0 32 -32q10 -57 43.5 -82t96.5 -25t96 25t43 82q6 32 33 32h20q34 0 25 -47q-18 -93 -74 -143zM303 0h-45q-37 0 -37 37v1323q0 37 37 37h45q37 0 37 -37v-1323q0 -37 -37 -37z" />
    <glyph glyph-name="ibreve" unicode="&#x12d;" horiz-adv-x="462" 
d="M375 1227q-57 -51 -144 -51t-141 51q-58 49 -76 143q-9 47 25 47h20q27 0 33 -33q10 -57 43 -81.5t96 -24.5t96.5 24.5t43.5 81.5q6 33 32 33h21q34 0 25 -47q-18 -93 -74 -143zM250 0h-37q-37 0 -37 37v881q0 36 37 36h37q37 0 37 -36v-881q0 -37 -37 -37z" />
    <glyph glyph-name="Iogonek" unicode="&#x12e;" horiz-adv-x="561" 
d="M436 -371l6 -14q12 -31 -20 -45q-70 -31 -131 -31q-97 0 -149 45.5t-52 130.5q0 106 113 246l35 43q-17 10 -17 33v1323q0 37 37 37h45q37 0 37 -37v-1323q0 -24 -18 -33l-62 -82q-72 -97 -72 -190q0 -109 107 -109q48 0 94 21q34 15 47 -15z" />
    <glyph glyph-name="iogonek" unicode="&#x12f;" horiz-adv-x="462" 
d="M285 1241q-20 -20 -53.5 -20t-53.5 20t-20 53.5t20 53.5t53.5 20t53.5 -20t20 -53.5t-20 -53.5zM385 -371l6 -14q12 -31 -20 -45q-70 -31 -131 -31q-97 0 -149 45.5t-52 130.5q0 106 113 246l36 47q-12 9 -12 29v881q0 36 37 36h37q37 0 37 -36v-881q0 -22 -15 -31
l-63 -84q-72 -97 -72 -190q0 -109 107 -109q47 0 94 21q34 15 47 -15z" />
    <glyph glyph-name="Idot" unicode="&#x130;" horiz-adv-x="561" 
d="M334 1673q-20 -20 -53.5 -20t-53.5 20t-20 53.5t20 53.5t53.5 20t53.5 -20t20 -53.5t-20 -53.5zM303 0h-45q-37 0 -37 37v1323q0 37 37 37h45q37 0 37 -37v-1323q0 -37 -37 -37z" />
    <glyph glyph-name="dotlessi" unicode="&#x131;" horiz-adv-x="462" 
d="M250 0h-37q-37 0 -37 37v881q0 36 37 36h37q37 0 37 -36v-881q0 -37 -37 -37z" />
    <glyph glyph-name="Jcircumflex" unicode="&#x134;" horiz-adv-x="606" 
d="M141 1587h-18q-13 0 -17.5 10.5t3.5 24.5l151 221q16 23 41 23h49q25 0 41 -23l152 -221q8 -14 3 -24.5t-18 -10.5h-18q-22 0 -41 19l-143 157l-144 -157q-19 -19 -41 -19zM113 -211q-37 -9 -43 29l-4 24q-6 37 28 43q172 34 172 281v1194q0 37 37 37h45q37 0 37 -37
v-1186q0 -162 -69.5 -260.5t-202.5 -124.5z" />
    <glyph glyph-name="jcircumflex" unicode="&#x135;" horiz-adv-x="462" 
d="M47 1155h-18q-13 0 -18 10.5t3 24.5l152 221q16 23 41 23h49q25 0 41 -23l152 -221q8 -14 3 -24.5t-18 -10.5h-18q-22 0 -41 19l-144 157l-143 -157q-19 -19 -41 -19zM-2 -494q-41 -3 -41 35v13q0 37 33 40q99 13 142.5 90t43.5 234v1000q0 36 37 36h37q37 0 37 -36v-977
q0 -411 -289 -435z" />
    <glyph glyph-name="uni0136" unicode="&#x136;" horiz-adv-x="1400" 
d="M301 0h-45q-37 0 -37 37v1323q0 37 37 37h45q37 0 37 -37v-727l797 745q19 19 45 19h51q25 0 30 -14t-14 -31l-551 -518l582 -789q14 -19 7 -32t-30 -13h-63q-29 0 -45 23l-539 729l-270 -252v-463q0 -37 -37 -37zM618 -475h-18q-33 0 -18 37l106 272q12 27 39 27h59
q20 0 27 -12t-4 -29l-154 -271q-12 -24 -37 -24z" />
    <glyph glyph-name="uni0137" unicode="&#x137;" horiz-adv-x="1034" 
d="M250 0h-37q-37 0 -37 37v1397q0 36 37 36h37q37 0 37 -36v-985l522 487q18 18 45 18h47q25 0 31 -14t-12 -31l-359 -331l395 -533q14 -19 7.5 -32t-29.5 -13h-53q-29 0 -45 23l-357 479l-192 -180v-285q0 -37 -37 -37zM438 -475h-18q-34 0 -19 37l107 272q12 27 39 27h59
q20 0 27 -12t-4 -29l-154 -271q-12 -24 -37 -24z" />
    <glyph glyph-name="kgreenlandic" unicode="&#x138;" horiz-adv-x="1034" 
d="M250 0h-37q-37 0 -37 37v881q0 36 37 36h37q37 0 37 -36v-469l522 487q18 18 45 18h47q25 0 31 -14t-12 -31l-359 -331l395 -533q14 -19 7.5 -32t-29.5 -13h-53q-29 0 -45 23l-357 479l-192 -180v-285q0 -37 -37 -37z" />
    <glyph glyph-name="Lacute" unicode="&#x139;" horiz-adv-x="1241" 
d="M240 1587h-21q-17 0 -21 12.5t7 24.5l209 223q16 19 43 19h73q24 0 28.5 -13t-13.5 -30l-258 -219q-24 -17 -47 -17zM1114 0h-856q-37 0 -37 37v1323q0 37 37 37h45q37 0 37 -37v-1266h774q37 0 37 -37v-20q0 -37 -37 -37z" />
    <glyph glyph-name="lacute" unicode="&#x13a;" horiz-adv-x="462" 
d="M190 1651h-20q-17 0 -21 12.5t7 24.5l209 223q15 18 43 18h73q23 0 28.5 -14.5t-13.5 -28.5l-258 -219q-22 -16 -48 -16zM250 0h-37q-37 0 -37 37v1397q0 36 37 36h37q37 0 37 -36v-1397q0 -37 -37 -37z" />
    <glyph glyph-name="uni013B" unicode="&#x13b;" horiz-adv-x="1241" 
d="M1114 0h-856q-37 0 -37 37v1323q0 37 37 37h45q37 0 37 -37v-1266h774q37 0 37 -37v-20q0 -37 -37 -37zM563 -475h-18q-34 0 -19 37l107 272q12 27 39 27h59q20 0 27 -12t-4 -29l-154 -271q-12 -24 -37 -24z" />
    <glyph glyph-name="uni013C" unicode="&#x13c;" horiz-adv-x="462" 
d="M250 0h-37q-37 0 -37 37v1397q0 36 37 36h37q37 0 37 -36v-1397q0 -37 -37 -37zM109 -475h-19q-33 0 -18 37l106 272q12 27 39 27h59q20 0 27 -12t-4 -29l-154 -271q-12 -24 -36 -24z" />
    <glyph glyph-name="Lcaron" unicode="&#x13d;" horiz-adv-x="1241" 
d="M1114 0h-856q-37 0 -37 37v1323q0 37 37 37h45q37 0 37 -37v-1266h774q37 0 37 -37v-20q0 -37 -37 -37zM668 1004h-15q-32 0 -20 34l98 330q10 29 39 29h49q20 0 27.5 -12t-0.5 -29l-141 -326q-12 -26 -37 -26z" />
    <glyph glyph-name="lcaron" unicode="&#x13e;" horiz-adv-x="462" 
d="M250 0h-37q-37 0 -37 37v1397q0 36 37 36h37q37 0 37 -36v-1397q0 -37 -37 -37zM389 1077h-14q-33 0 -21 35l99 330q9 28 39 28h49q20 0 27 -11.5t-1 -28.5l-141 -326q-12 -27 -37 -27z" />
    <glyph glyph-name="Lslash" unicode="&#x141;" horiz-adv-x="1241" 
d="M340 94h774q37 0 37 -37v-20q0 -37 -37 -37h-856q-37 0 -37 37v395l-178 -125q-17 -12 -30 -4.5t-13 27.5v35q0 25 23 41l198 139v815q0 37 37 37h45q37 0 37 -37v-733l485 338q17 12 30 4.5t13 -27.5v-35q0 -25 -22 -41l-506 -352v-420z" />
    <glyph glyph-name="lslash" unicode="&#x142;" horiz-adv-x="686" 
d="M401 772l154 113q17 12 30 5.5t13 -26.5v-26q0 -29 -20 -43l-177 -129v-629q0 -37 -36 -37h-37q-37 0 -37 37v549l-154 -113q-17 -12 -30 -4.5t-13 27.5v24q0 28 21 43l176 129v742q0 36 37 36h37q36 0 36 -36v-662z" />
    <glyph glyph-name="Nacute" unicode="&#x143;" horiz-adv-x="1630" 
d="M774 1587h-20q-17 0 -21.5 12.5t6.5 24.5l209 223q16 19 43 19h74q24 0 28 -13t-14 -30l-258 -219q-24 -17 -47 -17zM287 0h-29q-37 0 -37 37v1335q0 37 37 37h18q29 0 46 -20l985 -1180v1151q0 37 36 37h29q37 0 37 -37v-1335q0 -37 -35 -37h-8q-28 0 -45 20l-997 1194
v-1165q0 -37 -37 -37z" />
    <glyph glyph-name="nacute" unicode="&#x144;" horiz-adv-x="1122" 
d="M520 1155h-20q-17 0 -21.5 12.5t6.5 24.5l209 223q16 19 43 19h74q23 0 28 -15t-14 -28l-258 -220q-22 -16 -47 -16zM627 975q159 0 247.5 -96.5t88.5 -270.5v-571q0 -37 -37 -37h-37q-37 0 -37 37v559q0 139 -62.5 213t-181.5 74q-147 0 -234 -111t-87 -297v-438
q0 -37 -37 -37h-37q-37 0 -37 37v881q0 36 37 36h29q37 0 37 -36v-170q44 109 134 168t214 59z" />
    <glyph glyph-name="uni0145" unicode="&#x145;" horiz-adv-x="1630" 
d="M287 0h-29q-37 0 -37 37v1335q0 37 37 37h18q29 0 46 -20l985 -1180v1151q0 37 36 37h29q37 0 37 -37v-1335q0 -37 -35 -37h-8q-28 0 -45 20l-997 1194v-1165q0 -37 -37 -37zM692 -475h-18q-34 0 -19 37l107 272q12 27 39 27h59q20 0 27 -12t-4 -29l-154 -271
q-12 -24 -37 -24z" />
    <glyph glyph-name="uni0146" unicode="&#x146;" horiz-adv-x="1122" 
d="M627 975q159 0 247.5 -96.5t88.5 -270.5v-571q0 -37 -37 -37h-37q-37 0 -37 37v559q0 139 -62.5 213t-181.5 74q-147 0 -234 -111t-87 -297v-438q0 -37 -37 -37h-37q-37 0 -37 37v881q0 36 37 36h29q37 0 37 -36v-170q44 109 134 168t214 59zM547 -139h59q20 0 27 -12
t-4 -29l-154 -271q-12 -24 -37 -24h-18q-34 0 -19 37l107 272q12 27 39 27z" />
    <glyph glyph-name="Ncaron" unicode="&#x147;" horiz-adv-x="1630" 
d="M844 1587h-58q-28 0 -43 21l-180 219q-12 13 -8.5 26t20.5 13h21q26 0 43 -17l176 -163l176 163q17 17 43 17h21q17 0 20.5 -13t-8.5 -26l-180 -219q-15 -21 -43 -21zM287 0h-29q-37 0 -37 37v1335q0 37 37 37h18q29 0 46 -20l985 -1180v1151q0 37 36 37h29q37 0 37 -37
v-1335q0 -37 -35 -37h-8q-28 0 -45 20l-997 1194v-1165q0 -37 -37 -37z" />
    <glyph glyph-name="ncaron" unicode="&#x148;" horiz-adv-x="1122" 
d="M489 1176l-180 219q-12 13 -8 26t21 13h20q26 0 43 -17l176 -164l176 164q17 17 43 17h21q17 0 20.5 -13t-8.5 -26l-180 -219q-15 -21 -43 -21h-58q-28 0 -43 21zM627 975q159 0 247.5 -96.5t88.5 -270.5v-571q0 -37 -37 -37h-37q-37 0 -37 37v559q0 139 -62.5 213
t-181.5 74q-147 0 -234 -111t-87 -297v-438q0 -37 -37 -37h-37q-37 0 -37 37v881q0 36 37 36h29q37 0 37 -36v-170q44 109 134 168t214 59z" />
    <glyph glyph-name="napostrophe" unicode="&#x149;" horiz-adv-x="1122" 
d="M109 1470h59q41 0 27 -38l-107 -320q-9 -31 -39 -31h-14q-31 0 -25 35l60 324q6 30 39 30zM627 975q159 0 247.5 -96.5t88.5 -270.5v-571q0 -37 -37 -37h-37q-37 0 -37 37v559q0 139 -62.5 213t-181.5 74q-147 0 -234 -111t-87 -297v-438q0 -37 -37 -37h-37q-37 0 -37 37
v881q0 36 37 36h29q37 0 37 -36v-170q44 109 134 168t214 59z" />
    <glyph glyph-name="Eng" unicode="&#x14a;" horiz-adv-x="1630" 
d="M1307 221v1139q0 37 36 37h29q37 0 37 -37v-1442q0 -161 -70.5 -260.5t-201.5 -124.5q-37 -6 -43 29l-4 24q-6 34 28 43q94 23 134 91t40 208q0 80 -13 118t-62 97l-893 1059v-1165q0 -37 -37 -37h-29q-37 0 -37 37v1335q0 37 37 37h18q29 0 46 -20z" />
    <glyph glyph-name="eng" unicode="&#x14b;" horiz-adv-x="1122" 
d="M627 975q159 0 247.5 -96.5t88.5 -270.5v-667q0 -411 -289 -435q-35 -3 -41 33l-2 12q-6 37 35 43q99 13 142.5 90t43.5 234v678q0 139 -62.5 213t-181.5 74q-147 0 -234 -111t-87 -297v-438q0 -37 -37 -37h-37q-37 0 -37 37v881q0 36 37 36h29q37 0 37 -36v-170
q44 109 134 168t214 59z" />
    <glyph glyph-name="Omacron" unicode="&#x14c;" horiz-adv-x="1716" 
d="M1085 1677h-454q-35 0 -35 35v29q0 35 35 35h454q35 0 35 -35v-29q0 -35 -35 -35zM1376 182q-202 -202 -518 -202q-317 0 -516 202q-203 200 -203 516t203 519q200 200 516 200q318 0 518 -200q201 -201 201 -519q0 -315 -201 -516zM432 248q162 -174 426 -174
q263 0 428 174q164 173 164 450t-164 453q-166 172 -428 172q-263 0 -426 -172q-166 -175 -166 -453t166 -450z" />
    <glyph glyph-name="omacron" unicode="&#x14d;" horiz-adv-x="1179" 
d="M817 1245h-455q-34 0 -34 35v29q0 34 34 34h455q35 0 35 -34v-29q0 -35 -35 -35zM936 119q-133 -139 -346 -139t-346 139t-133 358q0 222 133 361q131 137 346 137t346 -137q133 -139 133 -361q0 -219 -133 -358zM330 180q99 -114 260 -114q160 0 262 114q98 113 98 297
t-98 297q-103 115 -262 115q-160 0 -260 -115q-101 -113 -101 -297t101 -297z" />
    <glyph glyph-name="Obreve" unicode="&#x14e;" horiz-adv-x="1716" 
d="M1112 1806q-67 -198 -254 -198t-254 198q-12 43 25 43h22q30 0 39 -28q37 -111 168 -111q130 0 168 111q9 28 39 28h22q37 0 25 -43zM1376 182q-202 -202 -518 -202q-317 0 -516 202q-203 200 -203 516t203 519q200 200 516 200q318 0 518 -200q201 -201 201 -519
q0 -315 -201 -516zM432 248q162 -174 426 -174q263 0 428 174q164 173 164 450t-164 453q-166 172 -428 172q-263 0 -426 -172q-166 -175 -166 -453t166 -450z" />
    <glyph glyph-name="obreve" unicode="&#x14f;" horiz-adv-x="1179" 
d="M844 1374q-67 -198 -254 -198t-254 198q-12 43 24 43h23q30 0 39 -28q37 -111 168 -111q130 0 168 111q9 28 39 28h22q37 0 25 -43zM936 119q-133 -139 -346 -139t-346 139t-133 358q0 222 133 361q131 137 346 137t346 -137q133 -139 133 -361q0 -219 -133 -358z
M330 180q99 -114 260 -114q160 0 262 114q98 113 98 297t-98 297q-103 115 -262 115q-160 0 -260 -115q-101 -113 -101 -297t101 -297z" />
    <glyph glyph-name="Ohungarumlaut" unicode="&#x150;" horiz-adv-x="1716" 
d="M676 1587h-21q-17 0 -23 11.5t5 25.5l158 219q16 23 43 23h61q24 0 30 -13t-11 -30l-201 -217q-19 -19 -41 -19zM1030 1587h-20q-17 0 -22 11.5t3 25.5l158 219q16 23 43 23h61q24 0 30 -13t-11 -30l-201 -217q-19 -19 -41 -19zM1376 182q-202 -202 -518 -202
q-317 0 -516 202q-203 200 -203 516t203 519q200 200 516 200q318 0 518 -200q201 -201 201 -519q0 -315 -201 -516zM432 248q162 -174 426 -174q263 0 428 174q164 173 164 450t-164 453q-166 172 -428 172q-263 0 -426 -172q-166 -175 -166 -453t166 -450z" />
    <glyph glyph-name="ohungarumlaut" unicode="&#x151;" horiz-adv-x="1179" 
d="M408 1155h-21q-34 0 -18 37l157 219q16 23 43 23h62q24 0 29.5 -13t-11.5 -30l-200 -217q-19 -19 -41 -19zM762 1155h-21q-18 0 -23 10t5 27l158 219q16 23 43 23h61q24 0 30 -13t-11 -30l-201 -217q-19 -19 -41 -19zM936 119q-133 -139 -346 -139t-346 139t-133 358
q0 222 133 361q131 137 346 137t346 -137q133 -139 133 -361q0 -219 -133 -358zM330 180q99 -114 260 -114q160 0 262 114q98 113 98 297t-98 297q-103 115 -262 115q-160 0 -260 -115q-101 -113 -101 -297t101 -297z" />
    <glyph glyph-name="OE" unicode="&#x152;" horiz-adv-x="2111" 
d="M1944 0h-1092q-329 0 -520 188t-191 510q0 324 191 512q190 187 520 187h1092q36 0 36 -37v-21q0 -36 -36 -36h-754v-531h643q37 0 37 -37v-20q0 -37 -37 -37h-643v-584h754q36 0 36 -37v-20q0 -37 -36 -37zM870 94h201v1209h-201q-287 0 -444.5 -158t-157.5 -447
t157.5 -446.5t444.5 -157.5z" />
    <glyph glyph-name="oe" unicode="&#x153;" horiz-adv-x="1974" 
d="M1427 975q202 0 321.5 -124t119.5 -335v-27q0 -34 -39 -34h-764q7 -187 115.5 -288t279.5 -101q177 0 314 122q30 27 53 -2l10 -12q23 -29 -4 -53q-159 -141 -385 -141q-160 0 -272.5 68t-167.5 194q-56 -125 -164 -193.5t-254 -68.5q-213 0 -346 139t-133 358
q0 222 133 361q131 137 346 137q146 0 254 -68.5t164 -193.5q55 124 163 193t256 69zM330 180q99 -114 260 -114q160 0 262 114q98 113 98 297t-98 297q-103 115 -262 115q-160 0 -260 -115q-101 -113 -101 -297t101 -297zM1069 541h684q-7 172 -96 260t-230 88
t-240.5 -92.5t-117.5 -255.5z" />
    <glyph glyph-name="Racute" unicode="&#x154;" horiz-adv-x="1400" 
d="M657 1587h-20q-17 0 -21 12.5t7 24.5l208 223q16 19 43 19h74q24 0 28.5 -13t-13.5 -30l-258 -219q-24 -17 -48 -17zM836 629l430 -584q14 -19 7 -32t-30 -13h-63q-29 0 -45 23l-447 604h-348v-590q0 -37 -37 -37h-45q-37 0 -37 37v1323q0 37 37 37h537q204 0 317 -101
t113 -284q0 -174 -102 -275t-287 -108zM774 1303h-434v-582h434q326 0 326 291t-326 291z" />
    <glyph glyph-name="racute" unicode="&#x155;" horiz-adv-x="751" 
d="M358 1155h-20q-17 0 -21 12.5t7 24.5l208 223q16 19 43 19h74q23 0 28.5 -15t-13.5 -28l-258 -220q-22 -16 -48 -16zM666 973q36 -3 30 -43l-4 -23q-6 -36 -43 -30q-10 2 -45 2q-146 0 -231.5 -115.5t-85.5 -312.5v-414q0 -37 -37 -37h-37q-37 0 -37 37v881q0 36 37 36
h29q37 0 37 -36v-179q88 236 346 236q27 0 41 -2z" />
    <glyph glyph-name="uni0156" unicode="&#x156;" horiz-adv-x="1400" 
d="M836 629l430 -584q14 -19 7 -32t-30 -13h-63q-29 0 -45 23l-447 604h-348v-590q0 -37 -37 -37h-45q-37 0 -37 37v1323q0 37 37 37h537q204 0 317 -101t113 -284q0 -174 -102 -275t-287 -108zM774 1303h-434v-582h434q326 0 326 291t-326 291zM721 -139h59q20 0 27 -12
t-4 -29l-154 -271q-12 -24 -37 -24h-18q-34 0 -19 37l107 272q12 27 39 27z" />
    <glyph glyph-name="uni0157" unicode="&#x157;" horiz-adv-x="751" 
d="M666 973q36 -3 30 -43l-4 -23q-6 -36 -43 -30q-10 2 -45 2q-146 0 -231.5 -115.5t-85.5 -312.5v-414q0 -37 -37 -37h-37q-37 0 -37 37v881q0 36 37 36h29q37 0 37 -36v-179q88 236 346 236q27 0 41 -2zM217 -139h59q20 0 27 -12t-4 -29l-154 -271q-12 -24 -36 -24h-19
q-33 0 -18 37l106 272q12 27 39 27z" />
    <glyph glyph-name="Rcaron" unicode="&#x158;" horiz-adv-x="1400" 
d="M627 1608l-181 219q-12 13 -8 26t21 13h20q26 0 43 -17l176 -163l176 163q17 17 44 17h20q17 0 20.5 -13t-8.5 -26l-180 -219q-15 -21 -43 -21h-57q-28 0 -43 21zM836 629l430 -584q14 -19 7 -32t-30 -13h-63q-29 0 -45 23l-447 604h-348v-590q0 -37 -37 -37h-45
q-37 0 -37 37v1323q0 37 37 37h537q204 0 317 -101t113 -284q0 -174 -102 -275t-287 -108zM774 1303h-434v-582h434q326 0 326 291t-326 291z" />
    <glyph glyph-name="rcaron" unicode="&#x159;" horiz-adv-x="751" 
d="M428 1155h-57q-28 0 -43 21l-181 219q-12 13 -8 26t21 13h20q26 0 43 -17l176 -164l176 164q17 17 43 17h21q17 0 20.5 -13t-8.5 -26l-180 -219q-15 -21 -43 -21zM666 973q36 -3 30 -43l-4 -23q-6 -36 -43 -30q-10 2 -45 2q-146 0 -231.5 -115.5t-85.5 -312.5v-414
q0 -37 -37 -37h-37q-37 0 -37 37v881q0 36 37 36h29q37 0 37 -36v-179q88 236 346 236q27 0 41 -2z" />
    <glyph glyph-name="Sacute" unicode="&#x15a;" horiz-adv-x="1259" 
d="M598 1587h-20q-17 0 -21.5 12.5t6.5 24.5l209 223q16 19 43 19h74q24 0 28 -13t-14 -30l-258 -219q-24 -17 -47 -17zM639 -20q-288 0 -492 155q-27 21 -6 51l15 19q21 27 51 6q189 -137 414 -137q177 0 285 79.5t108 208.5q0 121 -76 179q-74 56 -305 106
q-260 58 -365 144q-104 85 -104 243q0 175 131 279q128 104 344 104q224 0 399 -102q31 -19 13 -49l-15 -23q-18 -27 -49 -12q-160 92 -346 92q-160 0 -259 -75.5t-99 -196.5q0 -120 77 -179q78 -60 302 -106q257 -54 362.5 -141.5t105.5 -245.5q0 -182 -133 -291
q-135 -108 -358 -108z" />
    <glyph glyph-name="sacute" unicode="&#x15b;" horiz-adv-x="964" 
d="M446 1155h-20q-17 0 -21 12.5t7 24.5l209 223q16 19 43 19h73q23 0 28.5 -15t-13.5 -28l-258 -220q-22 -16 -48 -16zM475 -20q-203 0 -358 110q-28 22 -8 51l10 15q22 31 51 8q131 -98 307 -98q125 0 195.5 49t70.5 137q0 78 -53.5 113.5t-206.5 60.5q-195 31 -272.5 91
t-77.5 181q0 127 99 202t266 75q155 0 288 -74q34 -18 15 -49l-10 -16q-20 -29 -50 -11q-101 64 -247 64q-117 0 -183.5 -47t-66.5 -129q0 -75 55.5 -112t208.5 -62q188 -29 267 -91.5t79 -181.5q0 -131 -103 -208.5t-276 -77.5z" />
    <glyph glyph-name="Scircumflex" unicode="&#x15c;" horiz-adv-x="1259" 
d="M420 1587h-21q-17 0 -20.5 12.5t8.5 26.5l180 219q15 21 43 21h58q28 0 43 -21l180 -219q12 -14 8.5 -26.5t-20.5 -12.5h-21q-26 0 -43 17l-176 163l-176 -163q-17 -17 -43 -17zM639 -20q-288 0 -492 155q-27 21 -6 51l15 19q21 27 51 6q189 -137 414 -137
q177 0 285 79.5t108 208.5q0 121 -76 179q-74 56 -305 106q-260 58 -365 144q-104 85 -104 243q0 175 131 279q128 104 344 104q224 0 399 -102q31 -19 13 -49l-15 -23q-18 -27 -49 -12q-160 92 -346 92q-160 0 -259 -75.5t-99 -196.5q0 -120 77 -179q78 -60 302 -106
q257 -54 362.5 -141.5t105.5 -245.5q0 -182 -133 -291q-135 -108 -358 -108z" />
    <glyph glyph-name="scircumflex" unicode="&#x15d;" horiz-adv-x="964" 
d="M268 1155h-20q-17 0 -20.5 12.5t8.5 26.5l180 219q15 21 43 21h57q28 0 43 -21l180 -219q12 -14 8.5 -26.5t-20.5 -12.5h-20q-27 0 -43 16l-177 164l-176 -164q-16 -16 -43 -16zM475 -20q-203 0 -358 110q-28 22 -8 51l10 15q22 31 51 8q131 -98 307 -98q125 0 195.5 49
t70.5 137q0 78 -53.5 113.5t-206.5 60.5q-195 31 -272.5 91t-77.5 181q0 127 99 202t266 75q155 0 288 -74q34 -18 15 -49l-10 -16q-20 -29 -50 -11q-101 64 -247 64q-117 0 -183.5 -47t-66.5 -129q0 -75 55.5 -112t208.5 -62q188 -29 267 -91.5t79 -181.5
q0 -131 -103 -208.5t-276 -77.5z" />
    <glyph glyph-name="Scedilla" unicode="&#x15e;" horiz-adv-x="1259" 
d="M1130 379q0 -173 -122.5 -280.5t-329.5 -118.5l-55 -136q12 2 43 2q78 0 123 -38.5t45 -104.5q0 -78 -60 -121t-166 -43q-108 0 -176 39q-29 16 -14 43l6 10q17 27 45 11q64 -31 137 -31q125 0 125 88q0 78 -106 78q-17 0 -37 -4q-24 -9 -45 12l-4 4q-15 15 -2 43l63 148
q-261 9 -453 155q-27 21 -6 51l15 19q21 27 51 6q189 -137 414 -137q177 0 285 79.5t108 208.5q0 121 -76 179q-74 56 -305 106q-260 58 -365 144q-104 85 -104 243q0 175 131 279q128 104 344 104q224 0 399 -102q31 -19 13 -49l-15 -23q-18 -27 -49 -12q-160 92 -346 92
q-160 0 -259 -75.5t-99 -196.5q0 -120 77 -179q78 -60 302 -106q257 -54 362.5 -141.5t105.5 -245.5z" />
    <glyph glyph-name="scedilla" unicode="&#x15f;" horiz-adv-x="964" 
d="M854 266q0 -121 -88 -197t-240 -87l-55 -138q12 2 43 2q78 0 123 -38.5t45 -104.5q0 -78 -59.5 -121t-165.5 -43q-108 0 -176 39q-30 17 -15 43l6 10q17 27 45 11q64 -31 138 -31q125 0 125 88q0 78 -107 78q-17 0 -37 -4q-24 -9 -45 12l-4 4q-15 15 -2 43l64 148
q-186 6 -332 110q-28 22 -8 51l10 15q22 31 51 8q131 -98 307 -98q125 0 195.5 49t70.5 137q0 78 -53.5 113.5t-206.5 60.5q-195 31 -272.5 91t-77.5 181q0 127 99 202t266 75q155 0 288 -74q34 -18 15 -49l-10 -16q-20 -29 -50 -11q-101 64 -247 64q-117 0 -183.5 -47
t-66.5 -129q0 -75 55.5 -112t208.5 -62q188 -29 267 -91.5t79 -181.5z" />
    <glyph glyph-name="Scaron" unicode="&#x160;" horiz-adv-x="1259" 
d="M668 1587h-58q-28 0 -43 21l-180 219q-12 13 -8.5 26t20.5 13h21q26 0 43 -17l176 -163l176 163q17 17 43 17h21q17 0 20.5 -13t-8.5 -26l-180 -219q-15 -21 -43 -21zM639 -20q-288 0 -492 155q-27 21 -6 51l15 19q21 27 51 6q189 -137 414 -137q177 0 285 79.5
t108 208.5q0 121 -76 179q-74 56 -305 106q-260 58 -365 144q-104 85 -104 243q0 175 131 279q128 104 344 104q224 0 399 -102q31 -19 13 -49l-15 -23q-18 -27 -49 -12q-160 92 -346 92q-160 0 -259 -75.5t-99 -196.5q0 -120 77 -179q78 -60 302 -106q257 -54 362.5 -141.5
t105.5 -245.5q0 -182 -133 -291q-135 -108 -358 -108z" />
    <glyph glyph-name="scaron" unicode="&#x161;" horiz-adv-x="964" 
d="M516 1155h-57q-28 0 -43 21l-180 219q-12 13 -8.5 26t20.5 13h20q26 0 43 -17l176 -164l177 164q17 17 43 17h20q17 0 20.5 -13t-8.5 -26l-180 -219q-15 -21 -43 -21zM475 -20q-203 0 -358 110q-28 22 -8 51l10 15q22 31 51 8q131 -98 307 -98q125 0 195.5 49t70.5 137
q0 78 -53.5 113.5t-206.5 60.5q-195 31 -272.5 91t-77.5 181q0 127 99 202t266 75q155 0 288 -74q34 -18 15 -49l-10 -16q-20 -29 -50 -11q-101 64 -247 64q-117 0 -183.5 -47t-66.5 -129q0 -75 55.5 -112t208.5 -62q188 -29 267 -91.5t79 -181.5q0 -131 -103 -208.5
t-276 -77.5z" />
    <glyph glyph-name="uni0162" unicode="&#x162;" horiz-adv-x="1306" 
d="M127 1397h1053q37 0 37 -37v-21q0 -36 -37 -36h-467v-1266q0 -14 -6 -23l-70 -170q12 2 43 2q78 0 123 -38.5t45 -104.5q0 -78 -59.5 -121t-165.5 -43q-109 0 -177 39q-29 16 -14 43l6 10q17 27 45 11q64 -31 138 -31q124 0 124 88q0 78 -106 78q-17 0 -37 -4
q-24 -9 -45 12l-4 4q-15 15 -2 43l74 168q-31 3 -31 37v1266h-467q-37 0 -37 36v21q0 37 37 37z" />
    <glyph glyph-name="uni0163" unicode="&#x163;" horiz-adv-x="749" 
d="M680 74l6 -13q15 -34 -16 -49q-60 -32 -150 -32q-51 0 -82 8l-59 -144q12 2 43 2q78 0 123 -38.5t45 -104.5q0 -78 -59.5 -121t-165.5 -43q-109 0 -177 39q-29 16 -14 43l6 10q17 27 45 11q64 -31 137 -31q125 0 125 88q0 78 -106 78q-17 0 -37 -4q-24 -9 -45 12l-4 4
q-15 15 -2 43l80 182q-101 58 -101 224v630h-182q-37 0 -37 37v13q0 36 37 36h182v238q0 33 27 45l41 20q19 8 31 0t12 -28v-275h240q36 0 36 -36v-13q0 -37 -36 -37h-240v-641q0 -161 141 -161q58 0 107 24q34 15 49 -16z" />
    <glyph glyph-name="Tcaron" unicode="&#x164;" horiz-adv-x="1306" 
d="M682 1587h-57q-28 0 -43 21l-181 219q-12 13 -8 26t21 13h20q26 0 43 -17l176 -163l176 163q17 17 43 17h21q17 0 20.5 -13t-8.5 -26l-180 -219q-15 -21 -43 -21zM676 0h-45q-37 0 -37 37v1266h-467q-37 0 -37 36v21q0 37 37 37h1053q37 0 37 -37v-21q0 -36 -37 -36h-467
v-1266q0 -37 -37 -37z" />
    <glyph glyph-name="tcaron" unicode="&#x165;" horiz-adv-x="749" 
d="M629 1470h49q20 0 27.5 -11.5t-0.5 -28.5l-142 -326q-12 -27 -37 -27h-14q-32 0 -20 35l98 330q9 28 39 28zM680 74l6 -13q15 -34 -16 -49q-60 -32 -150 -32q-248 0 -248 258v630h-182q-37 0 -37 37v13q0 36 37 36h182v238q0 33 27 45l41 20q19 8 31 0t12 -28v-275h240
q36 0 36 -36v-13q0 -37 -36 -37h-240v-641q0 -161 141 -161q58 0 107 24q34 15 49 -16z" />
    <glyph glyph-name="Tbar" unicode="&#x166;" horiz-adv-x="1306" 
d="M127 1397h1053q37 0 37 -37v-21q0 -36 -37 -36h-467v-560h317q35 0 35 -34v-21q0 -35 -35 -35h-317v-616q0 -37 -37 -37h-45q-37 0 -37 37v616h-318q-34 0 -34 35v21q0 34 34 34h318v560h-467q-37 0 -37 36v21q0 37 37 37z" />
    <glyph glyph-name="tbar" unicode="&#x167;" horiz-adv-x="749" 
d="M680 74l6 -13q15 -34 -16 -49q-60 -32 -150 -32q-248 0 -248 258v198h-149q-23 0 -23 31v18q0 33 23 33h149v350h-182q-37 0 -37 37v13q0 36 37 36h182v238q0 33 27 45l41 20q19 8 31 0t12 -28v-275h240q36 0 36 -36v-13q0 -37 -36 -37h-240v-350h190q23 0 23 -33v-18
q0 -31 -23 -31h-190v-209q0 -161 141 -161q58 0 107 24q34 15 49 -16z" />
    <glyph glyph-name="Utilde" unicode="&#x168;" horiz-adv-x="1542" 
d="M547 1630h-19q-35 0 -26 39q19 72 63 114t101 42q64 0 137 -58q50 -41 84 -41q55 0 76 68q9 31 34 31h19q35 0 26 -39q-19 -72 -62.5 -114t-100.5 -42q-74 0 -138 58q-50 41 -84 41q-54 0 -75 -68q-9 -31 -35 -31zM778 -20q-317 0 -448 143q-133 145 -133 407v830
q0 37 36 37h46q36 0 36 -37v-809q0 -243 109 -358t362 -115q247 0 353 114.5t106 358.5v809q0 37 37 37h27q37 0 37 -37v-830q0 -277 -134.5 -413.5t-433.5 -136.5z" />
    <glyph glyph-name="utilde" unicode="&#x169;" horiz-adv-x="1122" 
d="M336 1198h-19q-35 0 -26 39q19 72 63 114t101 42q64 0 137 -58q50 -41 84 -41q55 0 76 68q9 31 34 31h19q35 0 26 -39q-19 -72 -62.5 -114t-100.5 -42q-75 0 -138 57q-50 41 -84 41q-54 0 -75 -67q-9 -31 -35 -31zM872 954h37q37 0 37 -36v-881q0 -37 -37 -37h-28
q-37 0 -37 37v170q-44 -109 -134 -168t-214 -59q-160 0 -248 96.5t-88 269.5v572q0 36 37 36h36q37 0 37 -36v-560q0 -139 62.5 -212.5t181.5 -73.5q148 0 235 110.5t87 296.5v439q0 36 36 36z" />
    <glyph glyph-name="Umacron" unicode="&#x16a;" horiz-adv-x="1542" 
d="M999 1677h-454q-35 0 -35 35v29q0 35 35 35h454q35 0 35 -35v-29q0 -35 -35 -35zM778 -20q-317 0 -448 143q-133 145 -133 407v830q0 37 36 37h46q36 0 36 -37v-809q0 -243 109 -358t362 -115q247 0 353 114.5t106 358.5v809q0 37 37 37h27q37 0 37 -37v-830
q0 -277 -134.5 -413.5t-433.5 -136.5z" />
    <glyph glyph-name="umacron" unicode="&#x16b;" horiz-adv-x="1122" 
d="M788 1245h-454q-35 0 -35 35v29q0 34 35 34h454q35 0 35 -34v-29q0 -35 -35 -35zM872 954h37q37 0 37 -36v-881q0 -37 -37 -37h-28q-37 0 -37 37v170q-44 -109 -134 -168t-214 -59q-160 0 -248 96.5t-88 269.5v572q0 36 37 36h36q37 0 37 -36v-560q0 -139 62.5 -212.5
t181.5 -73.5q148 0 235 110.5t87 296.5v439q0 36 36 36z" />
    <glyph glyph-name="Ubreve" unicode="&#x16c;" horiz-adv-x="1542" 
d="M1026 1806q-67 -198 -254 -198t-254 198q-12 43 25 43h22q30 0 39 -28q38 -111 168 -111t168 111q9 28 39 28h22q37 0 25 -43zM778 -20q-317 0 -448 143q-133 145 -133 407v830q0 37 36 37h46q36 0 36 -37v-809q0 -243 109 -358t362 -115q247 0 353 114.5t106 358.5v809
q0 37 37 37h27q37 0 37 -37v-830q0 -277 -134.5 -413.5t-433.5 -136.5z" />
    <glyph glyph-name="ubreve" unicode="&#x16d;" horiz-adv-x="1122" 
d="M815 1374q-67 -198 -254 -198t-254 198q-12 43 25 43h22q30 0 39 -28q37 -111 168 -111t168 111q9 28 39 28h23q36 0 24 -43zM872 954h37q37 0 37 -36v-881q0 -37 -37 -37h-28q-37 0 -37 37v170q-44 -109 -134 -168t-214 -59q-160 0 -248 96.5t-88 269.5v572q0 36 37 36
h36q37 0 37 -36v-560q0 -139 62.5 -212.5t181.5 -73.5q148 0 235 110.5t87 296.5v439q0 36 36 36z" />
    <glyph glyph-name="Uring" unicode="&#x16e;" horiz-adv-x="1542" 
d="M772 1542q-79 0 -134.5 54.5t-55.5 132.5t55 132t135 54q81 0 136 -54t55 -132t-55 -132.5t-136 -54.5zM698 1653q29 -31 74.5 -31t73.5 31q28 29 28 75.5t-28 77.5q-28 29 -73.5 29t-74.5 -29q-29 -31 -29 -77.5t29 -75.5zM778 -20q-317 0 -448 143q-133 145 -133 407
v830q0 37 36 37h46q36 0 36 -37v-809q0 -243 109 -358t362 -115q247 0 353 114.5t106 358.5v809q0 37 37 37h27q37 0 37 -37v-830q0 -277 -134.5 -413.5t-433.5 -136.5z" />
    <glyph glyph-name="uring" unicode="&#x16f;" horiz-adv-x="1122" 
d="M561 1110q-80 0 -135 54t-55 132t55.5 132.5t134.5 54.5q81 0 136 -54.5t55 -132.5t-55 -132t-136 -54zM635 1374q-28 29 -73.5 29t-74.5 -29q-29 -31 -29 -77.5t29 -75.5q29 -31 74.5 -31t73.5 31q28 29 28 75.5t-28 77.5zM872 954h37q37 0 37 -36v-881q0 -37 -37 -37
h-28q-37 0 -37 37v170q-44 -109 -134 -168t-214 -59q-160 0 -248 96.5t-88 269.5v572q0 36 37 36h36q37 0 37 -36v-560q0 -139 62.5 -212.5t181.5 -73.5q148 0 235 110.5t87 296.5v439q0 36 36 36z" />
    <glyph glyph-name="Uhungarumlaut" unicode="&#x170;" horiz-adv-x="1542" 
d="M590 1587h-21q-17 0 -23 11.5t5 25.5l158 219q16 23 43 23h61q24 0 29.5 -13t-11.5 -30l-200 -217q-19 -19 -41 -19zM944 1587h-20q-17 0 -22 11.5t3 25.5l158 219q16 23 43 23h61q24 0 30 -13t-11 -30l-201 -217q-19 -19 -41 -19zM778 -20q-317 0 -448 143
q-133 145 -133 407v830q0 37 36 37h46q36 0 36 -37v-809q0 -243 109 -358t362 -115q247 0 353 114.5t106 358.5v809q0 37 37 37h27q37 0 37 -37v-830q0 -277 -134.5 -413.5t-433.5 -136.5z" />
    <glyph glyph-name="uhungarumlaut" unicode="&#x171;" horiz-adv-x="1122" 
d="M379 1155h-21q-34 0 -18 37l158 219q16 23 43 23h61q24 0 30 -13t-11 -30l-201 -217q-19 -19 -41 -19zM895 1434h61q24 0 30 -13t-11 -30l-201 -217q-19 -19 -41 -19h-20q-18 0 -23.5 10t4.5 27l158 219q16 23 43 23zM872 954h37q37 0 37 -36v-881q0 -37 -37 -37h-28
q-37 0 -37 37v170q-44 -109 -134 -168t-214 -59q-160 0 -248 96.5t-88 269.5v572q0 36 37 36h36q37 0 37 -36v-560q0 -139 62.5 -212.5t181.5 -73.5q148 0 235 110.5t87 296.5v439q0 36 36 36z" />
    <glyph glyph-name="Uogonek" unicode="&#x172;" horiz-adv-x="1542" 
d="M1282 1397h27q37 0 37 -37v-830q0 -399 -285 -507l-98 -107q-97 -111 -97 -188q0 -50 28 -77.5t79 -27.5q53 0 94 21q32 14 47 -15l6 -14q12 -31 -20 -45q-70 -31 -131 -31q-96 0 -148.5 44t-52.5 124q0 114 137 248l39 37q-77 -12 -166 -12q-317 0 -448 143
q-133 145 -133 407v830q0 37 36 37h46q36 0 36 -37v-809q0 -243 109 -358t362 -115q247 0 353 114.5t106 358.5v809q0 37 37 37z" />
    <glyph glyph-name="uogonek" unicode="&#x173;" horiz-adv-x="1122" 
d="M989 -371l6 -14q12 -31 -20 -45q-70 -31 -131 -31q-96 0 -148.5 44t-52.5 124q0 114 137 248l68 65q-4 12 -4 17v170q-44 -109 -134 -168t-214 -59q-160 0 -248 96.5t-88 269.5v572q0 36 37 36h36q37 0 37 -36v-560q0 -139 62.5 -212.5t181.5 -73.5q148 0 235 110.5
t87 296.5v439q0 36 36 36h37q37 0 37 -36v-881q0 -34 -31 -37l-77 -84q-97 -111 -97 -188q0 -50 28 -77.5t79 -27.5q54 0 94 21q34 15 47 -15z" />
    <glyph glyph-name="Wcircumflex" unicode="&#x174;" horiz-adv-x="2080" 
d="M821 1587h-20q-17 0 -21 12.5t8 26.5l181 219q15 21 43 21h57q28 0 43 -21l180 -219q12 -14 8.5 -26.5t-20.5 -12.5h-20q-26 0 -43 17l-177 163l-176 -163q-17 -17 -43 -17zM606 0h-33q-34 0 -43 31l-419 1325q-12 41 30 41h49q34 0 43 -31l367 -1163l391 1163
q9 31 43 31h29q34 0 43 -31l393 -1178l365 1178q9 31 43 31h32q43 0 31 -41l-418 -1325q-9 -31 -43 -31h-34q-34 0 -43 31l-390 1165l-393 -1165q-9 -31 -43 -31z" />
    <glyph glyph-name="wcircumflex" unicode="&#x175;" horiz-adv-x="1513" 
d="M539 1155h-21q-17 0 -20.5 12.5t8.5 26.5l180 219q15 21 43 21h57q28 0 43 -21l181 -219q12 -14 8 -26.5t-21 -12.5h-20q-27 0 -43 16l-176 164l-176 -164q-16 -16 -43 -16zM444 0h-10q-31 0 -41 29l-319 882q-12 43 28 43h43q32 0 41 -28l260 -733l269 733q9 28 41 28
h18q32 0 41 -28l268 -729l260 729q9 28 41 28h27q20 0 28.5 -12t2.5 -31l-322 -882q-10 -29 -41 -29h-10q-31 0 -41 29l-270 741l-273 -741q-10 -29 -41 -29z" />
    <glyph glyph-name="Ycircumflex" unicode="&#x176;" horiz-adv-x="1316" 
d="M440 1587h-20q-17 0 -20.5 12.5t8.5 26.5l180 219q15 21 43 21h57q28 0 43 -21l180 -219q12 -14 8.5 -26.5t-20.5 -12.5h-20q-26 0 -43 17l-177 163l-176 -163q-17 -17 -43 -17zM682 0h-45q-37 0 -37 37v565l-485 750q-12 20 -5.5 32.5t29.5 12.5h60q33 0 45 -25
l424 -663l426 663q16 25 45 25h39q23 0 29.5 -12.5t-5.5 -32.5l-483 -748v-567q0 -37 -37 -37z" />
    <glyph glyph-name="ycircumflex" unicode="&#x177;" horiz-adv-x="989" 
d="M276 1155h-20q-17 0 -20.5 12.5t8.5 26.5l180 219q15 21 43 21h57q28 0 43 -21l181 -219q12 -14 8 -26.5t-21 -12.5h-20q-27 0 -43 16l-176 164l-177 -164q-16 -16 -43 -16zM307 -475h-28q-20 0 -28.5 12t-0.5 31l194 459l-372 884q-8 19 0 31t28 12h43q31 0 43 -28
l316 -762l317 762q12 28 43 28h27q20 0 28.5 -12t0.5 -31l-568 -1357q-13 -29 -43 -29z" />
    <glyph glyph-name="Ydieresis" unicode="&#x178;" horiz-adv-x="1316" 
d="M518 1673q-20 -20 -53 -20t-53 20t-20 53.5t20 53.5t53 20t53 -20t20 -53.5t-20 -53.5zM907 1673q-20 -20 -53 -20t-53 20t-20 53.5t20 53.5t53 20t53 -20t20 -53.5t-20 -53.5zM682 0h-45q-37 0 -37 37v565l-485 750q-12 20 -5.5 32.5t29.5 12.5h60q33 0 45 -25l424 -663
l426 663q16 25 45 25h39q23 0 29.5 -12.5t-5.5 -32.5l-483 -748v-567q0 -37 -37 -37z" />
    <glyph glyph-name="Zacute" unicode="&#x179;" horiz-adv-x="1243" 
d="M598 1587h-20q-17 0 -21.5 12.5t6.5 24.5l209 223q16 19 43 19h74q24 0 28 -13t-14 -30l-258 -219q-24 -17 -47 -17zM1098 0h-959q-37 0 -37 35v10q0 24 15 45l856 1213h-793q-37 0 -37 36v21q0 37 37 37h918q37 0 37 -35v-10q0 -24 -15 -45l-856 -1213h834q37 0 37 -37
v-20q0 -37 -37 -37z" />
    <glyph glyph-name="zacute" unicode="&#x17a;" horiz-adv-x="946" 
d="M446 1155h-20q-17 0 -21 12.5t7 24.5l209 223q16 19 43 19h73q23 0 28.5 -15t-13.5 -28l-258 -220q-22 -16 -48 -16zM831 0h-725q-36 0 -36 33v6q0 28 16 47l625 782h-566q-36 0 -36 37v13q0 36 36 36h686q37 0 37 -32v-7q0 -28 -16 -47l-627 -782h606q37 0 37 -37v-12
q0 -37 -37 -37z" />
    <glyph glyph-name="Zdotaccent" unicode="&#x17b;" horiz-adv-x="1243" 
d="M692 1673q-20 -20 -53 -20t-53 20t-20 53.5t20 53.5t53 20t53 -20t20 -53.5t-20 -53.5zM1098 0h-959q-37 0 -37 35v10q0 24 15 45l856 1213h-793q-37 0 -37 36v21q0 37 37 37h918q37 0 37 -35v-10q0 -24 -15 -45l-856 -1213h834q37 0 37 -37v-20q0 -37 -37 -37z" />
    <glyph glyph-name="zdotaccent" unicode="&#x17c;" horiz-adv-x="946" 
d="M541 1241q-20 -20 -53.5 -20t-53.5 20t-20 53.5t20 53.5t53.5 20t53.5 -20t20 -53.5t-20 -53.5zM831 0h-725q-36 0 -36 33v6q0 28 16 47l625 782h-566q-36 0 -36 37v13q0 36 36 36h686q37 0 37 -32v-7q0 -28 -16 -47l-627 -782h606q37 0 37 -37v-12q0 -37 -37 -37z" />
    <glyph glyph-name="Zcaron" unicode="&#x17d;" horiz-adv-x="1243" 
d="M668 1587h-58q-28 0 -43 21l-180 219q-12 13 -8.5 26t20.5 13h21q26 0 43 -17l176 -163l176 163q17 17 43 17h21q17 0 20.5 -13t-8.5 -26l-180 -219q-15 -21 -43 -21zM1098 0h-959q-37 0 -37 35v10q0 24 15 45l856 1213h-793q-37 0 -37 36v21q0 37 37 37h918q37 0 37 -35
v-10q0 -24 -15 -45l-856 -1213h834q37 0 37 -37v-20q0 -37 -37 -37z" />
    <glyph glyph-name="zcaron" unicode="&#x17e;" horiz-adv-x="946" 
d="M516 1155h-57q-28 0 -43 21l-180 219q-12 13 -8.5 26t20.5 13h20q26 0 43 -17l176 -164l177 164q17 17 43 17h20q17 0 20.5 -13t-8.5 -26l-180 -219q-15 -21 -43 -21zM831 0h-725q-36 0 -36 33v6q0 28 16 47l625 782h-566q-36 0 -36 37v13q0 36 36 36h686q37 0 37 -32v-7
q0 -28 -16 -47l-627 -782h606q37 0 37 -37v-12q0 -37 -37 -37z" />
    <glyph glyph-name="florin" unicode="&#x192;" 
d="M860 1331q-180 0 -180 -217v-315h301q37 0 37 -37v-12q0 -37 -37 -37h-301v-559q0 -310 -283 -310q-82 0 -155 31q-38 15 -17 49l8 15q16 29 50 14q57 -23 106 -23q180 0 180 217v566h-301q-37 0 -37 37v12q0 37 37 37h301v309q0 309 283 309q83 0 156 -31q37 -15 16 -49
l-8 -14q-16 -28 -49 -14q-55 22 -107 22z" />
    <glyph glyph-name="AEacute" unicode="&#x1fc;" horiz-adv-x="2029" 
d="M987 1587h-20q-17 0 -21.5 12.5t6.5 24.5l209 223q16 19 43 19h74q24 0 28 -13t-14 -30l-258 -219q-24 -17 -47 -17zM1898 1360v-21q0 -36 -36 -36h-754v-531h643q37 0 37 -37v-20q0 -37 -37 -37h-643v-584h754q36 0 36 -37v-20q0 -37 -36 -37h-836q-37 0 -37 37v332
h-555l-217 -344q-16 -25 -43 -25h-39q-23 0 -29.5 12.5t5.5 32.5l835 1327q12 25 45 25h871q36 0 36 -37zM989 1249l-491 -782h491v782z" />
    <glyph glyph-name="aeacute" unicode="&#x1fd;" horiz-adv-x="1814" 
d="M872 1155h-20q-17 0 -21 12.5t7 24.5l209 223q16 19 43 19h73q23 0 28.5 -15t-13.5 -28l-258 -220q-22 -16 -48 -16zM1268 975q202 0 321 -124t119 -335v-27q0 -34 -39 -34h-764q7 -187 115.5 -288t279.5 -101q183 0 314 122q30 27 53 -2l10 -12q23 -29 -4 -53
q-159 -141 -385 -141q-162 0 -276.5 69t-169.5 195q-50 -125 -155.5 -194.5t-244.5 -69.5q-154 0 -245 75.5t-91 202.5q0 137 107 216t293 79q158 0 285 -47v88q0 291 -271 291q-151 0 -276 -94q-30 -24 -51 6l-11 14q-21 30 6 51q143 113 338 113q278 0 342 -225
q120 225 400 225zM909 541h684q-7 172 -95.5 260t-229.5 88t-241 -92.5t-118 -255.5zM451 66q142 0 232.5 96.5t104.5 261.5q-125 43 -264 43q-299 0 -299 -205q0 -90 61.5 -143t164.5 -53z" />
    <glyph glyph-name="Oslashacute" unicode="&#x1fe;" horiz-adv-x="1716" 
d="M817 1587h-20q-17 0 -21.5 12.5t6.5 24.5l209 223q16 19 43 19h74q24 0 28 -13t-14 -30l-258 -219q-24 -17 -47 -17zM1536 1354l-145 -154q186 -198 186 -502q0 -315 -201 -516q-202 -202 -518 -202q-273 0 -465 155l-108 -117q-18 -18 -41 -18h-45q-20 0 -26.5 15
t7.5 28l146 156q-187 196 -187 499q0 316 203 519q200 200 516 200q278 0 465 -153l109 114q19 19 41 19h45q20 0 26 -14.5t-8 -28.5zM266 698q0 -248 135 -417l848 903q-157 139 -391 139q-263 0 -426 -172q-166 -175 -166 -453zM858 74q263 0 428 174q164 173 164 450
q0 248 -135 418l-848 -903q157 -139 391 -139z" />
    <glyph glyph-name="oslashacute" unicode="&#x1ff;" horiz-adv-x="1179" 
d="M549 1155h-21q-17 0 -21 12.5t7 24.5l209 223q16 19 43 19h74q23 0 28 -15t-14 -28l-258 -220q-22 -16 -47 -16zM1032 911l-82 -92q119 -134 119 -342q0 -219 -133 -358t-346 -139q-172 0 -297 96l-51 -58q-18 -18 -43 -18h-31q-23 0 -29 13t8 30l82 92
q-118 133 -118 342q0 222 133 361q131 137 346 137q172 0 297 -96l51 57q18 18 43 18h31q23 0 28.5 -13t-8.5 -30zM229 477q0 -150 72 -260l520 588q-96 84 -231 84q-160 0 -260 -115q-101 -113 -101 -297zM590 66q160 0 262 114q98 113 98 297q0 151 -71 260l-521 -587
q96 -84 232 -84z" />
    <glyph glyph-name="uni0218" unicode="&#x218;" horiz-adv-x="1259" 
d="M639 -20q-288 0 -492 155q-27 21 -6 51l15 19q21 27 51 6q189 -137 414 -137q177 0 285 79.5t108 208.5q0 121 -76 179q-74 56 -305 106q-260 58 -365 144q-104 85 -104 243q0 175 131 279q128 104 344 104q224 0 399 -102q31 -19 13 -49l-15 -23q-18 -27 -49 -12
q-160 92 -346 92q-160 0 -259 -75.5t-99 -196.5q0 -120 77 -179q78 -60 302 -106q257 -54 362.5 -141.5t105.5 -245.5q0 -182 -133 -291q-135 -108 -358 -108zM516 -475h-18q-34 0 -19 37l107 272q12 27 39 27h59q20 0 27 -12t-4 -29l-154 -271q-12 -24 -37 -24z" />
    <glyph glyph-name="uni0219" unicode="&#x219;" horiz-adv-x="964" 
d="M475 -20q-203 0 -358 110q-28 22 -8 51l10 15q22 31 51 8q131 -98 307 -98q125 0 195.5 49t70.5 137q0 78 -53.5 113.5t-206.5 60.5q-195 31 -272.5 91t-77.5 181q0 127 99 202t266 75q155 0 288 -74q34 -18 15 -49l-10 -16q-20 -29 -50 -11q-101 64 -247 64
q-117 0 -183.5 -47t-66.5 -129q0 -75 55.5 -112t208.5 -62q188 -29 267 -91.5t79 -181.5q0 -131 -103 -208.5t-276 -77.5zM365 -475h-19q-33 0 -18 37l106 272q12 27 39 27h59q20 0 27 -12t-4 -29l-154 -271q-12 -24 -36 -24z" />
    <glyph glyph-name="uni021A" unicode="&#x21a;" horiz-adv-x="1306" 
d="M676 0h-45q-37 0 -37 37v1266h-467q-37 0 -37 36v21q0 37 37 37h1053q37 0 37 -37v-21q0 -36 -37 -36h-467v-1266q0 -37 -37 -37zM530 -475h-18q-33 0 -18 37l106 272q12 27 39 27h59q20 0 27 -12t-4 -29l-154 -271q-12 -24 -37 -24z" />
    <glyph glyph-name="uni021B" unicode="&#x21b;" horiz-adv-x="749" 
d="M680 74l6 -13q15 -34 -16 -49q-60 -32 -150 -32q-248 0 -248 258v630h-182q-37 0 -37 37v13q0 36 37 36h182v238q0 33 27 45l41 20q19 8 31 0t12 -28v-275h240q36 0 36 -36v-13q0 -37 -36 -37h-240v-641q0 -161 141 -161q58 0 107 24q34 15 49 -16zM381 -139h59
q20 0 27 -12t-4 -29l-154 -271q-12 -24 -37 -24h-18q-33 0 -18 37l106 272q12 27 39 27z" />
    <glyph glyph-name="uni0237" unicode="&#x237;" horiz-adv-x="462" 
d="M-2 -494q-41 -3 -41 35v13q0 37 33 40q99 13 142.5 90t43.5 234v1000q0 36 37 36h37q37 0 37 -36v-977q0 -411 -289 -435z" />
    <glyph glyph-name="uni02BC" unicode="&#x2bc;" horiz-adv-x="0" 
d="M49 1081h-14q-31 0 -25 35l60 324q6 30 39 30h59q41 0 27 -38l-107 -320q-9 -31 -39 -31z" />
    <glyph glyph-name="circumflex" unicode="&#x2c6;" horiz-adv-x="1228" 
d="M395 1155h-20q-17 0 -21 12.5t8 26.5l181 219q15 21 43 21h57q28 0 43 -21l180 -219q12 -14 8.5 -26.5t-20.5 -12.5h-20q-27 0 -43 16l-177 164l-176 -164q-16 -16 -43 -16z" />
    <glyph glyph-name="caron" unicode="&#x2c7;" horiz-adv-x="1228" 
d="M643 1155h-57q-28 0 -43 21l-181 219q-12 13 -8 26t21 13h20q26 0 43 -17l176 -164l177 164q17 17 43 17h20q17 0 20.5 -13t-8.5 -26l-180 -219q-15 -21 -43 -21z" />
    <glyph glyph-name="uni02C9" unicode="&#x2c9;" horiz-adv-x="0" 
d="M227 1245h-454q-35 0 -35 35v29q0 34 35 34h454q35 0 35 -34v-29q0 -35 -35 -35z" />
    <glyph glyph-name="breve" unicode="&#x2d8;" horiz-adv-x="1228" 
d="M868 1374q-67 -198 -254 -198t-254 198q-12 43 25 43h23q29 0 38 -28q37 -111 168 -111q130 0 168 111q9 28 39 28h23q36 0 24 -43z" />
    <glyph glyph-name="dotaccent" unicode="&#x2d9;" horiz-adv-x="1228" 
d="M668 1241q-20 -20 -53.5 -20t-53.5 20t-20 53.5t20 53.5t53.5 20t53.5 -20t20 -53.5t-20 -53.5z" />
    <glyph glyph-name="ring" unicode="&#x2da;" horiz-adv-x="1228" 
d="M614 1110q-80 0 -135 54t-55 132t55.5 132.5t134.5 54.5q81 0 136 -54.5t55 -132.5t-55 -132t-136 -54zM541 1221q29 -31 74 -31t73 31q28 29 28 75.5t-28 77.5q-28 29 -73 29t-74 -29q-29 -31 -29 -77.5t29 -75.5z" />
    <glyph glyph-name="ogonek" unicode="&#x2db;" horiz-adv-x="1228" 
d="M633 -461q-96 0 -148.5 44t-52.5 124q0 114 137 248l70 68l74 -13l-86 -94q-97 -111 -97 -188q0 -50 28 -77.5t79 -27.5q53 0 94 21q34 15 47 -15l6 -14q12 -31 -20 -45q-70 -31 -131 -31z" />
    <glyph glyph-name="tilde" unicode="&#x2dc;" horiz-adv-x="1228" 
d="M389 1198h-18q-36 0 -27 39q19 72 63 114t101 42q64 0 137 -58q50 -41 84 -41q55 0 76 68q9 31 35 31h18q36 0 27 -39q-19 -72 -63 -114t-101 -42q-74 0 -137 57q-50 41 -84 41q-55 0 -76 -67q-9 -31 -35 -31z" />
    <glyph glyph-name="hungarumlaut" unicode="&#x2dd;" horiz-adv-x="1228" 
d="M330 1155h-21q-34 0 -18 37l158 219q16 23 43 23h61q24 0 29.5 -13t-11.5 -30l-200 -217q-19 -19 -41 -19zM684 1155h-20q-18 0 -23.5 10t4.5 27l158 219q16 23 43 23h61q24 0 30 -13t-11 -30l-201 -217q-19 -19 -41 -19z" />
    <glyph glyph-name="gravecomb" unicode="&#x300;" horiz-adv-x="0" 
d="M61 1155h-20q-25 0 -47 16l-258 220q-19 13 -14 28t28 15h74q27 0 43 -19l209 -223q11 -12 6.5 -24.5t-21.5 -12.5z" />
    <glyph glyph-name="acutecomb" unicode="&#x301;" horiz-adv-x="0" 
d="M-41 1155h-20q-17 0 -21.5 12.5t6.5 24.5l209 223q16 19 43 19h74q23 0 28 -15t-14 -28l-258 -220q-22 -16 -47 -16z" />
    <glyph glyph-name="uni0302" unicode="&#x302;" horiz-adv-x="0" 
d="M-219 1155h-21q-17 0 -20.5 12.5t8.5 26.5l180 219q15 21 43 21h58q28 0 43 -21l180 -219q12 -14 8.5 -26.5t-20.5 -12.5h-21q-27 0 -43 16l-176 164l-176 -164q-16 -16 -43 -16z" />
    <glyph glyph-name="tildecomb" unicode="&#x303;" horiz-adv-x="0" 
d="M-225 1198h-19q-35 0 -26 39q19 72 63 114t101 42q64 0 137 -58q50 -41 84 -41q54 0 75 68q9 31 35 31h19q35 0 26 -39q-19 -72 -63 -114t-101 -42q-74 0 -137 57q-50 41 -84 41q-54 0 -75 -67q-9 -31 -35 -31z" />
    <glyph glyph-name="uni0304" unicode="&#x304;" horiz-adv-x="0" 
d="M227 1245h-454q-35 0 -35 35v29q0 34 35 34h454q35 0 35 -34v-29q0 -35 -35 -35z" />
    <glyph glyph-name="uni0306" unicode="&#x306;" horiz-adv-x="0" 
d="M254 1374q-67 -198 -254 -198t-254 198q-12 43 25 43h22q30 0 39 -28q38 -111 168 -111t168 111q9 28 39 28h22q37 0 25 -43z" />
    <glyph glyph-name="uni0307" unicode="&#x307;" horiz-adv-x="0" 
d="M53 1241q-20 -20 -53 -20t-53 20t-20 53.5t20 53.5t53 20t53 -20t20 -53.5t-20 -53.5z" />
    <glyph glyph-name="uni0308" unicode="&#x308;" horiz-adv-x="0" 
d="M-141 1241q-20 -20 -53.5 -20t-53.5 20t-20 53.5t20 53.5t53.5 20t53.5 -20t20 -53.5t-20 -53.5zM248 1241q-20 -20 -53.5 -20t-53.5 20t-20 53.5t20 53.5t53.5 20t53.5 -20t20 -53.5t-20 -53.5z" />
    <glyph glyph-name="uni030A" unicode="&#x30a;" horiz-adv-x="0" 
d="M-190 1110q-80 0 -135.5 54t-55.5 132t55.5 132.5t135.5 54.5q81 0 135.5 -54t54.5 -133q0 -78 -54.5 -132t-135.5 -54zM-264 1221q29 -31 74 -31t73 31q28 29 28 75.5t-28 77.5q-28 29 -73 29t-74 -29q-29 -31 -29 -77.5t29 -75.5z" />
    <glyph glyph-name="uni030B" unicode="&#x30b;" horiz-adv-x="0" 
d="M-182 1155h-21q-34 0 -18 37l158 219q16 23 43 23h61q24 0 29.5 -13t-11.5 -30l-200 -217q-19 -19 -41 -19zM172 1155h-20q-18 0 -23.5 10t4.5 27l158 219q16 23 43 23h61q24 0 30 -13t-11 -30l-201 -217q-19 -19 -41 -19z" />
    <glyph glyph-name="uni030C" unicode="&#x30c;" horiz-adv-x="0" 
d="M29 1155h-58q-28 0 -43 21l-180 219q-12 13 -8.5 26t20.5 13h21q26 0 43 -17l176 -164l176 164q17 17 43 17h21q17 0 20.5 -13t-8.5 -26l-180 -219q-15 -21 -43 -21z" />
    <glyph glyph-name="uni0312" unicode="&#x312;" horiz-adv-x="0" 
d="M8 1155h-59q-20 0 -27 12t4 29l131 215q16 23 37 23h19q30 0 18 -35l-84 -217q-9 -27 -39 -27z" />
    <glyph glyph-name="uni0326" unicode="&#x326;" horiz-adv-x="0" 
d="M-123 -475h-18q-34 0 -19 37l107 272q12 27 39 27h59q20 0 27 -12t-4 -29l-154 -271q-12 -24 -37 -24z" />
    <glyph glyph-name="uni0327" unicode="&#x327;" horiz-adv-x="0" 
d="M135 -418q-58 -43 -166 -43t-176 39q-29 16 -14 43l6 10q17 27 45 11q64 -31 137 -31q125 0 125 88q0 78 -106 78q-17 0 -37 -4q-24 -9 -45 12l-4 4q-15 15 -2 43l82 188h75l-71 -176q12 2 43 2q78 0 123 -38.5t45 -104.5q0 -76 -60 -121z" />
    <glyph glyph-name="uni0328" unicode="&#x328;" horiz-adv-x="0" 
d="M18 -461q-96 0 -148 44t-52 124q0 114 137 248l70 68l73 -13l-86 -94q-96 -110 -96 -188q0 -50 28 -77.5t79 -27.5q53 0 94 21q34 15 47 -15l6 -14q12 -31 -20 -45q-70 -31 -132 -31z" />
    <glyph glyph-name="uni0335" unicode="&#x335;" horiz-adv-x="0" 
d="M377 653h-754q-35 0 -35 35v21q0 34 35 34h754q35 0 35 -34v-21q0 -35 -35 -35z" />
    <glyph glyph-name="uni0336" unicode="&#x336;" horiz-adv-x="0" 
d="M733 1053h-1466q-35 0 -35 34v17q0 35 35 35h1466q35 0 35 -35v-17q0 -34 -35 -34z" />
    <glyph glyph-name="uni0337" unicode="&#x337;" horiz-adv-x="0" 
d="M412 866l-803 -559q-17 -12 -30 -4.5t-13 27.5v35q0 25 22 41l803 559q17 12 30 4.5t13 -27.5v-35q0 -25 -22 -41z" />
    <glyph glyph-name="uni0338" unicode="&#x338;" horiz-adv-x="0" 
d="M-614 0h-45q-20 0 -26.5 15t7.5 28l1251 1335q19 19 41 19h45q20 0 26.5 -14.5t-7.5 -28.5l-1251 -1336q-18 -18 -41 -18z" />
    <glyph glyph-name="uni0394" unicode="&#x394;" horiz-adv-x="1433" 
d="M1294 0h-1155q-20 0 -28 12t0 31l551 1341q13 29 43 29h24q30 0 43 -29l551 -1341q8 -19 -0.5 -31t-28.5 -12zM707 1233l-463 -1135h927z" />
    <glyph glyph-name="uni03A9" unicode="&#x3a9;" horiz-adv-x="1748" 
d="M705 0h-512q-37 0 -37 37v29q0 36 37 36h325q-161 90 -262 263q-100 166 -100 356q0 311 202 504q198 192 516 192t519 -192q200 -194 200 -504q0 -188 -98 -356q-105 -174 -264 -263h325q37 0 37 -36v-29q0 -37 -37 -37h-512q-36 0 -36 37v4q0 31 28 43q199 85 316 258
q114 170 114 369q0 280 -163 446t-429 166q-265 0 -428 -166t-163 -446q0 -201 116 -369q114 -172 314 -258q28 -12 28 -43v-4q0 -37 -36 -37z" />
    <glyph glyph-name="uni03BC" unicode="&#x3bc;" horiz-adv-x="1138" 
d="M889 954h37q37 0 37 -36v-881q0 -37 -37 -37h-29q-37 0 -37 37v164q-89 -221 -338 -221q-153 0 -235 88v-506q0 -37 -37 -37h-37q-37 0 -37 37v1356q0 36 37 36h37q37 0 37 -36v-560q0 -139 62 -212.5t181 -73.5q148 0 235 110.5t87 296.5v439q0 36 37 36z" />
    <glyph glyph-name="pi" unicode="&#x3c0;" horiz-adv-x="1263" 
d="M1167 70l4 -11q15 -34 -16 -49q-59 -30 -129 -30q-119 0 -175 58.5t-56 182.5v647h-377l-92 -1099q-3 -35 -37 -35h-37q-38 0 -35 39l90 1095h-217q-37 0 -37 37v13q0 36 37 36h1032q37 0 37 -36v-13q0 -37 -37 -37h-217v-665q0 -72 29.5 -104.5t95.5 -32.5q44 0 88 20
q38 15 49 -16z" />
    <glyph glyph-name="uni0401" unicode="&#x401;" horiz-adv-x="1282" 
d="M545 1673q-20 -20 -53.5 -20t-53.5 20t-20 53.5t20 53.5t53.5 20t53.5 -20t20 -53.5t-20 -53.5zM934 1673q-20 -20 -53.5 -20t-53.5 20t-20 53.5t20 53.5t53.5 20t53.5 -20t20 -53.5t-20 -53.5zM1114 0h-856q-37 0 -37 37v1323q0 37 37 37h856q37 0 37 -37v-21
q0 -36 -37 -36h-774v-531h664q36 0 36 -37v-20q0 -37 -36 -37h-664v-584h774q37 0 37 -37v-20q0 -37 -37 -37z" />
    <glyph glyph-name="uni0404" unicode="&#x404;" horiz-adv-x="1441" 
d="M868 -20q-324 0 -526 202q-203 203 -203 516q0 316 203 519q203 200 528 200q240 0 424 -123q30 -21 9 -51l-15 -20q-20 -29 -53 -9q-151 109 -358 109q-254 0 -420 -152t-187 -399h748q37 0 37 -37v-20q0 -37 -37 -37h-752q9 -274 176 -438q169 -166 428 -166
q218 0 383 121q29 23 52 -7l18 -22q23 -29 -8 -51q-191 -135 -447 -135z" />
    <glyph glyph-name="uni0406" unicode="&#x406;" horiz-adv-x="561" 
d="M303 0h-45q-37 0 -37 37v1323q0 37 37 37h45q37 0 37 -37v-1323q0 -37 -37 -37z" />
    <glyph glyph-name="uni0407" unicode="&#x407;" horiz-adv-x="561" 
d="M180 1673q-20 -20 -53 -20t-53 20t-20 53.5t20 53.5t53 20t53 -20t20 -53.5t-20 -53.5zM487 1673q-20 -20 -53 -20t-53 20t-20 53.5t20 53.5t53 20t53 -20t20 -53.5t-20 -53.5zM303 0h-45q-37 0 -37 37v1323q0 37 37 37h45q37 0 37 -37v-1323q0 -37 -37 -37z" />
    <glyph glyph-name="uni0410" unicode="&#x410;" horiz-adv-x="1433" 
d="M172 0h-33q-20 0 -28 12t0 31l551 1341q13 29 43 29h24q30 0 43 -29l551 -1341q8 -19 -0.5 -31t-28.5 -12h-51q-30 0 -43 29l-139 340h-707l-139 -340q-13 -29 -43 -29zM707 1233l-314 -766h627z" />
    <glyph glyph-name="uni0411" unicode="&#x411;" horiz-adv-x="1368" 
d="M815 0h-557q-37 0 -37 37v1323q0 37 37 37h815q37 0 37 -37v-21q0 -36 -37 -36h-733v-517h475q207 0 318.5 -102t111.5 -291t-111.5 -291t-318.5 -102zM340 692v-598h455q325 0 325 299t-325 299h-455z" />
    <glyph glyph-name="uni0412" unicode="&#x412;" horiz-adv-x="1398" 
d="M834 0h-576q-37 0 -37 37v1323q0 37 37 37h502q432 0 432 -348q0 -241 -207 -312q136 -35 208.5 -127t72.5 -231q0 -174 -116 -276.5t-316 -102.5zM340 1303v-531h399q172 0 250 63.5t78 202.5t-78 202t-250 63h-399zM340 678v-584h473q158 0 243 76t85 217
q0 140 -86 215.5t-244 75.5h-471z" />
    <glyph glyph-name="uni0413" unicode="&#x413;" horiz-adv-x="1241" 
d="M258 1397h856q37 0 37 -37v-21q0 -36 -37 -36h-774v-1266q0 -37 -37 -37h-45q-37 0 -37 37v1323q0 37 37 37z" />
    <glyph glyph-name="uni0414" unicode="&#x414;" horiz-adv-x="1812" 
d="M172 -276h-45q-37 0 -37 36v297q0 37 37 37h82q153 0 153 172v1094q0 37 37 37h1102q37 0 37 -37v-1266h148q36 0 36 -37v-297q0 -36 -36 -36h-46q-36 0 -36 36v240h-1395v-240q0 -36 -37 -36zM428 94h991v1209h-938v-1027q0 -111 -53 -182z" />
    <glyph glyph-name="uni0415" unicode="&#x415;" horiz-adv-x="1282" 
d="M1114 0h-856q-37 0 -37 37v1323q0 37 37 37h856q37 0 37 -37v-21q0 -36 -37 -36h-774v-531h664q36 0 36 -37v-20q0 -37 -36 -37h-664v-584h774q37 0 37 -37v-20q0 -37 -37 -37z" />
    <glyph glyph-name="uni0416" unicode="&#x416;" horiz-adv-x="2174" 
d="M207 0h-62q-23 0 -28.5 13t6.5 32l561 786l-532 521q-18 19 -12.5 32t30.5 13h49q26 0 45 -19l764 -745v727q0 37 37 37h45q37 0 37 -37v-727l764 745q19 19 45 19h49q25 0 30.5 -13t-12.5 -32l-532 -521l561 -786q12 -19 6.5 -32t-28.5 -13h-62q-29 0 -45 23l-518 727
l-258 -252v-461q0 -37 -37 -37h-45q-37 0 -37 37v461l-258 252l-518 -727q-16 -23 -45 -23z" />
    <glyph glyph-name="uni0417" unicode="&#x417;" horiz-adv-x="1232" 
d="M557 -20q-255 0 -446 114q-31 18 -11 51l15 23q18 29 51 12q160 -106 391 -106q201 0 309.5 81t108.5 230q0 146 -97 223.5t-278 77.5h-217q-37 0 -37 37v22q0 37 37 37h186q174 0 268.5 70.5t94.5 200.5t-93.5 200t-267.5 70q-218 0 -356 -111q-28 -22 -51 7l-19 22
q-23 29 9 51q174 125 421 125q223 0 351.5 -95t128.5 -261q0 -242 -267 -318q152 -32 233 -125t81 -233q0 -189 -145.5 -297t-399.5 -108z" />
    <glyph glyph-name="uni0418" unicode="&#x418;" horiz-adv-x="1630" 
d="M285 -8h-27q-37 0 -37 37v1331q0 37 37 37h45q37 0 37 -37v-1184l958 1206q16 23 45 23h29q37 0 37 -37v-1331q0 -37 -37 -37h-45q-37 0 -37 37v1186l-960 -1209q-16 -22 -45 -22z" />
    <glyph glyph-name="uni0419" unicode="&#x419;" horiz-adv-x="1630" 
d="M1069 1806q-67 -198 -254 -198t-254 198q-12 43 25 43h22q30 0 39 -28q37 -111 168 -111t168 111q9 28 39 28h22q37 0 25 -43zM285 -8h-27q-37 0 -37 37v1331q0 37 37 37h45q37 0 37 -37v-1184l958 1206q16 23 45 23h29q37 0 37 -37v-1331q0 -37 -37 -37h-45
q-37 0 -37 37v1186l-960 -1209q-16 -22 -45 -22z" />
    <glyph glyph-name="uni041A" unicode="&#x41a;" horiz-adv-x="1400" 
d="M301 0h-45q-37 0 -37 37v1323q0 37 37 37h45q37 0 37 -37v-727l797 745q19 19 45 19h51q25 0 30 -14t-14 -31l-551 -518l582 -789q14 -19 7 -32t-30 -13h-63q-29 0 -45 23l-539 729l-270 -252v-463q0 -37 -37 -37z" />
    <glyph glyph-name="uni041B" unicode="&#x41b;" horiz-adv-x="1761" 
d="M223 -20q-35 0 -104 16q-38 9 -23 47l6 18q11 33 48 23q42 -10 71 -10q154 0 154 172v1114q0 37 37 37h1091q37 0 37 -37v-1323q0 -37 -37 -37h-45q-37 0 -37 37v1266h-927v-1047q0 -135 -70.5 -205.5t-200.5 -70.5z" />
    <glyph glyph-name="uni041C" unicode="&#x41c;" horiz-adv-x="1878" 
d="M287 0h-29q-37 0 -37 37v1323q0 37 37 37h47q33 0 45 -27l600 -1155l572 1155q12 27 43 27h55q37 0 37 -37v-1323q0 -37 -37 -37h-45q-37 0 -37 37v1132l-547 -1101q-12 -27 -45 -27h-6q-33 0 -45 27l-571 1101v-1132q0 -37 -37 -37z" />
    <glyph glyph-name="uni041D" unicode="&#x41d;" horiz-adv-x="1638" 
d="M303 0h-45q-37 0 -37 37v1323q0 37 37 37h45q37 0 37 -37v-588h958v588q0 37 37 37h45q37 0 37 -37v-1323q0 -37 -37 -37h-45q-37 0 -37 37v641h-958v-641q0 -37 -37 -37z" />
    <glyph glyph-name="uni041E" unicode="&#x41e;" horiz-adv-x="1716" 
d="M1376 182q-202 -202 -518 -202q-317 0 -516 202q-203 200 -203 516t203 519q200 200 516 200q318 0 518 -200q201 -201 201 -519q0 -315 -201 -516zM432 248q162 -174 426 -174q263 0 428 174q164 173 164 450t-164 453q-166 172 -428 172q-263 0 -426 -172
q-166 -175 -166 -453t166 -450z" />
    <glyph glyph-name="uni041F" unicode="&#x41f;" horiz-adv-x="1638" 
d="M303 0h-45q-37 0 -37 37v1323q0 37 37 37h1122q37 0 37 -37v-1323q0 -37 -37 -37h-45q-37 0 -37 37v1266h-958v-1266q0 -37 -37 -37z" />
    <glyph glyph-name="uni0420" unicode="&#x420;" horiz-adv-x="1368" 
d="M303 0h-45q-37 0 -37 37v1323q0 37 37 37h557q207 0 318.5 -102t111.5 -291t-111.5 -291.5t-318.5 -102.5h-475v-573q0 -37 -37 -37zM340 1303v-598h455q325 0 325 299t-325 299h-455z" />
    <glyph glyph-name="uni0421" unicode="&#x421;" horiz-adv-x="1421" 
d="M856 -20q-316 0 -516 200q-201 201 -201 518q0 318 201 519q200 200 518 200q234 0 418 -123q29 -17 8 -51l-14 -20q-21 -27 -51 -6q-153 106 -355 106q-266 0 -432 -172q-166 -175 -166 -453t166 -450q162 -174 428 -174q209 0 377 121q29 23 51 -9l15 -20
q21 -30 -7 -49q-192 -137 -440 -137z" />
    <glyph glyph-name="uni0422" unicode="&#x422;" horiz-adv-x="1306" 
d="M676 0h-45q-37 0 -37 37v1266h-467q-37 0 -37 36v21q0 37 37 37h1053q37 0 37 -37v-21q0 -36 -37 -36h-467v-1266q0 -37 -37 -37z" />
    <glyph glyph-name="uni0423" unicode="&#x423;" horiz-adv-x="1339" 
d="M420 0h-39q-23 0 -29.5 12.5t4.5 32.5l256 442l-503 865q-23 45 24 45h57q27 0 43 -25l445 -770l446 770q16 25 43 25h39q23 0 30.5 -12.5t-3.5 -32.5l-770 -1327q-16 -25 -43 -25z" />
    <glyph glyph-name="uni0424" unicode="&#x424;" horiz-adv-x="1789" 
d="M1458 1196q195 -201 195 -498q0 -294 -195 -495q-197 -200 -504 -221v-109q0 -37 -36 -37h-46q-36 0 -36 37v109q-308 21 -502 221q-197 200 -197 495q0 298 197 498q192 198 502 219v109q0 37 36 37h46q36 0 36 -37v-109q309 -21 504 -219zM422 1133
q-158 -175 -158 -435t158 -432q155 -172 414 -190v1245q-258 -18 -414 -188zM954 1321v-1245q259 18 414 190q158 172 158 432t-158 435q-156 170 -414 188z" />
    <glyph glyph-name="uni0425" unicode="&#x425;" horiz-adv-x="1363" 
d="M750 735l493 -690q12 -19 6.5 -32t-28.5 -13h-62q-29 0 -45 23l-446 620l-439 -620q-16 -23 -45 -23h-37q-20 0 -27 13t5 32l481 674l-452 633q-12 19 -5 32t27 13h62q29 0 45 -23l403 -563l397 563q16 23 45 23h37q23 0 29 -13t-6 -32z" />
    <glyph glyph-name="uni0426" unicode="&#x426;" horiz-adv-x="1691" 
d="M1417 94h148q37 0 37 -37v-297q0 -36 -37 -36h-45q-37 0 -37 36v240h-1225q-37 0 -37 37v1323q0 37 37 37h45q37 0 37 -37v-1266h958v1266q0 37 37 37h45q37 0 37 -37v-1266z" />
    <glyph glyph-name="uni0427" unicode="&#x427;" horiz-adv-x="1402" 
d="M1100 1397h45q37 0 37 -37v-1323q0 -37 -37 -37h-45q-37 0 -37 37v708q-150 -202 -459 -202q-223 0 -342 110.5t-119 317.5v389q0 37 37 37h45q37 0 37 -37v-379q0 -344 350 -344q157 0 275.5 70t175.5 194v459q0 37 37 37z" />
    <glyph glyph-name="uni0428" unicode="&#x428;" horiz-adv-x="2347" 
d="M2089 0h-1831q-37 0 -37 37v1323q0 37 37 37h45q37 0 37 -37v-1266h774v1266q0 37 37 37h45q37 0 37 -37v-1266h774v1266q0 37 37 37h45q37 0 37 -37v-1323q0 -37 -37 -37z" />
    <glyph glyph-name="uni0429" unicode="&#x429;" horiz-adv-x="2400" 
d="M2126 94h147q37 0 37 -37v-297q0 -36 -37 -36h-45q-37 0 -37 36v240h-1933q-37 0 -37 37v1323q0 37 37 37h45q37 0 37 -37v-1266h774v1266q0 37 37 37h45q37 0 37 -37v-1266h774v1266q0 37 37 37h45q37 0 37 -37v-1266z" />
    <glyph glyph-name="uni042A" unicode="&#x42a;" horiz-adv-x="1597" 
d="M569 786h475q207 0 319 -102t112 -291t-112 -291t-319 -102h-557q-36 0 -36 37v1266h-324q-37 0 -37 36v21q0 37 37 37h405q37 0 37 -37v-574zM569 94h455q326 0 326 299t-326 299h-455v-598z" />
    <glyph glyph-name="uni042B" unicode="&#x42b;" horiz-adv-x="1888" 
d="M258 1397h45q37 0 37 -37v-574h475q207 0 318.5 -102t111.5 -291t-111.5 -291t-318.5 -102h-557q-37 0 -37 37v1323q0 37 37 37zM1630 0h-45q-37 0 -37 37v1323q0 37 37 37h45q37 0 37 -37v-1323q0 -37 -37 -37zM795 692h-455v-598h455q325 0 325 299t-325 299z" />
    <glyph glyph-name="uni042C" unicode="&#x42c;" horiz-adv-x="1368" 
d="M258 1397h45q37 0 37 -37v-574h475q207 0 318.5 -102t111.5 -291t-111.5 -291t-318.5 -102h-557q-37 0 -37 37v1323q0 37 37 37zM795 692h-455v-598h455q325 0 325 299t-325 299z" />
    <glyph glyph-name="uni042D" unicode="&#x42d;" horiz-adv-x="1441" 
d="M573 -20q-255 0 -446 135q-31 22 -8 51l18 22q23 29 51 7q165 -121 383 -121q259 0 428 166q168 165 177 438h-752q-37 0 -37 37v20q0 37 37 37h747q-21 248 -186 399q-166 152 -420 152q-207 0 -358 -109q-33 -20 -53 9l-15 20q-21 30 8 51q185 123 424 123
q326 0 529 -200q203 -203 203 -519q0 -313 -203 -516q-202 -202 -527 -202z" />
    <glyph glyph-name="uni042E" unicode="&#x42e;" horiz-adv-x="2236" 
d="M1378 1417q318 0 518 -200q201 -201 201 -519q0 -315 -201 -516q-202 -202 -518 -202q-311 0 -510 196q-200 194 -209 502h-319v-641q0 -37 -37 -37h-45q-37 0 -37 37v1323q0 37 37 37h45q37 0 37 -37v-588h324q24 289 223 467q196 178 491 178zM952 248
q162 -174 426 -174q263 0 428 174q164 173 164 450t-164 453q-166 172 -428 172q-263 0 -426 -172q-166 -175 -166 -453t166 -450z" />
    <glyph glyph-name="uni042F" unicode="&#x42f;" horiz-adv-x="1400" 
d="M606 1397h537q37 0 37 -37v-1323q0 -37 -37 -37h-45q-37 0 -37 37v590h-348l-447 -604q-16 -23 -45 -23h-63q-23 0 -30 13t7 32l430 584q-185 7 -287 108t-102 275q0 183 113 284t317 101zM627 721h434v582h-434q-326 0 -326 -291t326 -291z" />
    <glyph glyph-name="uni0430" unicode="&#x430;" horiz-adv-x="1060" 
d="M526 975q183 0 279 -95.5t96 -275.5v-567q0 -37 -37 -37h-28q-37 0 -37 37v176q-94 -233 -367 -233q-146 0 -236 76.5t-90 201.5q0 137 107 216t293 79q158 0 285 -47v88q0 291 -271 291q-157 0 -276 -94q-29 -22 -51 6l-11 14q-21 30 6 51q143 113 338 113zM451 66
q141 0 232.5 96t104.5 260q-128 45 -264 45q-299 0 -299 -205q0 -90 61.5 -143t164.5 -53z" />
    <glyph glyph-name="uni0431" unicode="&#x431;" horiz-adv-x="1202" 
d="M612 -20q-229 0 -354 172t-125 489q0 367 127 541q127 171 461 229q45 9 217 62q42 12 45 -29l2 -29q3 -36 -27 -45q-140 -47 -235 -65q-280 -50 -385 -185q-107 -137 -113 -440q49 133 153.5 203.5t252.5 70.5q210 0 336 -129q125 -131 125 -348q0 -218 -134 -358
q-133 -139 -346 -139zM612 66q160 0 262 114q99 114 99 297q0 175 -99 283t-256 108q-162 0 -260 -111t-94 -290q3 -174 103 -289q93 -112 245 -112z" />
    <glyph glyph-name="uni0432" unicode="&#x432;" horiz-adv-x="1099" 
d="M678 0h-465q-37 0 -37 37v881q0 36 37 36h424q301 0 301 -237q0 -161 -147 -211q196 -52 196 -248q0 -122 -81.5 -190t-227.5 -68zM287 872v-335h329q106 0 155.5 41t49.5 131q0 87 -48 125t-157 38h-329zM287 455v-373h379q99 0 151.5 46.5t52.5 133.5q0 92 -53 142.5
t-151 50.5h-379z" />
    <glyph glyph-name="uni0433" unicode="&#x433;" horiz-adv-x="935" 
d="M250 0h-37q-37 0 -37 37v881q0 36 37 36h633q37 0 37 -36v-13q0 -37 -37 -37h-559v-831q0 -37 -37 -37z" />
    <glyph glyph-name="uni0434" unicode="&#x434;" horiz-adv-x="1206" 
d="M127 -213h-37q-37 0 -37 37v225q0 37 37 37h41q102 0 102 123v709q0 36 37 36h703q37 0 37 -36v-832h88q37 0 37 -37v-225q0 -37 -37 -37h-37q-37 0 -37 37v176h-860v-176q0 -37 -37 -37zM303 86h596v782h-555v-645q0 -84 -41 -137z" />
    <glyph glyph-name="uni0435" unicode="&#x435;" horiz-adv-x="1138" 
d="M997 121q-156 -141 -385 -141t-364 135q-137 134 -137 362q0 222 133 361q131 137 348 137q202 0 321 -124t119 -335q0 -19 -2 -27q-6 -34 -37 -34h-764q6 -180 112.5 -284.5t283.5 -104.5q179 0 313 122q28 28 51 -2l12 -14q23 -30 -4 -51zM233 541h685q-6 164 -92 256
t-234 92q-147 0 -244.5 -94.5t-114.5 -253.5z" />
    <glyph glyph-name="uni0436" unicode="&#x436;" horiz-adv-x="1601" 
d="M160 0h-54q-23 0 -29.5 13t7.5 32l391 533l-336 331q-18 19 -12 32t31 13h43q27 0 45 -18l499 -483v465q0 36 37 36h37q37 0 37 -36v-465l500 483q18 18 45 18h43q25 0 30.5 -13t-12.5 -32l-336 -331l392 -533q14 -19 7 -32t-30 -13h-53q-29 0 -45 23l-348 477l-193 -189
v-274q0 -37 -37 -37h-37q-37 0 -37 37v274l-192 189l-348 -477q-16 -23 -45 -23z" />
    <glyph glyph-name="uni0437" unicode="&#x437;" horiz-adv-x="948" 
d="M420 -20q-187 0 -318 73q-34 18 -14 51l10 17q18 30 49 12q125 -67 281 -67q137 0 212 52.5t75 149.5q0 92 -68 141.5t-196 49.5h-144q-37 0 -37 37v12q0 37 37 37h125q125 0 190.5 44t65.5 128q0 82 -67 127t-191 45q-137 0 -248 -66q-34 -21 -51 8l-8 15q-20 33 10 51
q128 78 305 78q170 0 266.5 -66.5t96.5 -183.5q0 -164 -191 -217q224 -46 224 -242q0 -133 -111 -209.5t-303 -76.5z" />
    <glyph glyph-name="uni0438" unicode="&#x438;" horiz-adv-x="1200" 
d="M242 -4h-29q-37 0 -37 37v885q0 36 37 36h37q37 0 37 -36v-764l626 782q16 22 45 22h29q37 0 37 -36v-885q0 -37 -37 -37h-37q-37 0 -37 37v764l-626 -783q-16 -22 -45 -22z" />
    <glyph glyph-name="uni0439" unicode="&#x439;" horiz-adv-x="1200" 
d="M854 1374q-67 -198 -254 -198t-254 198q-12 43 25 43h22q30 0 39 -28q38 -111 168 -111t168 111q9 28 39 28h22q37 0 25 -43zM242 -4h-29q-37 0 -37 37v885q0 36 37 36h37q37 0 37 -36v-764l626 782q16 22 45 22h29q37 0 37 -36v-885q0 -37 -37 -37h-37q-37 0 -37 37v764
l-626 -783q-16 -22 -45 -22z" />
    <glyph glyph-name="uni043A" unicode="&#x43a;" horiz-adv-x="1034" 
d="M250 0h-37q-37 0 -37 37v881q0 36 37 36h37q37 0 37 -36v-469l522 487q18 18 45 18h47q25 0 31 -14t-12 -31l-359 -331l395 -533q14 -19 7.5 -32t-29.5 -13h-53q-29 0 -45 23l-357 479l-192 -180v-285q0 -37 -37 -37z" />
    <glyph glyph-name="uni043B" unicode="&#x43b;" horiz-adv-x="1212" 
d="M190 -20q-67 0 -106 20q-30 15 -18 49l4 10q13 29 49 17q38 -10 61 -10q94 0 94 122v730q0 36 37 36h688q37 0 37 -36v-881q0 -37 -37 -37h-36q-37 0 -37 37v831h-541v-682q0 -206 -195 -206z" />
    <glyph glyph-name="uni043C" unicode="&#x43c;" horiz-adv-x="1427" 
d="M233 0h-20q-37 0 -37 37v881q0 36 37 36h35q29 0 43 -26l424 -756l424 756q14 26 43 26h32q37 0 37 -36v-881q0 -37 -37 -37h-36q-37 0 -37 37v715l-391 -697q-14 -26 -43 -26h-9q-29 0 -43 26l-385 686v-704q0 -37 -37 -37z" />
    <glyph glyph-name="uni043D" unicode="&#x43d;" horiz-adv-x="1138" 
d="M250 0h-37q-37 0 -37 37v881q0 36 37 36h37q37 0 37 -36v-379h565v379q0 36 37 36h37q37 0 37 -36v-881q0 -37 -37 -37h-37q-37 0 -37 37v416h-565v-416q0 -37 -37 -37z" />
    <glyph glyph-name="uni043E" unicode="&#x43e;" horiz-adv-x="1179" 
d="M936 119q-133 -139 -346 -139t-346 139t-133 358q0 222 133 361q131 137 346 137t346 -137q133 -139 133 -361q0 -219 -133 -358zM330 180q99 -114 260 -114q160 0 262 114q98 113 98 297t-98 297q-103 115 -262 115q-160 0 -260 -115q-101 -113 -101 -297t101 -297z" />
    <glyph glyph-name="uni043F" unicode="&#x43f;" horiz-adv-x="1138" 
d="M250 0h-37q-37 0 -37 37v881q0 36 37 36h713q37 0 37 -36v-881q0 -37 -37 -37h-37q-37 0 -37 37v831h-565v-831q0 -37 -37 -37z" />
    <glyph glyph-name="uni0440" unicode="&#x440;" horiz-adv-x="1222" 
d="M651 975q207 0 332 -137q127 -139 127 -361q0 -219 -127 -358q-130 -139 -334 -139q-249 0 -362 192v-610q0 -37 -37 -37h-37q-37 0 -37 37v1356q0 36 37 36h29q37 0 37 -36v-150q112 207 372 207zM379 178q93 -112 258 -112t258 112q96 116 96 299t-96 299
q-94 113 -258 113t-258 -113q-96 -116 -96 -299t96 -299z" />
    <glyph glyph-name="uni0441" unicode="&#x441;" horiz-adv-x="1026" 
d="M596 -20q-217 0 -350 139q-135 138 -135 358q0 223 135 361q131 137 350 137q170 0 295 -82q28 -22 10 -51l-8 -13q-18 -30 -51 -10q-110 70 -236 70q-173 0 -275 -111.5t-102 -300.5t102 -300t275 -111q148 0 266 92q29 23 52 -6l10 -13q22 -31 -4 -51
q-144 -108 -334 -108z" />
    <glyph glyph-name="uni0442" unicode="&#x442;" horiz-adv-x="913" 
d="M475 0h-37q-37 0 -37 37v831h-311q-37 0 -37 37v13q0 36 37 36h733q37 0 37 -36v-13q0 -37 -37 -37h-311v-831q0 -37 -37 -37z" />
    <glyph glyph-name="uni0443" unicode="&#x443;" horiz-adv-x="989" 
d="M307 -475h-28q-20 0 -28.5 12t-0.5 31l194 459l-372 884q-8 19 0 31t28 12h43q31 0 43 -28l316 -762l317 762q12 28 43 28h27q20 0 28.5 -12t0.5 -31l-568 -1357q-13 -29 -43 -29z" />
    <glyph glyph-name="uni0444" unicode="&#x444;" horiz-adv-x="1277" 
d="M1038 821q131 -137 131 -344q0 -208 -131 -342q-132 -138 -344 -153v-420q0 -37 -37 -37h-36q-37 0 -37 37v420q-212 15 -344 153q-131 134 -131 342q0 207 131 344q134 137 344 152v461q0 36 37 36h36q37 0 37 -36v-461q210 -15 344 -152zM324 760q-97 -114 -97 -283
q0 -168 97 -282q95 -112 260 -127v819q-165 -15 -260 -127zM694 887v-819q164 17 260.5 127t96.5 282t-96.5 282.5t-260.5 127.5z" />
    <glyph glyph-name="uni0445" unicode="&#x445;" horiz-adv-x="976" 
d="M150 0h-35q-23 0 -30 13t7 32l326 438l-322 426q-14 19 -7 32t30 13h51q26 0 45 -22l279 -373l270 373q16 22 45 22h35q23 0 29.5 -13t-7.5 -32l-313 -422l334 -442q14 -19 7 -32t-30 -13h-51q-25 0 -45 23l-291 389l-282 -389q-16 -23 -45 -23z" />
    <glyph glyph-name="uni0446" unicode="&#x446;" horiz-adv-x="1157" 
d="M963 86h88q36 0 36 -37v-225q0 -37 -36 -37h-37q-37 0 -37 37v176h-764q-37 0 -37 37v881q0 36 37 36h37q37 0 37 -36v-832h565v832q0 36 37 36h37q37 0 37 -36v-832z" />
    <glyph glyph-name="uni0447" unicode="&#x447;" horiz-adv-x="1073" 
d="M823 954h37q37 0 37 -36v-881q0 -37 -37 -37h-37q-37 0 -37 37v426q-108 -176 -329 -176q-162 0 -254 96.5t-92 269.5v265q0 36 36 36h37q37 0 37 -36v-252q0 -136 67.5 -211.5t186.5 -75.5q112 0 194 66t117 184v289q0 36 37 36z" />
    <glyph glyph-name="uni0448" unicode="&#x448;" horiz-adv-x="1736" 
d="M1524 0h-1311q-37 0 -37 37v881q0 36 37 36h37q37 0 37 -36v-832h526v832q0 36 37 36h37q37 0 37 -36v-832h526v832q0 36 37 36h37q37 0 37 -36v-881q0 -37 -37 -37z" />
    <glyph glyph-name="uni0449" unicode="&#x449;" horiz-adv-x="1710" 
d="M1561 86h88q37 0 37 -37v-225q0 -37 -37 -37h-37q-37 0 -37 37v176h-1362q-37 0 -37 37v881q0 36 37 36h37q37 0 37 -36v-832h526v832q0 36 37 36h37q37 0 37 -36v-832h526v832q0 36 37 36h37q37 0 37 -36v-832z" />
    <glyph glyph-name="uni044A" unicode="&#x44a;" horiz-adv-x="1175" 
d="M387 543h399q146 0 223.5 -71t77.5 -202q0 -130 -77.5 -200t-223.5 -70h-473q-37 0 -37 37v831h-186q-37 0 -37 37v13q0 36 37 36h260q37 0 37 -36v-375zM387 82h377q106 0 156.5 45.5t50.5 142.5q0 98 -50.5 144.5t-156.5 46.5h-377v-379z" />
    <glyph glyph-name="uni044B" unicode="&#x44b;" horiz-adv-x="1497" 
d="M686 0h-473q-37 0 -37 37v881q0 36 37 36h37q37 0 37 -36v-375h399q146 0 223.5 -71t77.5 -202q0 -130 -77.5 -200t-223.5 -70zM1284 0h-37q-37 0 -37 37v881q0 36 37 36h37q37 0 37 -36v-881q0 -37 -37 -37zM287 461v-379h377q106 0 156 45.5t50 142.5q0 98 -50 144.5
t-156 46.5h-377z" />
    <glyph glyph-name="uni044C" unicode="&#x44c;" horiz-adv-x="1075" 
d="M686 0h-473q-37 0 -37 37v881q0 36 37 36h37q37 0 37 -36v-375h399q146 0 223.5 -71t77.5 -202q0 -130 -77.5 -200t-223.5 -70zM287 461v-379h377q106 0 156 45.5t50 142.5q0 98 -50 144.5t-156 46.5h-377z" />
    <glyph glyph-name="uni044D" unicode="&#x44d;" horiz-adv-x="1056" 
d="M166 158q127 -92 274 -92q167 0 270.5 101t114.5 273h-622q-37 0 -37 35v17q0 34 37 34h622q-14 167 -117.5 265t-267.5 98q-131 0 -241 -72q-30 -21 -52 10l-10 15q-21 27 10 49q125 84 304 84q221 0 358 -137t137 -361q0 -221 -137 -358q-139 -139 -358 -139
q-196 0 -340 108q-28 22 -7 51l11 15q17 25 51 4z" />
    <glyph glyph-name="uni044E" unicode="&#x44e;" horiz-adv-x="1601" 
d="M1012 975q215 0 346 -137q133 -139 133 -361q0 -219 -133 -358t-346 -139q-207 0 -338 131q-133 133 -142 342h-245v-416q0 -37 -37 -37h-37q-37 0 -37 37v881q0 36 37 36h37q37 0 37 -36v-379h248q21 199 151 317q128 119 326 119zM752 180q99 -114 260 -114
q160 0 262 114q98 113 98 297t-98 297q-103 115 -262 115q-160 0 -260 -115q-101 -113 -101 -297t101 -297z" />
    <glyph glyph-name="uni044F" unicode="&#x44f;" horiz-adv-x="1103" 
d="M428 954h463q37 0 37 -36v-881q0 -37 -37 -37h-37q-37 0 -37 37v387h-303l-285 -401q-16 -23 -45 -23h-53q-23 0 -28.5 13t6.5 32l272 381q-123 11 -188.5 78.5t-65.5 185.5q0 128 77.5 196t223.5 68zM453 506h364v366h-364q-108 0 -158.5 -44t-50.5 -138q0 -96 50 -140
t159 -44z" />
    <glyph glyph-name="uni0451" unicode="&#x451;" horiz-adv-x="1138" 
d="M440 1241q-20 -20 -53 -20t-53 20t-20 53.5t20 53.5t53 20t53 -20t20 -53.5t-20 -53.5zM829 1241q-20 -20 -53 -20t-53 20t-20 53.5t20 53.5t53 20t53 -20t20 -53.5t-20 -53.5zM997 121q-156 -141 -385 -141t-364 135q-137 134 -137 362q0 222 133 361q131 137 348 137
q202 0 321 -124t119 -335q0 -19 -2 -27q-6 -34 -37 -34h-764q6 -180 112.5 -284.5t283.5 -104.5q179 0 313 122q28 28 51 -2l12 -14q23 -30 -4 -51zM233 541h685q-6 164 -92 256t-234 92q-147 0 -244.5 -94.5t-114.5 -253.5z" />
    <glyph glyph-name="uni0454" unicode="&#x454;" horiz-adv-x="1056" 
d="M891 158q34 21 51 -4l10 -15q21 -30 -6 -51q-144 -108 -340 -108q-217 0 -356 139t-139 358q0 222 139 361q137 137 356 137q178 0 303 -84q32 -22 11 -49l-11 -15q-21 -31 -51 -10q-110 72 -242 72q-164 0 -267.5 -98t-117.5 -265h623q37 0 37 -34v-17q0 -35 -37 -35
h-623q11 -172 114.5 -273t270.5 -101q148 0 275 92z" />
    <glyph glyph-name="uni0456" unicode="&#x456;" horiz-adv-x="462" 
d="M285 1241q-20 -20 -53.5 -20t-53.5 20t-20 53.5t20 53.5t53.5 20t53.5 -20t20 -53.5t-20 -53.5zM250 0h-37q-37 0 -37 37v881q0 36 37 36h37q37 0 37 -36v-881q0 -37 -37 -37z" />
    <glyph glyph-name="uni0457" unicode="&#x457;" horiz-adv-x="462" 
d="M131 1241q-20 -20 -53 -20t-53 20t-20 53.5t20 53.5t53 20t53 -20t20 -53.5t-20 -53.5zM438 1241q-20 -20 -53 -20t-53 20t-20 53.5t20 53.5t53 20t53 -20t20 -53.5t-20 -53.5zM250 0h-37q-37 0 -37 37v881q0 36 37 36h37q37 0 37 -36v-881q0 -37 -37 -37z" />
    <glyph glyph-name="uni0490" unicode="&#x490;" horiz-adv-x="1241" 
d="M303 0h-45q-37 0 -37 37v1323q0 37 37 37h774v239q0 37 37 37h45q37 0 37 -37v-297q0 -36 -37 -36h-774v-1266q0 -37 -37 -37z" />
    <glyph glyph-name="uni0491" unicode="&#x491;" horiz-adv-x="935" 
d="M250 0h-37q-37 0 -37 37v881q0 36 37 36h559v248q0 37 37 37h37q37 0 37 -37v-297q0 -37 -37 -37h-559v-831q0 -37 -37 -37z" />
    <glyph glyph-name="Wgrave" unicode="&#x1e80;" horiz-adv-x="2080" 
d="M1102 1587h-21q-23 0 -47 17l-258 219q-18 17 -13.5 30t28.5 13h73q27 0 43 -19l209 -223q11 -12 7 -24.5t-21 -12.5zM606 0h-33q-34 0 -43 31l-419 1325q-12 41 30 41h49q34 0 43 -31l367 -1163l391 1163q9 31 43 31h29q34 0 43 -31l393 -1178l365 1178q9 31 43 31h32
q43 0 31 -41l-418 -1325q-9 -31 -43 -31h-34q-34 0 -43 31l-390 1165l-393 -1165q-9 -31 -43 -31z" />
    <glyph glyph-name="wgrave" unicode="&#x1e81;" horiz-adv-x="1513" 
d="M819 1155h-20q-25 0 -47 16l-258 220q-19 13 -14 28t28 15h74q27 0 43 -19l209 -223q11 -12 6.5 -24.5t-21.5 -12.5zM444 0h-10q-31 0 -41 29l-319 882q-12 43 28 43h43q32 0 41 -28l260 -733l269 733q9 28 41 28h18q32 0 41 -28l268 -729l260 729q9 28 41 28h27
q20 0 28.5 -12t2.5 -31l-322 -882q-10 -29 -41 -29h-10q-31 0 -41 29l-270 741l-273 -741q-10 -29 -41 -29z" />
    <glyph glyph-name="Wacute" unicode="&#x1e82;" horiz-adv-x="2080" 
d="M999 1587h-20q-17 0 -21 12.5t7 24.5l209 223q16 19 43 19h73q24 0 28.5 -13t-13.5 -30l-258 -219q-24 -17 -48 -17zM606 0h-33q-34 0 -43 31l-419 1325q-12 41 30 41h49q34 0 43 -31l367 -1163l391 1163q9 31 43 31h29q34 0 43 -31l393 -1178l365 1178q9 31 43 31h32
q43 0 31 -41l-418 -1325q-9 -31 -43 -31h-34q-34 0 -43 31l-390 1165l-393 -1165q-9 -31 -43 -31z" />
    <glyph glyph-name="wacute" unicode="&#x1e83;" horiz-adv-x="1513" 
d="M717 1155h-21q-17 0 -21 12.5t7 24.5l209 223q16 19 43 19h74q23 0 28 -15t-14 -28l-258 -220q-22 -16 -47 -16zM444 0h-10q-31 0 -41 29l-319 882q-12 43 28 43h43q32 0 41 -28l260 -733l269 733q9 28 41 28h18q32 0 41 -28l268 -729l260 729q9 28 41 28h27
q20 0 28.5 -12t2.5 -31l-322 -882q-10 -29 -41 -29h-10q-31 0 -41 29l-270 741l-273 -741q-10 -29 -41 -29z" />
    <glyph glyph-name="Wdieresis" unicode="&#x1e84;" horiz-adv-x="2080" 
d="M899 1673q-20 -20 -53 -20t-53 20t-20 53.5t20 53.5t53 20t53 -20t20 -53.5t-20 -53.5zM1288 1673q-20 -20 -53 -20t-53 20t-20 53.5t20 53.5t53 20t53 -20t20 -53.5t-20 -53.5zM606 0h-33q-34 0 -43 31l-419 1325q-12 41 30 41h49q34 0 43 -31l367 -1163l391 1163
q9 31 43 31h29q34 0 43 -31l393 -1178l365 1178q9 31 43 31h32q43 0 31 -41l-418 -1325q-9 -31 -43 -31h-34q-34 0 -43 31l-390 1165l-393 -1165q-9 -31 -43 -31z" />
    <glyph glyph-name="wdieresis" unicode="&#x1e85;" horiz-adv-x="1513" 
d="M616 1241q-20 -20 -53 -20t-53 20t-20 53.5t20 53.5t53 20t53 -20t20 -53.5t-20 -53.5zM1006 1241q-20 -20 -53.5 -20t-53.5 20t-20 53.5t20 53.5t53.5 20t53.5 -20t20 -53.5t-20 -53.5zM444 0h-10q-31 0 -41 29l-319 882q-12 43 28 43h43q32 0 41 -28l260 -733l269 733
q9 28 41 28h18q32 0 41 -28l268 -729l260 729q9 28 41 28h27q20 0 28.5 -12t2.5 -31l-322 -882q-10 -29 -41 -29h-10q-31 0 -41 29l-270 741l-273 -741q-10 -29 -41 -29z" />
    <glyph glyph-name="uni1E9E" unicode="&#x1e9e;" horiz-adv-x="1523" 
d="M909 -20q-246 0 -420 110q-29 18 -12 51l10 21q15 35 52 12q153 -100 354 -100q183 0 280 84t97 243q0 326 -398 326h-98q-37 0 -37 33v6q0 27 17 47l387 490h-801v-1266q0 -37 -37 -37h-45q-37 0 -37 37v1323q0 37 37 37h1010q37 0 37 -35v-8q0 -27 -17 -47l-385 -486
q241 -1 367.5 -109t126.5 -311q0 -201 -128 -311t-360 -110z" />
    <glyph glyph-name="Ygrave" unicode="&#x1ef2;" horiz-adv-x="1316" 
d="M721 1587h-21q-23 0 -47 17l-258 219q-18 17 -13.5 30t28.5 13h73q27 0 43 -19l209 -223q11 -12 7 -24.5t-21 -12.5zM682 0h-45q-37 0 -37 37v565l-485 750q-12 20 -5.5 32.5t29.5 12.5h60q33 0 45 -25l424 -663l426 663q16 25 45 25h39q23 0 29.5 -12.5t-5.5 -32.5
l-483 -748v-567q0 -37 -37 -37z" />
    <glyph glyph-name="ygrave" unicode="&#x1ef3;" horiz-adv-x="989" 
d="M557 1155h-20q-26 0 -48 16l-258 220q-19 13 -13.5 28t28.5 15h73q27 0 43 -19l209 -223q11 -12 7 -24.5t-21 -12.5zM307 -475h-28q-20 0 -28.5 12t-0.5 31l194 459l-372 884q-8 19 0 31t28 12h43q31 0 43 -28l316 -762l317 762q12 28 43 28h27q20 0 28.5 -12t0.5 -31
l-568 -1357q-13 -29 -43 -29z" />
    <glyph glyph-name="uni2002" unicode="&#x2002;" horiz-adv-x="819" 
 />
    <glyph glyph-name="uni2003" unicode="&#x2003;" horiz-adv-x="1228" 
 />
    <glyph glyph-name="uni2007" unicode="&#x2007;" 
 />
    <glyph glyph-name="uni2008" unicode="&#x2008;" horiz-adv-x="561" 
 />
    <glyph glyph-name="uni200B" unicode="&#x200b;" 
 />
    <glyph glyph-name="figuredash" unicode="&#x2012;" 
d="M1167 432h-1069q-37 0 -37 37v8q0 37 37 37h1069q37 0 37 -37v-8q0 -37 -37 -37z" />
    <glyph glyph-name="endash" unicode="&#x2013;" horiz-adv-x="819" 
d="M721 432h-623q-37 0 -37 37v8q0 37 37 37h623q37 0 37 -37v-8q0 -37 -37 -37z" />
    <glyph glyph-name="emdash" unicode="&#x2014;" horiz-adv-x="1228" 
d="M1135 432h-1041q-33 0 -33 33v16q0 33 33 33h1041q32 0 32 -33v-16q0 -33 -32 -33z" />
    <glyph glyph-name="quoteleft" unicode="&#x2018;" horiz-adv-x="442" 
d="M332 1397h14q43 0 31 -41l-88 -303q-9 -31 -41 -31h-62q-43 0 -28 43l131 303q13 29 43 29z" />
    <glyph glyph-name="quoteright" unicode="&#x2019;" horiz-adv-x="442" 
d="M197 1022h-15q-42 0 -30 41l88 303q9 31 41 31h61q44 0 29 -43l-131 -303q-13 -29 -43 -29z" />
    <glyph glyph-name="quotesinglbase" unicode="&#x201a;" horiz-adv-x="561" 
d="M197 -246h-15q-42 0 -30 41l88 303q9 31 41 31h61q44 0 29 -43l-131 -303q-13 -29 -43 -29z" />
    <glyph glyph-name="quotedblleft" unicode="&#x201c;" horiz-adv-x="757" 
d="M332 1397h14q43 0 31 -41l-88 -303q-9 -31 -41 -31h-62q-43 0 -28 43l131 303q13 29 43 29zM647 1397h15q42 0 30 -41l-88 -303q-9 -31 -41 -31h-61q-44 0 -29 43l131 303q13 29 43 29z" />
    <glyph glyph-name="quotedblright" unicode="&#x201d;" horiz-adv-x="757" 
d="M197 1022h-15q-42 0 -30 41l88 303q9 31 41 31h61q44 0 29 -43l-131 -303q-13 -29 -43 -29zM512 1022h-14q-43 0 -31 41l88 303q9 31 41 31h61q44 0 29 -43l-131 -303q-13 -29 -43 -29z" />
    <glyph glyph-name="quotedblbase" unicode="&#x201e;" horiz-adv-x="876" 
d="M197 -246h-15q-42 0 -30 41l88 303q9 31 41 31h61q44 0 29 -43l-131 -303q-13 -29 -43 -29zM512 -246h-14q-43 0 -31 41l88 303q9 31 41 31h61q44 0 29 -43l-131 -303q-13 -29 -43 -29z" />
    <glyph glyph-name="dagger" unicode="&#x2020;" horiz-adv-x="1024" 
d="M567 1032h326q37 0 37 -37v-12q0 -37 -37 -37h-326v-1114q0 -37 -37 -37h-36q-37 0 -37 37v1114h-326q-37 0 -37 37v12q0 37 37 37h326v328q0 37 37 37h36q37 0 37 -37v-328z" />
    <glyph glyph-name="daggerdbl" unicode="&#x2021;" horiz-adv-x="1073" 
d="M918 946h-326v-495h326q36 0 36 -37v-13q0 -36 -36 -36h-326v-533q0 -37 -37 -37h-37q-37 0 -37 37v533h-325q-37 0 -37 36v13q0 37 37 37h325v495h-325q-37 0 -37 37v12q0 37 37 37h325v328q0 37 37 37h37q37 0 37 -37v-328h326q36 0 36 -37v-12q0 -37 -36 -37z" />
    <glyph glyph-name="bullet" unicode="&#x2022;" horiz-adv-x="819" 
d="M504 496q-37 -37 -94.5 -37t-92.5 37q-37 35 -37 92t37 94q35 35 92.5 35t94.5 -35q35 -37 35 -94t-35 -92z" />
    <glyph glyph-name="ellipsis" unicode="&#x2026;" horiz-adv-x="1228" 
d="M264 4q-25 -25 -61.5 -25t-59.5 25q-25 23 -25 59.5t25 61.5q23 23 59.5 23t61.5 -23q23 -25 23 -61.5t-23 -59.5zM676 4q-25 -25 -61.5 -25t-59.5 25q-25 23 -25 59.5t25 61.5q23 23 59.5 23t61.5 -23q23 -25 23 -61.5t-23 -59.5zM1087 4q-25 -25 -61 -25t-59 25
q-25 23 -25 59.5t25 61.5q23 23 59 23t61 -23q23 -25 23 -61.5t-23 -59.5z" />
    <glyph glyph-name="perthousand" unicode="&#x2030;" horiz-adv-x="2467" 
d="M637 741q-85 -108 -236 -108t-233 108q-86 109 -86 281q0 174 86 283q81 106 233 106t236 -106q84 -110 84 -283q0 -171 -84 -281zM459 0h-47q-20 0 -26.5 11t3.5 28l817 1335q13 23 41 23h47q20 0 26.5 -11t-3.5 -28l-817 -1335q-13 -23 -41 -23zM256 799
q49 -82 145 -82q97 0 146 82t49 223t-49 223t-146 82q-96 0 -145 -82t-49 -223t49 -223zM1540 94q-86 -108 -235 -108q-151 0 -234 108q-86 109 -86 281q0 173 86 282q82 107 234 107q150 0 235 -107q84 -110 84 -282q0 -171 -84 -281zM2302 94q-86 -108 -236 -108t-233 108
q-86 109 -86 281q0 173 86 282q82 107 233 107t236 -107q84 -110 84 -282q0 -171 -84 -281zM1159 152q49 -82 146 -82q96 0 145 82t49 223t-49 223t-145 82q-97 0 -146 -82t-49 -223t49 -223zM1921 152q49 -82 145 -82q97 0 146 82t49 223t-49 223t-146 82q-96 0 -145 -82
t-49 -223t49 -223z" />
    <glyph glyph-name="guilsinglleft" unicode="&#x2039;" horiz-adv-x="540" 
d="M305 690h21q20 0 28 -12t0 -31l-67 -170l67 -170q8 -19 0 -31t-28 -12h-21q-27 0 -43 25l-96 164q-15 25 0 49l96 164q15 24 43 24z" />
    <glyph glyph-name="guilsinglright" unicode="&#x203a;" horiz-adv-x="540" 
d="M236 264h-21q-20 0 -28.5 12t-0.5 31l68 170l-68 170q-8 19 0.5 31t28.5 12h21q28 0 43 -24l96 -164q15 -24 0 -49l-96 -164q-16 -25 -43 -25z" />
    <glyph glyph-name="fraction" unicode="&#x2044;" horiz-adv-x="245" 
d="M-272 0h-47q-20 0 -26.5 11t3.5 28l819 1335q13 23 41 23h47q20 0 26.5 -11t-3.5 -28l-819 -1335q-13 -23 -41 -23z" />
    <glyph glyph-name="uni2070" unicode="&#x2070;" horiz-adv-x="892" 
d="M684 831q-82 -116 -238 -116q-153 0 -235 116q-84 119 -84 334t84 334q83 117 235 117q156 0 238 -117q82 -116 82 -334t-82 -334zM252 1165q0 -366 194 -366q195 0 195 366q0 367 -195 367q-194 0 -194 -367z" />
    <glyph glyph-name="uni2074" unicode="&#x2074;" horiz-adv-x="872" 
d="M610 729h-47q-35 0 -35 35v176h-405q-35 0 -35 31v4q0 29 14 43l430 571q15 21 43 21h35q35 0 35 -35v-535h96q35 0 35 -34v-31q0 -35 -35 -35h-96v-176q0 -35 -35 -35zM528 1434l-295 -394h295v394z" />
    <glyph glyph-name="uni2075" unicode="&#x2075;" horiz-adv-x="841" 
d="M403 715q-143 0 -256 67q-29 19 -8 49l8 13q18 27 50 8q89 -53 194 -53q211 0 211 190q0 193 -201 193q-89 0 -153 -37q-23 -14 -45 -8l-10 2q-30 7 -27 37l22 393q3 33 37 33h418q35 0 35 -35v-29q0 -35 -35 -35h-369l-16 -282q77 41 182 41q135 0 211 -71t76 -198
q0 -133 -85 -205.5t-239 -72.5z" />
    <glyph glyph-name="uni2076" unicode="&#x2076;" horiz-adv-x="841" 
d="M434 715q-148 0 -231.5 103t-83.5 286q0 229 132.5 363.5t371.5 146.5q34 3 34 -33v-14q0 -34 -34 -37q-355 -21 -390 -363q74 109 222 109q123 0 199.5 -76.5t76.5 -198.5q0 -128 -82 -207t-215 -79zM305 852q53 -53 133 -53t127 53q45 51 45 143q0 93 -47 146t-129 53
q-84 0 -137 -56.5t-53 -144.5q9 -89 61 -141z" />
    <glyph glyph-name="uni2077" unicode="&#x2077;" horiz-adv-x="755" 
d="M219 729h-29q-20 0 -27 12t3 29l381 733h-420q-35 0 -35 35v29q0 35 35 35h508q35 0 35 -31v-8q0 -17 -11 -43l-399 -766q-12 -25 -41 -25z" />
    <glyph glyph-name="uni2078" unicode="&#x2078;" horiz-adv-x="882" 
d="M575 1194q87 -25 136 -83.5t49 -137.5q0 -115 -89 -186.5t-231 -71.5q-143 0 -231 71.5t-88 186.5q0 79 49 137.5t135 83.5q-155 52 -155 197q0 100 80 162.5t210 62.5t211.5 -62.5t81.5 -162.5q0 -144 -158 -197zM266 1380q0 -67 47 -106t127 -39t126 39t46 106
q0 69 -46.5 110.5t-125.5 41.5q-82 0 -128 -40t-46 -112zM440 799q90 0 142.5 48t52.5 130t-52 129t-143 47q-93 0 -143.5 -46t-50.5 -130q0 -82 51.5 -130t142.5 -48z" />
    <glyph glyph-name="uni2079" unicode="&#x2079;" horiz-adv-x="841" 
d="M408 1616q148 0 231.5 -103t83.5 -286q0 -229 -132.5 -363.5t-371.5 -146.5q-35 -3 -35 33v14q0 34 35 37q354 21 389 362q-74 -108 -221 -108q-123 0 -199.5 76t-76.5 198q0 128 82 207.5t215 79.5zM537 1479q-53 53 -134 53q-79 0 -124 -51q-48 -54 -48 -146
q0 -93 47.5 -145.5t129.5 -52.5q84 0 137 56t53 144q-9 90 -61 142z" />
    <glyph glyph-name="uni2080" unicode="&#x2080;" horiz-adv-x="892" 
d="M684 -102q-82 -117 -238 -117q-152 0 -235 117q-84 119 -84 333q0 215 84 334q83 117 235 117q156 0 238 -117q82 -116 82 -334q0 -217 -82 -333zM252 231q0 -366 194 -366q195 0 195 366q0 367 -195 367q-194 0 -194 -367z" />
    <glyph glyph-name="uni2081" unicode="&#x2081;" horiz-adv-x="626" 
d="M428 -205h-47q-35 0 -35 35v723l-192 -92q-32 -13 -48 16l-6 12q-13 29 19 48l235 129q23 10 43 10h31q35 0 35 -35v-811q0 -35 -35 -35z" />
    <glyph glyph-name="uni2082" unicode="&#x2082;" horiz-adv-x="813" 
d="M655 -205h-516q-35 0 -35 33v8q0 24 19 43l305 301q71 68 99 122t28 118q0 81 -48 129.5t-126 48.5q-94 0 -182 -76q-25 -22 -49 2l-7 6q-30 30 -2 52q112 100 258 100q127 0 203 -69t76 -185q0 -78 -37.5 -142.5t-140.5 -162.5l-246 -229h401q35 0 35 -35v-29
q0 -35 -35 -35z" />
    <glyph glyph-name="uni2083" unicode="&#x2083;" horiz-adv-x="835" 
d="M625 -152q-85 -67 -238 -67t-254 67q-29 20 -8 50l8 12q18 27 49 8q89 -53 193 -53q211 0 211 174q0 82 -49 126t-140 44h-98q-35 0 -35 35v14q0 35 35 35h84q180 0 180 153q0 152 -180 152q-103 0 -174 -53q-27 -21 -49 4l-8 10q-21 28 6 49q100 74 243 74
q133 0 208 -59.5t75 -165.5q0 -152 -152 -199q179 -44 179 -221q0 -118 -86 -189z" />
    <glyph glyph-name="uni2084" unicode="&#x2084;" horiz-adv-x="872" 
d="M610 -205h-47q-35 0 -35 35v176h-405q-35 0 -35 31v4q0 29 14 43l430 571q15 21 43 21h35q35 0 35 -35v-535h96q35 0 35 -34v-31q0 -35 -35 -35h-96v-176q0 -35 -35 -35zM528 500l-295 -394h295v394z" />
    <glyph glyph-name="uni2085" unicode="&#x2085;" horiz-adv-x="841" 
d="M403 -219q-143 0 -256 67q-29 20 -8 50l8 12q18 27 50 8q89 -53 194 -53q211 0 211 190q0 193 -201 193q-89 0 -153 -37q-23 -14 -45 -8l-10 2q-30 7 -27 37l22 393q3 33 37 33h418q35 0 35 -35v-29q0 -35 -35 -35h-369l-16 -282q77 41 182 41q135 0 211 -71t76 -198
q0 -133 -85 -205.5t-239 -72.5z" />
    <glyph glyph-name="uni2086" unicode="&#x2086;" horiz-adv-x="841" 
d="M434 -219q-148 0 -231.5 103t-83.5 286q0 229 132.5 363.5t371.5 146.5q34 3 34 -33v-14q0 -34 -34 -37q-355 -21 -390 -363q74 109 222 109q123 0 199.5 -76t76.5 -198q0 -128 -82 -207.5t-215 -79.5zM305 -82q53 -53 133 -53q82 0 127 51t45 145q0 93 -47 146t-129 53
q-84 0 -137 -56.5t-53 -144.5q9 -89 61 -141z" />
    <glyph glyph-name="uni2087" unicode="&#x2087;" horiz-adv-x="755" 
d="M219 -205h-29q-20 0 -27 12t3 29l381 733h-420q-35 0 -35 35v29q0 35 35 35h508q35 0 35 -31v-8q0 -17 -11 -43l-399 -766q-12 -25 -41 -25z" />
    <glyph glyph-name="uni2088" unicode="&#x2088;" horiz-adv-x="882" 
d="M575 260q87 -25 136 -83.5t49 -137.5q0 -115 -89 -186.5t-231 -71.5q-143 0 -231 71.5t-88 186.5q0 79 49 137.5t135 83.5q-155 52 -155 197q0 100 80 162.5t210 62.5t211.5 -62.5t81.5 -162.5q0 -144 -158 -197zM266 446q0 -67 47 -106t127 -39t126 39t46 106
q0 69 -46.5 110.5t-125.5 41.5q-82 0 -128 -40t-46 -112zM440 -135q90 0 142.5 48t52.5 130t-52 129t-143 47q-93 0 -143.5 -46t-50.5 -130q0 -82 51.5 -130t142.5 -48z" />
    <glyph glyph-name="uni2089" unicode="&#x2089;" horiz-adv-x="841" 
d="M408 682q148 0 231.5 -103t83.5 -286q0 -229 -132.5 -363.5t-371.5 -146.5q-35 -3 -35 33v14q0 34 35 37q354 21 389 362q-74 -108 -221 -108q-123 0 -199.5 76t-76.5 198q0 128 82 207.5t215 79.5zM537 545q-53 53 -134 53q-79 0 -124 -51q-48 -54 -48 -146
q0 -93 47.5 -145.5t129.5 -52.5q84 0 137 56t53 144q-9 90 -61 142z" />
    <glyph glyph-name="Euro" unicode="&#x20ac;" 
d="M1112 70l6 -21q12 -38 -22 -47q-86 -22 -189 -22q-221 0 -363 120.5t-192 348.5h-178q-37 0 -37 36v21q0 37 37 37h162q-8 57 -8 153q0 99 8 156h-162q-37 0 -37 37v18q0 37 37 37h178q50 229 192 351t363 122q117 0 191 -24q31 -8 22 -47l-6 -23q-9 -37 -47 -23
q-64 23 -160 23q-349 0 -432 -379h547q37 0 37 -37v-18q0 -37 -37 -37h-563q-7 -66 -7 -156t7 -153h563q37 0 37 -37v-21q0 -36 -37 -36h-547q82 -377 432 -377q77 0 160 22q36 9 45 -24z" />
    <glyph glyph-name="uni20B9" unicode="&#x20b9;" 
d="M1106 1360v-21q0 -36 -37 -36h-250q97 -85 109 -236h141q37 0 37 -37v-18q0 -37 -37 -37h-141q-12 -161 -117.5 -244.5t-296.5 -83.5h-145l647 -602q18 -17 12 -31t-31 -14h-77q-28 0 -46 18l-657 611q-32 26 -40.5 39.5t-8.5 36.5q0 36 37 36h280q155 0 232.5 55.5
t87.5 178.5h-600q-37 0 -37 37v18q0 37 37 37h600q-12 122 -89.5 179t-230.5 57h-280q-37 0 -37 36v21q0 37 37 37h864q37 0 37 -37z" />
    <glyph glyph-name="uni2113" unicode="&#x2113;" horiz-adv-x="886" 
d="M688 301l21 -4q33 -9 20 -41q-99 -276 -280 -276q-197 0 -244 274l-68 -51q-29 -26 -45 10l-10 16q-17 30 10 45q15 15 45 35q32 21 58 43q-1 17 -2 41.5t-2 41.5t-1 30q0 471 107 747q105 279 283 279q196 0 196 -256q0 -482 -471 -897q18 -272 150 -272q118 0 192 213
q9 28 41 22zM573 1405q-116 0 -192 -272q-78 -278 -78 -687q383 359 383 779q0 180 -113 180z" />
    <glyph glyph-name="uni2116" unicode="&#x2116;" horiz-adv-x="2332" 
d="M287 0h-29q-37 0 -37 37v1335q0 37 37 37h18q29 0 46 -20l985 -1180v1151q0 37 36 37h29q37 0 37 -37v-1335q0 -37 -35 -37h-8q-28 0 -45 20l-997 1194v-1165q0 -37 -37 -37zM2152 670q-86 -86 -225 -86q-140 0 -223 86q-86 86 -86 229q0 141 85 227t224 86t224 -86
t85 -227q0 -142 -84 -229zM1927 655q92 0 145.5 65.5t53.5 178.5q0 110 -53.5 175t-145.5 65q-91 0 -144.5 -65t-53.5 -175q0 -112 53.5 -178t144.5 -66z" />
    <glyph glyph-name="uni2117" unicode="&#x2117;" horiz-adv-x="1665" 
d="M834 1417q302 0 509 -207t207 -512t-207 -512q-206 -206 -509 -206q-306 0 -512 206q-207 207 -207 512t207 512t512 207zM393 252q176 -176 441 -176q264 0 440 176q172 175 172 446q0 274 -172 449q-176 176 -440 176q-265 0 -441 -176q-174 -174 -174 -449
q0 -272 174 -446zM645 1047h287q109 0 167 -53.5t58 -151.5q0 -96 -59.5 -148.5t-165.5 -52.5h-209v-260q0 -33 -33 -33h-45q-33 0 -33 33v633q0 33 33 33zM723 711h176q141 0 141 131q0 133 -141 133h-176v-264z" />
    <glyph glyph-name="uni2120" unicode="&#x2120;" horiz-adv-x="1703" 
d="M360 688q-132 0 -233 70q-28 19 -8 45l4 6q19 22 45 8q86 -57 186 -57q75 0 118.5 32t43.5 87q0 50 -33 74.5t-125 45.5q-134 31 -186.5 77.5t-52.5 133.5q0 90 68.5 143.5t181.5 53.5q109 0 192 -45q25 -14 10 -45l-2 -6q-15 -28 -45 -13q-75 37 -147 37
q-152 0 -152 -110q0 -48 34 -74.5t124 -46.5q135 -32 186.5 -77.5t51.5 -133.5q0 -92 -71.5 -148.5t-189.5 -56.5zM838 698h-17q-33 0 -33 33v633q0 33 33 33h41q26 0 39 -23l270 -514l261 512q12 25 38 25h41q33 0 33 -33v-633q0 -33 -33 -33h-41q-32 0 -32 33v473
l-236 -463q-12 -24 -39 -24h-6q-26 0 -39 22l-248 471v-479q0 -33 -32 -33z" />
    <glyph glyph-name="trademark" unicode="&#x2122;" horiz-adv-x="1693" 
d="M356 698h-41q-32 0 -32 33v594h-209q-33 0 -33 29v14q0 29 33 29h524q33 0 33 -29v-14q0 -29 -33 -29h-209v-594q0 -33 -33 -33zM827 698h-16q-33 0 -33 33v633q0 33 33 33h41q29 0 39 -23l272 -512l258 510q13 25 39 25h41q33 0 33 -33v-633q0 -33 -33 -33h-41
q-33 0 -33 33v475l-235 -465q-12 -24 -39 -24h-6q-30 0 -39 22l-248 471v-479q0 -33 -33 -33z" />
    <glyph glyph-name="uni2126" unicode="&#x2126;" horiz-adv-x="1748" 
d="M705 0h-512q-37 0 -37 37v29q0 36 37 36h325q-161 90 -262 263q-100 166 -100 356q0 311 202 504q198 192 516 192t519 -192q200 -194 200 -504q0 -188 -98 -356q-105 -174 -264 -263h325q37 0 37 -36v-29q0 -37 -37 -37h-512q-36 0 -36 37v4q0 31 28 43q199 85 316 258
q114 170 114 369q0 280 -163 446t-429 166q-265 0 -428 -166t-163 -446q0 -201 116 -369q114 -172 314 -258q28 -12 28 -43v-4q0 -37 -36 -37z" />
    <glyph glyph-name="estimated" unicode="&#x212e;" horiz-adv-x="1818" 
d="M920 -20q-316 0 -535 210q-223 210 -223 508t223 508q220 211 535 211q314 0 538 -211q221 -212 221 -508v-18h-1226q-15 0 -15 -12v-387q0 -21 21 -45q180 -213 467 -213q140 0 267 63t220 176h111q-107 -132 -266.5 -207t-337.5 -75zM453 721h940q14 0 14 12v393
q0 15 -23 45q-81 97 -201.5 150t-256.5 53q-291 0 -467 -209q-21 -24 -21 -47v-385q0 -12 15 -12z" />
    <glyph glyph-name="uni2153" unicode="&#x2153;" horiz-adv-x="1708" 
d="M428 524h-47q-35 0 -35 35v723l-192 -92q-32 -13 -48 16l-6 13q-12 28 19 47l235 129q23 10 43 10h31q35 0 35 -35v-811q0 -35 -35 -35zM354 0h-47q-20 0 -26.5 11t4.5 28l819 1335q13 23 41 23h47q20 0 26.5 -11t-4.5 -28l-819 -1335q-13 -23 -41 -23zM1497 55
q-84 -69 -237 -69t-254 67q-30 20 -9 49l9 13q18 27 49 8q89 -53 192 -53q211 0 211 174q0 82 -48.5 126t-139.5 44h-99q-34 0 -34 35v14q0 35 34 35h84q181 0 181 153q0 152 -181 152q-103 0 -174 -53q-27 -21 -49 4l-8 10q-21 28 6 49q100 74 244 74q133 0 207.5 -59.5
t74.5 -165.5q0 -152 -151 -199q178 -43 178 -221q0 -119 -86 -187z" />
    <glyph glyph-name="uni2154" unicode="&#x2154;" horiz-adv-x="1894" 
d="M655 524h-516q-35 0 -35 33v8q0 24 19 43l305 301q71 68 99 122t28 118q0 81 -48 129.5t-126 48.5q-94 0 -182 -76q-25 -22 -49 2l-7 7q-30 30 -2 51q112 100 258 100q127 0 203 -69t76 -185q0 -78 -37.5 -142.5t-140.5 -162.5l-246 -229h401q35 0 35 -35v-29
q0 -35 -35 -35zM541 0h-47q-20 0 -26.5 11t3.5 28l819 1335q13 23 41 23h47q20 0 26.5 -11t-3.5 -28l-819 -1335q-13 -23 -41 -23zM1683 55q-84 -69 -237 -69t-254 67q-29 19 -8 49l8 13q18 27 49 8q89 -53 193 -53q211 0 211 174q0 82 -49 126t-140 44h-98q-35 0 -35 35v14
q0 35 35 35h84q180 0 180 153q0 152 -180 152q-103 0 -174 -53q-27 -21 -49 4l-9 10q-21 27 7 49q100 74 243 74q133 0 208 -59.5t75 -165.5q0 -152 -152 -199q178 -43 178 -221q0 -119 -86 -187z" />
    <glyph glyph-name="uni2155" unicode="&#x2155;" horiz-adv-x="1714" 
d="M428 524h-47q-35 0 -35 35v723l-192 -92q-32 -13 -48 16l-6 13q-12 28 19 47l235 129q23 10 43 10h31q35 0 35 -35v-811q0 -35 -35 -35zM354 0h-47q-20 0 -26.5 11t4.5 28l819 1335q13 23 41 23h47q20 0 26.5 -11t-4.5 -28l-819 -1335q-13 -23 -41 -23zM1276 -14
q-143 0 -256 67q-29 19 -8 49l8 13q18 27 49 8q89 -53 195 -53q211 0 211 190q0 193 -201 193q-90 0 -154 -37q-23 -14 -45 -8l-10 2q-30 7 -27 36l23 394q3 32 37 32h418q34 0 34 -34v-29q0 -35 -34 -35h-369l-17 -282q76 40 183 40q135 0 210.5 -70.5t75.5 -197.5
q0 -133 -84.5 -205.5t-238.5 -72.5z" />
    <glyph glyph-name="uni2156" unicode="&#x2156;" horiz-adv-x="1900" 
d="M655 524h-516q-35 0 -35 33v8q0 24 19 43l305 301q71 68 99 122t28 118q0 81 -48 129.5t-126 48.5q-94 0 -182 -76q-25 -22 -49 2l-7 7q-30 30 -2 51q112 100 258 100q127 0 203 -69t76 -185q0 -78 -37.5 -142.5t-140.5 -162.5l-246 -229h401q35 0 35 -35v-29
q0 -35 -35 -35zM541 0h-47q-20 0 -26.5 11t3.5 28l819 1335q13 23 41 23h47q20 0 26.5 -11t-3.5 -28l-819 -1335q-13 -23 -41 -23zM1462 -14q-143 0 -256 67q-29 19 -8 49l8 13q18 27 49 8q89 -53 195 -53q211 0 211 190q0 193 -201 193q-89 0 -153 -37q-23 -14 -45 -8
l-11 2q-29 6 -26 36l22 394q3 32 37 32h418q35 0 35 -34v-29q0 -35 -35 -35h-369l-16 -282q76 40 182 40q135 0 211 -70.5t76 -197.5q0 -133 -85 -205.5t-239 -72.5z" />
    <glyph glyph-name="uni2157" unicode="&#x2157;" horiz-adv-x="1923" 
d="M625 580q-85 -70 -238 -70q-151 0 -254 68q-29 19 -8 49l8 12q18 27 49 8q89 -53 193 -53q211 0 211 174q0 82 -49 126t-140 44h-98q-35 0 -35 35v14q0 35 35 35h84q180 0 180 154q0 151 -180 151q-103 0 -174 -53q-27 -21 -49 4l-8 10q-21 28 6 49q100 74 243 74
q133 0 208 -59.5t75 -165.5q0 -152 -152 -199q179 -44 179 -221q0 -118 -86 -186zM563 0h-47q-20 0 -26.5 11t4.5 28l819 1335q13 23 41 23h47q20 0 26.5 -11t-4.5 -28l-819 -1335q-13 -23 -41 -23zM1485 -14q-143 0 -256 67q-29 19 -8 49l8 13q18 27 49 8q89 -53 195 -53
q210 0 210 190q0 193 -200 193q-90 0 -154 -37q-23 -14 -45 -8l-10 2q-30 7 -27 36l23 394q3 32 37 32h417q35 0 35 -34v-29q0 -35 -35 -35h-368l-17 -282q76 40 183 40q135 0 210.5 -70.5t75.5 -197.5q0 -133 -84.5 -205.5t-238.5 -72.5z" />
    <glyph glyph-name="uni2158" unicode="&#x2158;" horiz-adv-x="1959" 
d="M610 524h-47q-35 0 -35 35v176h-405q-35 0 -35 31v4q0 29 14 43l430 571q15 21 43 21h35q35 0 35 -35v-534h96q35 0 35 -35v-31q0 -35 -35 -35h-96v-176q0 -35 -35 -35zM600 0h-47q-20 0 -26.5 11t3.5 28l820 1335q13 23 41 23h47q20 0 26.5 -11t-4.5 -28l-819 -1335
q-13 -23 -41 -23zM528 1229l-295 -393h295v393zM1522 -14q-143 0 -256 67q-30 20 -9 49l9 13q18 27 49 8q89 -53 194 -53q211 0 211 190q0 193 -200 193q-90 0 -154 -37q-23 -14 -45 -8l-10 2q-30 7 -27 36l23 394q3 32 36 32h418q35 0 35 -34v-29q0 -35 -35 -35h-368
l-17 -282q76 40 183 40q135 0 210.5 -70.5t75.5 -197.5q0 -133 -84.5 -205.5t-238.5 -72.5z" />
    <glyph glyph-name="uni2159" unicode="&#x2159;" horiz-adv-x="1714" 
d="M428 524h-47q-35 0 -35 35v723l-192 -92q-32 -13 -48 16l-6 13q-12 28 19 47l235 129q23 10 43 10h31q35 0 35 -35v-811q0 -35 -35 -35zM354 0h-47q-20 0 -26.5 11t4.5 28l819 1335q13 23 41 23h47q20 0 26.5 -11t-4.5 -28l-819 -1335q-13 -23 -41 -23zM1307 -14
q-148 0 -232 103t-84 286q0 229 132.5 363.5t371.5 146.5q35 3 35 -33v-14q0 -34 -35 -37q-354 -21 -389 -363q74 109 221 109q123 0 200 -76.5t77 -198.5q0 -128 -82 -207t-215 -79zM1178 123q53 -53 133 -53t127 53q45 51 45 143q0 93 -47 146t-129 53q-84 0 -137.5 -56.5
t-53.5 -144.5q9 -88 62 -141z" />
    <glyph glyph-name="uni215A" unicode="&#x215a;" horiz-adv-x="1929" 
d="M403 510q-141 0 -256 68q-29 19 -8 49l8 12q18 27 50 8q89 -53 194 -53q211 0 211 190q0 193 -201 193q-89 0 -153 -37q-23 -14 -45 -8l-10 2q-30 7 -27 37l22 393q3 33 37 33h418q35 0 35 -35v-29q0 -35 -35 -35h-369l-16 -282q77 41 182 41q135 0 211 -71t76 -198
q0 -133 -85 -205.5t-239 -72.5zM569 0h-47q-20 0 -26.5 11t4.5 28l819 1335q13 23 41 23h47q20 0 26.5 -11t-3.5 -28l-820 -1335q-13 -23 -41 -23zM1522 -14q-148 0 -232 103t-84 286q0 229 132.5 363.5t371.5 146.5q35 3 35 -33v-14q0 -34 -35 -37q-354 -21 -389 -363
q74 109 221 109q123 0 200 -76.5t77 -198.5q0 -128 -82 -207t-215 -79zM1393 123q53 -53 133 -53t127 53q45 51 45 143q0 93 -47 146t-129 53q-84 0 -137.5 -56.5t-53.5 -144.5q9 -88 62 -141z" />
    <glyph glyph-name="oneeighth" unicode="&#x215b;" horiz-adv-x="1755" 
d="M346 559v723l-192 -92q-32 -13 -48 16l-6 13q-12 28 19 47l235 129q23 10 43 10h31q35 0 35 -35v-811q0 -35 -35 -35h-47q-35 0 -35 35zM1145 1397h47q20 0 26.5 -11t-4.5 -28l-819 -1335q-13 -23 -41 -23h-47q-20 0 -26.5 11t4.5 28l819 1335q13 23 41 23zM1448 465
q86 -25 135 -83.5t49 -137.5q0 -115 -89 -186.5t-230 -71.5q-143 0 -231.5 71.5t-88.5 186.5q0 79 49 137.5t136 83.5q-156 53 -156 197q0 100 80.5 162.5t210.5 62.5t211.5 -62.5t81.5 -162.5q0 -144 -158 -197zM1139 651q0 -67 47 -106t127 -39t126 39t46 106
q0 69 -46.5 110.5t-125.5 41.5q-82 0 -128 -40t-46 -112zM1313 70q90 0 142 48t52 130t-51.5 129t-142.5 47q-93 0 -144 -46t-51 -130q0 -82 51.5 -130t143.5 -48z" />
    <glyph glyph-name="threeeighths" unicode="&#x215c;" horiz-adv-x="1964" 
d="M711 766q0 -119 -86 -187.5t-238 -68.5q-151 0 -254 68q-29 19 -8 49l8 12q18 27 49 8q89 -53 193 -53q211 0 211 174q0 82 -49 126t-140 44h-98q-35 0 -35 35v14q0 35 35 35h84q180 0 180 154q0 151 -180 151q-103 0 -174 -53q-27 -21 -49 4l-8 10q-21 28 6 49
q100 74 243 74q133 0 208 -59.5t75 -165.5q0 -152 -152 -199q179 -44 179 -221zM1354 1397h47q20 0 26.5 -11t-4.5 -28l-819 -1335q-13 -23 -41 -23h-47q-20 0 -26.5 11t4.5 28l819 1335q13 23 41 23zM1657 465q86 -25 135 -83.5t49 -137.5q0 -115 -89 -186.5t-230 -71.5
q-143 0 -231.5 71.5t-88.5 186.5q0 79 49 137.5t135 83.5q-155 52 -155 197q0 100 80.5 162.5t210.5 62.5t211.5 -62.5t81.5 -162.5q0 -144 -158 -197zM1348 651q0 -67 47 -106t127 -39t126 39t46 106q0 69 -46.5 110.5t-125.5 41.5q-82 0 -128 -40t-46 -112zM1522 70
q90 0 142 48t52 130t-51.5 129t-142.5 47q-93 0 -144 -46t-51 -130q0 -82 51.5 -130t143.5 -48z" />
    <glyph glyph-name="fiveeighths" unicode="&#x215d;" horiz-adv-x="1970" 
d="M727 788q0 -133 -85 -205.5t-239 -72.5q-141 0 -256 68q-29 19 -8 49l8 12q18 27 50 8q89 -53 194 -53q211 0 211 190q0 193 -201 193q-89 0 -153 -37q-23 -14 -45 -8l-10 2q-30 7 -27 37l22 393q3 33 37 33h418q35 0 35 -35v-29q0 -35 -35 -35h-369l-16 -282
q77 41 182 41q135 0 211 -71t76 -198zM1360 1397h47q20 0 26.5 -11t-3.5 -28l-820 -1335q-13 -23 -41 -23h-47q-20 0 -26.5 11t4.5 28l819 1335q13 23 41 23zM1663 465q86 -25 135 -83.5t49 -137.5q0 -115 -89 -186.5t-230 -71.5q-143 0 -231.5 71.5t-88.5 186.5
q0 79 49 137.5t136 83.5q-156 53 -156 197q0 100 80.5 162.5t210.5 62.5t211.5 -62.5t81.5 -162.5q0 -144 -158 -197zM1354 651q0 -67 47 -106t127 -39t126 39t46 106q0 69 -46.5 110.5t-125.5 41.5q-82 0 -128 -40t-46 -112zM1528 70q90 0 142 48t52 130t-51.5 129
t-142.5 47q-93 0 -144 -46t-51 -130q0 -82 51.5 -130t143.5 -48z" />
    <glyph glyph-name="seveneighths" unicode="&#x215e;" horiz-adv-x="1884" 
d="M670 1366v-8q0 -17 -11 -43l-399 -766q-12 -25 -41 -25h-29q-20 0 -27 12t3 29l381 733h-420q-35 0 -35 35v29q0 35 35 35h508q35 0 35 -31zM1274 1397h47q20 0 26.5 -11t-4.5 -28l-819 -1335q-13 -23 -41 -23h-47q-20 0 -26.5 11t4.5 28l819 1335q13 23 41 23zM1577 465
q86 -25 135 -83.5t49 -137.5q0 -115 -89 -186.5t-230 -71.5q-143 0 -231.5 71.5t-88.5 186.5q0 79 49 137.5t136 83.5q-156 53 -156 197q0 100 80.5 162.5t210.5 62.5t211.5 -62.5t81.5 -162.5q0 -144 -158 -197zM1268 651q0 -67 47 -106t127 -39t126 39t46 106
q0 69 -46.5 110.5t-125.5 41.5q-82 0 -128 -40t-46 -112zM1442 70q90 0 142 48t52 130t-51.5 129t-142.5 47q-93 0 -144 -46t-51 -130q0 -82 51.5 -130t143.5 -48z" />
    <glyph glyph-name="partialdiff" unicode="&#x2202;" 
d="M647 1491q217 0 331 -168t114 -487q0 -382 -154 -621q-154 -238 -403 -238q-173 0 -278 116t-105 308q0 218 127 357q125 137 325 137q265 0 354 -221q11 115 11 182q0 539 -326 539q-141 0 -262 -127q-24 -29 -51 -2l-19 18q-23 23 -2 51q141 156 338 156zM530 72
q136 0 240.5 109.5t155.5 305.5q-6 139 -93 225.5t-221 86.5q-153 0 -247 -113q-97 -117 -97 -297q0 -149 69.5 -233t192.5 -84z" />
    <glyph glyph-name="emptyset" unicode="&#x2205;" horiz-adv-x="1708" 
d="M1538 1317l-143 -146q170 -200 170 -473q0 -307 -205 -512q-206 -206 -506 -206q-270 0 -469 172l-143 -146q-27 -27 -54 0l-18 19q-25 25 0 53l145 145q-172 199 -172 475q0 302 207 512q207 207 504 207q270 0 469 -172l143 146q27 27 54 0l20 -21q22 -26 -2 -53z
M254 698q0 -230 133 -401l862 874q-166 146 -395 146q-258 0 -428 -176q-172 -175 -172 -443zM854 78q258 0 430 178q170 176 170 442q0 229 -133 400l-864 -875q165 -145 397 -145z" />
    <glyph glyph-name="uni2206" unicode="&#x2206;" horiz-adv-x="1433" 
d="M1294 0h-1155q-20 0 -28 12t0 31l551 1341q13 29 43 29h24q30 0 43 -29l551 -1341q8 -19 -0.5 -31t-28.5 -12zM707 1233l-463 -1135h927z" />
    <glyph glyph-name="product" unicode="&#x220f;" horiz-adv-x="1589" 
d="M295 -393h-45q-37 0 -37 37v1716q0 37 37 37h1089q37 0 37 -37v-1716q0 -37 -37 -37h-45q-37 0 -37 37v1659h-925v-1659q0 -37 -37 -37z" />
    <glyph glyph-name="summation" unicode="&#x2211;" horiz-adv-x="1368" 
d="M1239 -393h-1112q-37 0 -37 37v22q0 28 16 47l693 797l-693 797q-16 19 -16 47v6q0 37 37 37h1112q37 0 37 -37v-21q0 -36 -37 -36h-983l655 -754q21 -27 0 -53l-675 -779h1003q37 0 37 -36v-37q0 -37 -37 -37z" />
    <glyph glyph-name="minus" unicode="&#x2212;" 
d="M1094 492h-922q-37 0 -37 36v21q0 37 37 37h922q36 0 36 -37v-21q0 -36 -36 -36z" />
    <glyph glyph-name="uni2215" unicode="&#x2215;" 
d="M219 0h-31q-23 0 -29.5 12.5t5.5 32.5l837 1327q16 25 46 25h30q23 0 30 -12.5t-5 -32.5l-838 -1327q-16 -25 -45 -25z" />
    <glyph glyph-name="uni2219" unicode="&#x2219;" horiz-adv-x="598" 
d="M373 465q-29 -29 -74 -29t-74 29t-29 73.5t29 73.5t74 29t74 -29t29 -73.5t-29 -73.5z" />
    <glyph glyph-name="radical" unicode="&#x221a;" 
d="M596 -246h-10q-34 0 -43 31l-221 707h-170q-37 0 -37 36v21q0 37 37 37h221q34 0 43 -31l182 -592l483 1477q9 30 43 30h23q46 0 31 -40l-539 -1645q-9 -31 -43 -31z" />
    <glyph glyph-name="infinity" unicode="&#x221e;" horiz-adv-x="1742" 
d="M1270 981q159 0 262 -109q100 -106 100 -282q0 -178 -102 -285.5t-270 -107.5q-133 0 -223 68.5t-175 213.5q-88 -146 -175.5 -214t-213.5 -68q-164 0 -263 108t-99 285t100.5 284t267.5 107q133 0 224 -69.5t176 -213.5q86 144 174.5 213.5t216.5 69.5zM1272 305
q118 0 186 78t68 213q0 134 -69 211.5t-187 77.5q-105 0 -178.5 -66.5t-159.5 -216.5q43 -76 69 -115.5t68 -87.5q81 -94 203 -94zM471 295q104 0 177.5 66.5t158.5 213.5q-43 76 -69 115.5t-68 87.5q-81 94 -203 94q-118 0 -185 -76.5t-67 -211.5q0 -134 69 -211.5
t187 -77.5z" />
    <glyph glyph-name="integral" unicode="&#x222b;" 
d="M406 -414q-83 0 -156 31q-32 14 -17 49l9 15q14 29 49 14q51 -23 106 -23q181 0 181 217v1620q0 310 282 310q83 0 156 -31q31 -14 16 -49l-8 -15q-14 -29 -49 -14q-51 23 -107 23q-180 0 -180 -217v-1620q0 -310 -282 -310z" />
    <glyph glyph-name="approxequal" unicode="&#x2248;" 
d="M211 623q-21 -34 -51 -19l-15 8q-33 15 -18 50q55 118 119 171.5t155 53.5q117 0 256 -103q113 -88 205 -88q115 0 195 170q15 37 49 19l16 -8q33 -14 17 -50q-56 -120 -121 -173.5t-156 -53.5q-115 0 -256 105q-119 88 -205 88q-62 0 -106.5 -41t-83.5 -129zM211 213
q-20 -33 -51 -18l-15 8q-33 14 -18 49q55 118 119 171.5t155 53.5q118 0 256 -102q113 -88 205 -88q115 0 195 170q14 36 49 18l16 -8q32 -14 17 -49q-56 -120 -121 -174t-156 -54q-115 0 -256 105q-119 88 -205 88q-62 0 -106.5 -41t-83.5 -129z" />
    <glyph glyph-name="notequal" unicode="&#x2260;" 
d="M1073 696h-272l-223 -315h495q37 0 37 -37v-20q0 -37 -37 -37h-563l-186 -264q-16 -23 -45 -23h-27q-23 0 -30 13t5 32l172 242h-206q-37 0 -37 37v20q0 37 37 37h272l223 315h-495q-37 0 -37 37v21q0 37 37 37h563l186 264q16 22 45 22h27q23 0 29.5 -13t-5.5 -32
l-172 -241h207q37 0 37 -37v-21q0 -37 -37 -37z" />
    <glyph glyph-name="lessequal" unicode="&#x2264;" 
d="M1057 262l-883 342q-29 13 -29 41v33q0 28 29 41l883 342q19 8 31 -0.5t12 -28.5v-26q0 -28 -29 -41l-790 -303l790 -304q29 -13 29 -41v-26q0 -20 -12 -28.5t-31 -0.5zM1063 41h-881q-37 0 -37 37v20q0 37 37 37h881q37 0 37 -37v-20q0 -37 -37 -37z" />
    <glyph glyph-name="greaterequal" unicode="&#x2265;" 
d="M1092 604l-883 -342q-19 -8 -31 0.5t-12 28.5v26q0 28 29 41l790 304l-790 303q-29 13 -29 41v26q0 20 12 28.5t31 0.5l883 -342q28 -12 28 -41v-33q0 -29 -28 -41zM1083 41h-880q-37 0 -37 37v20q0 37 37 37h880q37 0 37 -37v-20q0 -37 -37 -37z" />
    <glyph glyph-name="lozenge" unicode="&#x25ca;" 
d="M651 0h-37q-27 0 -43 25l-399 649q-15 24 0 49l399 649q16 25 43 25h37q27 0 43 -25l400 -649q15 -25 0 -49l-400 -649q-16 -25 -43 -25zM270 698l363 -594l362 594l-362 594z" />
    <glyph glyph-name="uniF8FF" unicode="&#xf8ff;" horiz-adv-x="1404" 
d="M907 221q-128 -131 -338 -131q-209 0 -338 129q-129 126 -129 332q0 203 134 334q133 127 360 127h121v237h319v-237h271v-312h-271v-122q0 -225 -129 -357zM467 446q31 -31 76 -38t85 8t66.5 57.5t22.5 101.5v125h-123q-59 5 -101 -22t-57 -68t-7.5 -87t38.5 -77z" />
    <glyph glyph-name="null" horiz-adv-x="0" 
 />
    <glyph glyph-name="NULL" horiz-adv-x="0" 
 />
    <glyph glyph-name="uni00A40301" horiz-adv-x="606" 
d="M287 1589h-23q-35 0 -12 37l158 219q16 23 43 23h67q24 0 30 -13t-11 -30l-209 -217q-16 -19 -43 -19zM113 -211q-37 -9 -43 29l-4 24q-6 37 28 43q172 34 172 281v1194q0 37 37 37h45q37 0 37 -37v-1186q0 -162 -69.5 -260.5t-202.5 -124.5z" />
    <glyph glyph-name="i.loclTRK" horiz-adv-x="462" 
d="M285 1241q-20 -20 -53.5 -20t-53.5 20t-20 53.5t20 53.5t53.5 20t53.5 -20t20 -53.5t-20 -53.5zM250 0h-37q-37 0 -37 37v881q0 36 37 36h37q37 0 37 -36v-881q0 -37 -37 -37z" />
    <glyph glyph-name="uni006A0301" horiz-adv-x="462" 
d="M193 1157h-23q-17 0 -20 11.5t8 25.5l157 219q16 23 43 23h68q24 0 29.5 -13t-11.5 -30l-208 -217q-16 -19 -43 -19zM-2 -494q-41 -3 -41 35v13q0 37 33 40q99 13 142.5 90t43.5 234v1000q0 36 37 36h37q37 0 37 -36v-977q0 -411 -289 -435z" />
    <glyph glyph-name="germandbls.calt" horiz-adv-x="1523" 
d="M909 -20q-246 0 -420 110q-29 18 -12 51l10 21q15 35 52 12q153 -100 354 -100q183 0 280 84t97 243q0 326 -398 326h-98q-37 0 -37 33v6q0 27 17 47l387 490h-801v-1266q0 -37 -37 -37h-45q-37 0 -37 37v1323q0 37 37 37h1010q37 0 37 -35v-8q0 -27 -17 -47l-385 -486
q241 -1 367.5 -109t126.5 -311q0 -201 -128 -311t-360 -110z" />
    <glyph glyph-name="zero.mini" horiz-adv-x="892" 
d="M684 627q-82 -117 -238 -117q-152 0 -235 117q-84 119 -84 334q0 214 84 333q83 117 235 117q156 0 238 -117q82 -116 82 -333q0 -218 -82 -334zM252 961q0 -367 194 -367q195 0 195 367q0 366 -195 366q-194 0 -194 -366z" />
    <glyph glyph-name="one.mini" horiz-adv-x="626" 
d="M428 524h-47q-35 0 -35 35v723l-192 -92q-32 -13 -48 16l-6 13q-12 28 19 47l235 129q23 10 43 10h31q35 0 35 -35v-811q0 -35 -35 -35z" />
    <glyph glyph-name="two.mini" horiz-adv-x="813" 
d="M655 524h-516q-35 0 -35 33v8q0 24 19 43l305 301q71 68 99 122t28 118q0 81 -48 129.5t-126 48.5q-94 0 -182 -76q-25 -22 -49 2l-7 7q-30 30 -2 51q112 100 258 100q127 0 203 -69t76 -185q0 -78 -37.5 -142.5t-140.5 -162.5l-246 -229h401q35 0 35 -35v-29
q0 -35 -35 -35z" />
    <glyph glyph-name="three.mini" horiz-adv-x="835" 
d="M625 580q-85 -70 -238 -70q-151 0 -254 68q-29 19 -8 49l8 12q18 27 49 8q89 -53 193 -53q211 0 211 174q0 82 -49 126t-140 44h-98q-35 0 -35 35v14q0 35 35 35h84q180 0 180 154q0 151 -180 151q-103 0 -174 -53q-27 -21 -49 4l-8 10q-21 28 6 49q100 74 243 74
q133 0 208 -59.5t75 -165.5q0 -152 -152 -199q179 -44 179 -221q0 -118 -86 -186z" />
    <glyph glyph-name="four.mini" horiz-adv-x="872" 
d="M610 524h-47q-35 0 -35 35v176h-405q-35 0 -35 31v4q0 29 14 43l430 571q15 21 43 21h35q35 0 35 -35v-534h96q35 0 35 -35v-31q0 -35 -35 -35h-96v-176q0 -35 -35 -35zM528 1229l-295 -393h295v393z" />
    <glyph glyph-name="five.mini" horiz-adv-x="841" 
d="M403 510q-141 0 -256 68q-29 19 -8 49l8 12q18 27 50 8q89 -53 194 -53q211 0 211 190q0 193 -201 193q-89 0 -153 -37q-23 -14 -45 -8l-10 2q-30 7 -27 37l22 393q3 33 37 33h418q35 0 35 -35v-29q0 -35 -35 -35h-369l-16 -282q77 41 182 41q135 0 211 -71t76 -198
q0 -133 -85 -205.5t-239 -72.5z" />
    <glyph glyph-name="six.mini" horiz-adv-x="841" 
d="M434 510q-148 0 -231.5 103t-83.5 286q0 229 132.5 363.5t371.5 146.5q34 3 34 -33v-14q0 -34 -34 -37q-355 -21 -390 -362q73 108 222 108q123 0 199.5 -76t76.5 -198q0 -128 -82 -207.5t-215 -79.5zM305 647q53 -53 133 -53t127 53q45 51 45 144t-47 145.5t-129 52.5
q-84 0 -137 -56.5t-53 -144.5q9 -89 61 -141z" />
    <glyph glyph-name="seven.mini" horiz-adv-x="755" 
d="M219 524h-29q-20 0 -27 12t3 29l381 733h-420q-35 0 -35 35v29q0 35 35 35h508q35 0 35 -31v-8q0 -17 -11 -43l-399 -766q-12 -25 -41 -25z" />
    <glyph glyph-name="eight.mini" horiz-adv-x="882" 
d="M575 989q87 -25 136 -83.5t49 -137.5q0 -115 -89 -186.5t-231 -71.5q-143 0 -231 71.5t-88 186.5q0 79 49 137.5t135 83.5q-155 52 -155 197q0 100 80 162.5t210 62.5t211.5 -62.5t81.5 -162.5q0 -144 -158 -197zM266 1176q0 -67 47 -106.5t127 -39.5t126 39.5t46 106.5
q0 69 -46.5 110t-125.5 41q-82 0 -128 -39.5t-46 -111.5zM440 594q90 0 142.5 48t52.5 130t-52 129t-143 47q-93 0 -143.5 -46t-50.5 -130q0 -82 51.5 -130t142.5 -48z" />
    <glyph glyph-name="nine.mini" horiz-adv-x="841" 
d="M408 1411q148 0 231.5 -103t83.5 -286q0 -229 -132.5 -363.5t-371.5 -146.5q-35 -3 -35 33v14q0 34 35 37q354 21 389 362q-74 -108 -221 -108q-123 0 -199.5 76t-76.5 198q0 128 82 207.5t215 79.5zM537 1274q-53 53 -134 53q-79 0 -124 -51q-48 -54 -48 -146
q0 -93 47.5 -145.5t129.5 -52.5q84 0 137 56.5t53 144.5q-9 89 -61 141z" />
    <glyph glyph-name="zero.tf" 
d="M991 166q-125 -186 -358 -186q-234 0 -359 186q-124 182 -124 532t124 535q126 184 359 184q232 0 358 -184q125 -186 125 -535t-125 -532zM272 698q0 -626 361 -626q360 0 360 626q0 627 -360 627q-361 0 -361 -627z" />
    <glyph glyph-name="one.tf" 
d="M848 0h-41q-37 0 -37 37v1220l-375 -174q-34 -15 -49 19l-8 18q-15 34 16 49l437 226q20 10 45 10h12q37 0 37 -37v-1331q0 -37 -37 -37z" />
    <glyph glyph-name="two.tf" 
d="M1040 0h-821q-37 0 -37 37v8q0 26 19 45l522 514q117 116 164 206t47 200q0 142 -84.5 228.5t-224.5 86.5q-185 0 -324 -139q-27 -27 -51 0l-14 14q-28 28 -3 53q164 164 400 164q193 0 308.5 -108.5t115.5 -292.5q0 -131 -58 -238q-57 -105 -208 -250l-445 -426h694
q37 0 37 -36v-29q0 -37 -37 -37z" />
    <glyph glyph-name="three.tf" 
d="M600 -20q-233 0 -401 116q-29 21 -9 54l15 18q21 27 51 6q144 -102 344 -102q180 0 274.5 80.5t94.5 232.5q0 147 -86 225t-246 78h-186q-37 0 -37 37v18q0 37 37 37h159q156 0 238 70t82 203t-81.5 202.5t-236.5 69.5q-190 0 -313 -108q-25 -22 -51 4l-17 16
q-29 29 5 53q157 127 382 127q202 0 316.5 -94.5t114.5 -261.5q0 -241 -238 -318q135 -32 208 -124.5t73 -233.5q0 -190 -131.5 -297.5t-360.5 -107.5z" />
    <glyph glyph-name="four.tf" 
d="M918 0h-41q-37 0 -37 37v323h-697q-37 0 -37 35v8q0 22 17 46l729 933q20 23 45 23h21q36 0 36 -37v-907h168q37 0 37 -37v-27q0 -37 -37 -37h-168v-323q0 -37 -36 -37zM840 1206l-582 -745h582v745z" />
    <glyph glyph-name="five.tf" 
d="M598 -20q-225 0 -399 116q-31 22 -11 51l15 21q22 28 51 8q149 -104 344 -104q369 0 369 342q0 167 -90.5 255.5t-262.5 88.5q-178 0 -282 -72q-21 -15 -47 -12l-15 2q-35 6 -32 39l34 647q3 35 39 35h664q37 0 37 -37v-29q0 -37 -37 -37h-604l-27 -516q129 72 295 72
q214 0 332.5 -112.5t118.5 -315.5q0 -210 -129 -326t-363 -116z" />
    <glyph glyph-name="six.tf" 
d="M653 -20q-227 0 -355 166t-128 462q0 373 204.5 582.5t581.5 226.5q37 0 37 -37v-18q0 -37 -37 -37q-640 -24 -667 -686q54 103 153 158t230 55q194 0 313 -119q121 -121 121 -311q0 -198 -125 -320t-328 -122zM664 72q143 0 232 95t89 249t-90.5 249t-237.5 95
q-156 0 -254 -94t-98 -242q12 -158 111.5 -255t247.5 -97z" />
    <glyph glyph-name="seven.tf" 
d="M369 0h-37q-48 0 -27 43l635 1251h-711q-36 0 -36 37v29q0 37 36 37h807q37 0 37 -29v-6q0 -20 -10 -47l-649 -1288q-12 -27 -45 -27z" />
    <glyph glyph-name="eight.tf" 
d="M829 748q138 -42 213.5 -135.5t75.5 -225.5q0 -180 -133 -295q-133 -112 -352 -112q-220 0 -350 112q-136 115 -136 295q0 132 75.5 225.5t213.5 135.5q-117 38 -181.5 120.5t-64.5 194.5q0 157 123 256q122 98 320 98q197 0 319 -98q123 -99 123 -256
q0 -112 -64.5 -194.5t-181.5 -120.5zM309 1055q0 -122 86 -191t238 -69t237.5 69t85.5 191q0 123 -87.5 196.5t-235.5 73.5t-236 -73.5t-88 -196.5zM371 158q100 -86 262 -86q161 0 264 86q98 85 98 229q0 146 -97.5 230.5t-264.5 84.5q-168 0 -265.5 -84.5t-97.5 -230.5
q0 -144 101 -229z" />
    <glyph glyph-name="nine.tf" 
d="M616 1419q228 0 356 -166t128 -462q0 -373 -205 -582.5t-582 -226.5q-37 0 -37 36v19q0 37 37 37q641 24 668 686q-54 -103 -153 -158t-230 -55q-192 0 -313 121t-121 309q0 195 127 319q126 123 325 123zM606 1327q-143 0 -232 -95t-89 -249t90 -249t237 -95
q156 0 254 94q99 95 99 242q-12 158 -111.5 255t-247.5 97z" />
    <glyph glyph-name="zero.dnom" horiz-adv-x="892" 
d="M684 102q-82 -116 -238 -116q-153 0 -235 116q-84 119 -84 334t84 334q83 117 235 117q156 0 238 -117q82 -116 82 -334t-82 -334zM252 436q0 -366 194 -366q195 0 195 366q0 367 -195 367q-194 0 -194 -367z" />
    <glyph glyph-name="one.dnom" horiz-adv-x="626" 
d="M428 0h-47q-35 0 -35 35v723l-192 -92q-32 -13 -48 16l-6 12q-12 28 19 47l235 129q26 11 43 11h31q35 0 35 -35v-811q0 -35 -35 -35z" />
    <glyph glyph-name="two.dnom" horiz-adv-x="813" 
d="M655 0h-516q-35 0 -35 33v8q0 24 19 43l305 301q71 68 99 122t28 118q0 81 -48 129.5t-126 48.5q-94 0 -182 -76q-25 -22 -49 2l-7 6q-30 30 -2 51q113 101 258 101q127 0 203 -69t76 -185q0 -78 -37.5 -142.5t-140.5 -162.5l-246 -230h401q35 0 35 -35v-28
q0 -35 -35 -35z" />
    <glyph glyph-name="three.dnom" horiz-adv-x="835" 
d="M625 55q-84 -69 -238 -69q-153 0 -254 67q-29 19 -8 49l8 13q18 27 49 8q89 -53 193 -53q211 0 211 174q0 82 -49 126t-140 44h-98q-35 0 -35 35v14q0 35 35 35h84q180 0 180 153q0 152 -180 152q-103 0 -174 -53q-27 -21 -49 4l-8 10q-21 28 6 49q100 74 243 74
q133 0 208 -59.5t75 -165.5q0 -152 -152 -199q179 -44 179 -221q0 -119 -86 -187z" />
    <glyph glyph-name="four.dnom" horiz-adv-x="872" 
d="M610 0h-47q-35 0 -35 35v176h-405q-35 0 -35 31v4q0 29 14 43l430 571q15 21 43 21h35q35 0 35 -35v-535h96q35 0 35 -35v-30q0 -35 -35 -35h-96v-176q0 -35 -35 -35zM528 705l-295 -394h295v394z" />
    <glyph glyph-name="five.dnom" horiz-adv-x="841" 
d="M403 -14q-143 0 -256 67q-29 19 -8 49l8 13q18 27 50 8q89 -53 194 -53q211 0 211 190q0 193 -201 193q-89 0 -153 -37q-23 -14 -45 -8l-10 2q-30 7 -27 36l22 394q3 32 37 32h418q35 0 35 -34v-29q0 -35 -35 -35h-369l-16 -282q76 40 182 40q135 0 211 -70.5t76 -197.5
q0 -133 -85 -205.5t-239 -72.5z" />
    <glyph glyph-name="six.dnom" horiz-adv-x="841" 
d="M434 -14q-148 0 -231.5 103t-83.5 286q0 229 132.5 363.5t371.5 146.5q34 3 34 -33v-14q0 -34 -34 -37q-355 -21 -390 -363q74 109 222 109q123 0 199.5 -76.5t76.5 -198.5q0 -128 -82 -207t-215 -79zM305 123q53 -53 133 -53t127 53q45 51 45 143q0 93 -47 146t-129 53
q-84 0 -137 -56.5t-53 -144.5q9 -89 61 -141z" />
    </font>
</defs>
</svg>
